SplineFontDB: 3.2
FontName: UgariumSans-Bold
FullName: Ugarium Sans Bold
FamilyName: Ugarium Sans
Weight: Bold
Copyright: Copyright (c) 2024, Zamero Type Foundry
UComments: "2024-3-4: Created with FontForge (http://fontforge.org)"
Version: 001.000
ItalicAngle: 0
UnderlinePosition: -100
UnderlineWidth: 50
Ascent: 800
Descent: 200
InvalidEm: 0
LayerCount: 2
Layer: 0 0 "Back" 1
Layer: 1 0 "Fore" 0
XUID: [1021 474 1118879153 5921]
StyleMap: 0x0000
FSType: 0
OS2Version: 0
OS2_WeightWidthSlopeOnly: 0
OS2_UseTypoMetrics: 1
CreationTime: 1709601509
ModificationTime: 1729259510
PfmFamily: 33
TTFWeight: 700
TTFWidth: 5
LineGap: 90
VLineGap: 90
OS2TypoAscent: 0
OS2TypoAOffset: 1
OS2TypoDescent: 0
OS2TypoDOffset: 1
OS2TypoLinegap: 90
OS2WinAscent: 0
OS2WinAOffset: 1
OS2WinDescent: 0
OS2WinDOffset: 1
HheadAscent: 0
HheadAOffset: 1
HheadDescent: 0
HheadDOffset: 1
OS2Vendor: 'PfEd'
Lookup: 1 0 0 "'ss05' Style Set 5 in Latin lookup 13" { "'ss05' Style Set 5 in Latin lookup 13-1" ("ss05") } ['ss05' ('DFLT' <'dflt' > 'latn' <'AZE ' 'CAT ' 'CRT ' 'KAZ ' 'MOL ' 'NLD ' 'ROM ' 'TAT ' 'TRK ' 'dflt' > ) ]
Lookup: 1 0 0 "'ss03' Style Set 3 in Latin lookup 11" { "'ss03' Style Set 3 in Latin lookup 11-1" ("ss03") } ['ss03' ('DFLT' <'dflt' > 'latn' <'AZE ' 'CAT ' 'CRT ' 'KAZ ' 'MOL ' 'NLD ' 'ROM ' 'TAT ' 'TRK ' 'dflt' > ) ]
Lookup: 1 0 0 "'ss04' Style Set 4 in Latin lookup 12" { "'ss04' Style Set 4 in Latin lookup 12-1" ("ss04") } ['ss04' ('DFLT' <'dflt' > 'latn' <'AZE ' 'CAT ' 'CRT ' 'KAZ ' 'MOL ' 'NLD ' 'ROM ' 'TAT ' 'TRK ' 'dflt' > ) ]
Lookup: 1 0 0 "Single Substitution lookup 5" { "Single Substitution lookup 5 subtable"  } []
Lookup: 1 0 0 "Single Substitution lookup 6" { "Single Substitution lookup 6 subtable"  } []
Lookup: 1 0 0 "'sups' Superscript lookup 0" { "'sups' Superscript lookup 0 subtable" ("superior") } ['sups' ('DFLT' <'dflt' > 'latn' <'dflt' > ) ]

StartChar: I
Encoding: 73 73 0
Width: 313
Flags: W
HStem: 0 21G<55 258> 711.008 20G<55 258>
VStem: 55 203<0 731.008>
LayerCount: 2
Fore
SplineSet
55 0 m 5
 55 731.0078125 l 5
 258 731.0078125 l 5
 258 0 l 5
 55 0 l 5
EndSplineSet
Validated: 1
EndChar

StartChar: O
Encoding: 79 79 1
Width: 832
Flags: W
HStem: -10 171.134<324.317 507.683> 567.866 171.134<324.317 507.683>
VStem: 30 192.953<262.603 465.864> 609.047 192.953<262.603 465.864>
LayerCount: 2
Fore
SplineSet
222.953125 364.161132812 m 4
 222.953125 252.856445312 284.666015625 161.133789062 416 161.133789062 c 0
 547.333984375 161.133789062 609.046875 252.856445312 609.046875 364.161132812 c 0
 609.046875 475.83984375 547.333984375 567.866210938 416 567.866210938 c 0
 284.666015625 567.866210938 222.953125 475.83984375 222.953125 364.161132812 c 4
30 364 m 4
 30 570.756835938 164.13671875 739 416 739 c 0
 667.86328125 739 802 570.756835938 802 364 c 0
 802 157.794921875 667.86328125 -10 416 -10 c 0
 164.13671875 -10 30 157.794921875 30 364 c 4
EndSplineSet
Validated: 1
EndChar

StartChar: Q
Encoding: 81 81 2
Width: 832
Flags: W
HStem: -10 171.134<324.317 507.683> 567.866 171.134<324.317 507.683>
VStem: 30 192.953<262.603 465.864> 609.047 192.953<262.603 465.864>
LayerCount: 2
Fore
SplineSet
420 131 m 5
 608 134 l 5
 796 -86 l 5
 600 -136 l 5
 420 131 l 5
EndSplineSet
Refer: 1 79 N 1 0 0 1 0 0 2
EndChar

StartChar: D
Encoding: 68 68 3
Width: 781
Flags: W
HStem: -10 166.957<258.638 444.814> 572.043 166.957<258.642 444.814>
VStem: 55 203<164.266 566.271> 551.38 199.62<254.599 473.871>
LayerCount: 2
Fore
SplineSet
258 164.265625 m 5
 258 164.265625 273.16796875 156.95703125 327 156.95703125 c 4
 491.595703125 156.95703125 551.379882812 235.117077132 551.379882812 364.16796875 c 4
 551.379882812 493.585809512 491.595703125 572.04296875 327 572.04296875 c 4
 284.533203125 572.04296875 258 566.270507812 258 566.270507812 c 5
 258 164.265625 l 5
55 10 m 5
 55 721.0078125 l 5
 55 721.0078125 156.536007612 739 327 739 c 4
 624.76484195 739 751 590.756835938 751 364 c 4
 751 137.794921875 624.76484195 -10 327 -10 c 4
 156.536007612 -10 55 10 55 10 c 5
EndSplineSet
Validated: 1
EndChar

StartChar: V
Encoding: 86 86 4
Width: 750
Flags: W
HStem: 0 21G<261.777 488.223> 711.008 20G<5 214.489 535.511 745>
LayerCount: 2
Fore
SplineSet
481 0 m 1
 269 0 l 1
 5 731.0078125 l 1
 208 731.0078125 l 1
 375 216.272460938 l 1
 542 731.0078125 l 5
 745 731.0078125 l 5
 481 0 l 1
EndSplineSet
EndChar

StartChar: L
Encoding: 76 76 5
Width: 619
Flags: W
HStem: 0 162<258 584> 711.008 20G<55 258>
VStem: 55 203<162 731.008>
LayerCount: 2
Fore
SplineSet
258 162 m 1
 584 162 l 5
 584 0 l 5
 55 0 l 1
 55 731.0078125 l 1
 258 731.0078125 l 1
 258 162 l 1
EndSplineSet
Validated: 1
EndChar

StartChar: U
Encoding: 85 85 6
Width: 782
Flags: W
HStem: -10 172.957<306.68 475.32> 711.008 20G<55 248 534 727>
VStem: 55 193<224.875 731.008> 534 193<224.875 731.008>
LayerCount: 2
Fore
SplineSet
391 -10 m 0
 155.467773438 -10 55 117.794921875 55 324 c 2
 55 731.0078125 l 1
 248 731.0078125 l 1
 248 334 l 2
 248 240.442382812 270.4609375 162.95703125 391 162.95703125 c 0
 511.5390625 162.95703125 534 240.442382812 534 334 c 2
 534 731.0078125 l 1
 727 731.0078125 l 1
 727 324 l 2
 727 117.794921875 626.532226562 -10 391 -10 c 0
EndSplineSet
Validated: 1
EndChar

StartChar: W
Encoding: 87 87 7
Width: 1084
Flags: W
HStem: 0 21G<203.419 426.445 660.555 883.581> 711.008 20G<5 212.157 437.065 649.935 874.843 1082>
LayerCount: 2
Fore
SplineSet
878 0 m 5
 666 0 l 5
 543.5 449.95703125 l 5
 421 0 l 5
 209 0 l 5
 5 731.0078125 l 1
 208 731.0078125 l 1
 315 216.272460938 l 5
 442 731.0078125 l 5
 645 731.0078125 l 5
 772 216.272460938 l 5
 879 731.0078125 l 5
 1082 731.0078125 l 5
 878 0 l 5
EndSplineSet
EndChar

StartChar: A
Encoding: 65 65 8
Width: 790
Flags: W
HStem: 0 21G<5 214.994 575.006 785> 136 156<210 586> 711.008 20G<281.23 508.77>
LayerCount: 2
Fore
SplineSet
210 292 m 1
 586 292 l 5
 586 136 l 5
 210 136 l 1
 210 292 l 1
289 731.0078125 m 1
 501 731.0078125 l 1
 785 0 l 1
 582 0 l 1
 395 534.735351562 l 1
 208 0 l 1
 5 0 l 1
 289 731.0078125 l 1
EndSplineSet
EndChar

StartChar: M
Encoding: 77 77 9
Width: 925
Flags: W
HStem: 0 21G<55 258> 712.019 18.9893G<55 270.358 654.619 870>
VStem: 55 203<0 397.735> 667 203<1.01074 398.746>
LayerCount: 2
Fore
SplineSet
667.021484375 732.018554688 m 1
 870 732.018554688 l 1
 870 1.0107421875 l 1
 667 1.0107421875 l 1
 667 398.74609375 l 1
 506 129 l 1
 418 129 l 1
 258 397.735351562 l 1
 258 0 l 1
 55 0 l 1
 55 731.0078125 l 1
 257.978515625 731.0078125 l 1
 462 401.392578125 l 5
 667.021484375 732.018554688 l 1
EndSplineSet
EndChar

StartChar: P
Encoding: 80 80 10
Width: 703
Flags: W
HStem: 0 21G<55 258> 210 151.957<260.336 440.836> 580.043 158.957<258.645 435.88>
VStem: 55 203<0 235 391 574.271> 482.38 190.62<401.129 538.195>
LayerCount: 2
Fore
SplineSet
186 391 m 1
 186 391 228.519114425 361.95703125 352 361.95703125 c 0
 445.987593877 361.95703125 482.379882812 402.396726996 482.379882812 469.16796875 c 0
 482.379882812 538.196145299 441.671331804 580.04296875 345 580.04296875 c 0
 291.454908288 580.04296875 258 574.270507812 258 574.270507812 c 1
 258 0 l 1
 55 0 l 1
 55 721.0078125 l 1
 55 721.0078125 156.536007612 739 327 739 c 0
 577.050933122 739 673 630.288120203 673 464 c 0
 673 310.37442294 580.748773928 210 377 210 c 0
 250.097560976 210 162 235 162 235 c 1
 186 391 l 1
EndSplineSet
Validated: 5
EndChar

StartChar: H
Encoding: 72 72 11
Width: 803
Flags: W
HStem: 0 21G<55 258 545 748> 280 156<210 586> 711.008 20G<55 258 545 748>
VStem: 55 203<0 280 436 731.008> 210 48<280 436> 545 203<0 280 436 731.008> 545 41<280 436>
LayerCount: 2
Fore
SplineSet
210 436 m 5xea
 586 436 l 5
 586 280 l 5
 210 280 l 5
 210 436 l 5xea
545 0 m 1xe4
 545 731.0078125 l 1
 748 731.0078125 l 1
 748 0 l 1
 545 0 l 1xe4
55 0 m 1xf0
 55 731.0078125 l 1
 258 731.0078125 l 1
 258 0 l 1
 55 0 l 1xf0
EndSplineSet
Validated: 5
EndChar

StartChar: F
Encoding: 70 70 12
Width: 619
Flags: W
HStem: 0 21G<55 258> 262 156<176 542> 569.008 162<258 584>
VStem: 55 203<0 262 418 569.008> 176 82<262 418>
LayerCount: 2
Fore
SplineSet
176 418 m 5xe8
 542 418 l 5
 542 262 l 5
 176 262 l 5
 176 418 l 5xe8
258 569.0078125 m 1xf0
 258 0 l 1
 55 0 l 1
 55 731.0078125 l 1
 584 731.0078125 l 1
 584 569.0078125 l 1
 258 569.0078125 l 1xf0
EndSplineSet
Validated: 5
EndChar

StartChar: E
Encoding: 69 69 13
Width: 619
Flags: W
HStem: 0 162<258 584> 287 156<176 542> 569.008 162<258 584>
VStem: 176 82<287 443>
LayerCount: 2
Fore
SplineSet
176 443 m 1
 542 443 l 1
 542 287 l 1
 176 287 l 1
 176 443 l 1
258 569.0078125 m 5
 258 162 l 5
 584 162 l 5
 584 0 l 5
 55 0 l 5
 55 731.0078125 l 5
 584 731.0078125 l 5
 584 569.0078125 l 5
 258 569.0078125 l 5
EndSplineSet
Validated: 5
EndChar

StartChar: N
Encoding: 78 78 14
Width: 803
Flags: W
HStem: 0 21G<55 244 524.897 748> 711.008 20G<55 278.103 559 748>
VStem: 55 189<0 418.359> 559 189<312.648 731.008>
LayerCount: 2
Fore
SplineSet
55 0 m 5
 55 731.0078125 l 5
 264 731.0078125 l 5
 559 312.6484375 l 5
 559 731.0078125 l 5
 748 731.0078125 l 5
 748 0 l 5
 539 0 l 5
 244 418.359375 l 5
 244 0 l 5
 55 0 l 5
EndSplineSet
Validated: 1
EndChar

StartChar: C
Encoding: 67 67 15
Width: 709
Flags: W
HStem: -9.99805 173.957<338.849 559.372> 565.043 173.957<336.577 553.481>
VStem: 30 205.62<267.697 465.628>
LayerCount: 2
Fore
SplineSet
235.620117188 364.833984375 m 4
 235.620117188 254.08203125 297.259765625 163.958984375 439 163.958984375 c 4
 562.108085314 163.958984375 636.7578125 225.716796875 636.7578125 225.716796875 c 5
 682.634765625 62.3544921875 l 5
 682.634765625 62.3544921875 595.984548941 -9.998046875 421 -9.998046875 c 4
 158.598632812 -9.998046875 30 157.243164062 30 364 c 4
 30 570.756835938 158.598632812 739 421 739 c 4
 595.984548941 739 682.634765625 665.647460938 682.634765625 665.647460938 c 5
 626.7578125 501.28515625 l 5
 626.7578125 501.28515625 555.882890781 565.04296875 439 565.04296875 c 4
 297.259765625 565.04296875 235.620117188 475.921875 235.620117188 364.833984375 c 4
EndSplineSet
Validated: 1
EndChar

StartChar: G
Encoding: 71 71 16
Width: 778
Flags: W
HStem: -10 171.957<320.391 532.415> 565.043 173.957<336.577 577.881>
VStem: 30 205.62<250.446 465.628> 536 187<172.957 389>
LayerCount: 2
Fore
SplineSet
30 364 m 0
 30 570.756835938 158.598632812 739 421 739 c 0
 607.186889893 739 689.634765625 687.647460938 689.634765625 687.647460938 c 1
 647.7578125 512.28515625 l 1
 647.7578125 512.28515625 570.853701534 565.04296875 439 565.04296875 c 0
 297.259765625 565.04296875 235.620117188 475.921875 235.620117188 364.833984375 c 0
 235.620117188 249.779551813 277.669921875 161.95703125 425 161.95703125 c 4
 496.512854751 161.95703125 536 172.95703125 536 172.95703125 c 5
 536 389 l 1
 723 389 l 1
 723 38 l 5
 723 38 625.364778729 -10 414 -10 c 4
 146.910891089 -10 30 152.129947201 30 364 c 0
EndSplineSet
Substitution2: "'ss01' Style Set 1 in Latin lookup 0-1" G.ss01
EndChar

StartChar: J
Encoding: 74 74 17
Width: 505
Flags: W
HStem: -10 160.942<43.8442 216.144> 711.008 20G<247.479 450.479>
VStem: 247.479 203<182.119 731.008>
LayerCount: 2
Fore
SplineSet
145 150.942382812 m 0
 215.009765625 150.942382812 247.479492188 177.721679688 247.479492188 268 c 2
 247.479492188 731.0078125 l 1
 450.479492188 731.0078125 l 1
 450.479492188 238 l 2
 450.479492188 55 357.526367188 -10 206 -10 c 0
 72.2880859375 -10 25 19 25 19 c 1
 46 168 l 1
 46 168 89.779296875 150.942382812 145 150.942382812 c 0
EndSplineSet
Validated: 1
EndChar

StartChar: T
Encoding: 84 84 18
Width: 679
Flags: W
HStem: 0 21G<238 441> 569.008 162<35 238 441 644> 569.008 102<238 441>
VStem: 238 203<0 671.008>
LayerCount: 2
Fore
SplineSet
238 0 m 1xb0
 238 671.0078125 l 1
 441 671.0078125 l 1
 441 0 l 1
 238 0 l 1xb0
35 731.0078125 m 5xd0
 644 731.0078125 l 5
 644 569.0078125 l 5
 35 569.0078125 l 5
 35 731.0078125 l 5xd0
EndSplineSet
Validated: 5
EndChar

StartChar: R
Encoding: 82 82 19
Width: 714
Flags: W
HStem: 0 21G<55 258 471.338 709> 248 142.96<220.991 435.421> 248 86<290 478> 580.043 158.957<258.643 434.728>
VStem: 55 203<0 248 390.96 574.271> 219 39<248 390.96> 474.38 198.62<424.555 544.533>
LayerCount: 2
Fore
SplineSet
290 331 m 1xb2
 478 334 l 1
 709 0 l 1
 483 0 l 1
 290 331 l 1xb2
395 248 m 2xda
 219 248 l 1xb6
 220.991210938 390.959960938 l 1
 339.991210938 390.959960938 l 6
 435.420898438 390.959960937 474.379882812 419.510742188 474.379882812 483.16796875 c 0
 474.379882812 549.706054688 431.108398438 580.04296875 335 580.04296875 c 0
 285.268976659 580.04296875 258 574.270507812 258 574.270507812 c 1
 258 0 l 1
 55 0 l 1
 55 721.0078125 l 1
 55 721.0078125 156.536007612 739 327 739 c 0
 577.050933122 739 673 637.114692718 673 482 c 0
 673 324 559 248 395 248 c 2xda
EndSplineSet
EndChar

StartChar: K
Encoding: 75 75 20
Width: 729
Flags: W
HStem: 0 21G<55 258 480.823 724> 711.008 20G<55 258 470.811 714>
VStem: 55 203<0 731.008>
LayerCount: 2
Fore
SplineSet
497 0 m 5
 205 361 l 1
 486 731.0078125 l 5
 714 731.0078125 l 5
 416 366 l 1
 724 0 l 5
 497 0 l 5
55 0 m 1
 55 731.0078125 l 1
 258 731.0078125 l 1
 258 0 l 1
 55 0 l 1
EndSplineSet
EndChar

StartChar: B
Encoding: 66 66 21
Width: 710
Flags: W
HStem: -9.99805 154.957<260.919 461.618> 296.571 133.76<220.991 444.144> 584.043 154.957<258.644 438.319>
VStem: 220.991 37.0088<296.571 430.331> 465.38 194.62<453.036 556.807> 484.38 195.62<169.191 273.06>
LayerCount: 2
Fore
SplineSet
220.991210938 430.331054688 m 1xf4
 346.991210938 430.331054688 l 6
 436.695999938 430.331054687 465.379882812 454.147224054 465.379882812 505.16796875 c 0xf8
 465.379882812 557.352496674 432.948409224 584.04296875 342 584.04296875 c 0
 287.747974537 584.04296875 258 578.270507812 258 578.270507812 c 1
 258 150.731445312 l 1
 258 150.731445312 297.960894574 144.958984375 352 144.958984375 c 0
 452.77937409 144.958984375 484.379882812 165.357272794 484.379882812 221.833984375 c 0
 484.379882812 276.966581156 447.450183249 296.571289063 356.991210938 296.571289062 c 6
 220.991210938 296.571289062 l 1
 220.991210938 430.331054688 l 1xf4
561 370 m 1
 561 370 680 342.395061728 680 198 c 0xf4
 680 81.9228515625 597.803946254 -9.998046875 347 -9.998046875 c 0
 176.536132812 -9.998046875 55 7.994140625 55 7.994140625 c 1
 55 721.0078125 l 1
 55 721.0078125 156.536007612 739 327 739 c 0
 564.320358248 739 660 655.691837792 660 524.93359375 c 0
 660 404.657831501 561 370 561 370 c 1
EndSplineSet
EndChar

StartChar: X
Encoding: 88 88 22
Width: 754
Flags: W
HStem: 0 21G<5 252.309 501.691 749> 711.008 20G<15 253.806 500.194 739>
LayerCount: 2
Fore
SplineSet
241 0 m 1
 5 0 l 1
 236 364 l 1
 15 731.0078125 l 1
 243 731.0078125 l 1
 444 359 l 1
 241 0 l 1
513 0 m 1
 310 359 l 1
 511 731.0078125 l 1
 739 731.0078125 l 5
 518 364 l 1
 749 0 l 1
 513 0 l 1
EndSplineSet
EndChar

StartChar: S
Encoding: 83 83 23
Width: 635
Flags: W
HStem: -10 159.957<180.258 377.661> 525 21G<527 534.02> 579.043 159.957<265.589 462.693>
VStem: 41 204.62<480.88 559.819> 396.38 199.62<169.181 252.822>
LayerCount: 2
Back
SplineSet
245.620117188 516.833984375 m 4
 245.620117188 553.015625 273.740234375 579.04296875 343 579.04296875 c 4
 460.483398438 579.04296875 537 509 537 509 c 5
 600 670 l 5
 600 670 520.188476562 739 332 739 c 4
 153.756835938 739 41 658.81640625 41 514 c 4
 41 228.2421875 396.379882812 334.157226562 396.379882812 212.166015625 c 4
 396.379882812 175.984375 368.259765625 149.95703125 299 149.95703125 c 4
 167.516601562 149.95703125 88 222 88 222 c 5
 25 64 l 5
 25 64 116.811523438 -10 305 -10 c 4
 483.243164062 -10 596 70.18359375 596 215 c 4
 596 494.02734375 245.620117188 405.217773438 245.620117188 516.833984375 c 4
EndSplineSet
Fore
SplineSet
245.620117188 516.833984375 m 0
 245.620117188 472.398676242 301.151821763 459.728848433 367.999997601 442.969320773 c 0
 469.066491618 417.630907561 596 382.94432191 596 215 c 0
 596 70.18359375 483.243164062 -10 305 -10 c 0
 116.811523438 -10 25 64 25 64 c 1
 88 222 l 1
 88 222 167.516601562 149.95703125 299 149.95703125 c 0
 368.259765625 149.95703125 396.379882812 175.984375 396.379882812 212.166015625 c 0
 396.379882812 260.7922344 339.915217981 273.207483895 272.000002434 288.651188921 c 4
 169.532663171 311.951937503 41 342.146474543 41 514 c 0
 41 658.81640625 153.756835938 739 332 739 c 0
 506.144560401 739 580 676 580 676 c 1
 527 525 l 1
 527 525 454.427553158 579.04296875 343 579.04296875 c 0
 273.740234375 579.04296875 245.620117188 553.015625 245.620117188 516.833984375 c 0
EndSplineSet
EndChar

StartChar: Y
Encoding: 89 89 24
Width: 714
Flags: W
HStem: 0 21G<255.5 458.5> 265 127.008<266 448> 711.008 20G<5 229.054 484.946 709>
VStem: 255.5 203<0 392.008>
LayerCount: 2
Fore
SplineSet
266 265 m 1
 5 731.0078125 l 1
 219 731.0078125 l 1
 357 456.490234375 l 5
 495 731.0078125 l 1
 709 731.0078125 l 1
 448 265 l 1
 266 265 l 1
255.5 0 m 1
 255.5 392.0078125 l 1
 458.5 392.0078125 l 1
 458.5 0 l 1
 255.5 0 l 1
EndSplineSet
Validated: 5
EndChar

StartChar: Z
Encoding: 90 90 25
Width: 649
Flags: W
HStem: 0 162<288 614> 569.008 162<35 361>
LayerCount: 2
Fore
SplineSet
35 731.0078125 m 1
 614 731.0078125 l 5
 614 609.0078125 l 5
 288 162 l 1
 614 162 l 5
 614 0 l 5
 35 0 l 1
 35 122 l 1
 361 569.0078125 l 5
 35 569.0078125 l 1
 35 731.0078125 l 1
EndSplineSet
Validated: 1
EndChar

StartChar: o
Encoding: 111 111 27
Width: 625
Flags: W
HStem: -9.99805 155.778<245.639 379.796> 375.22 155.714<245.639 379.796>
VStem: 30 173.54<187.008 335.801> 421.46 173.54<187.008 335.801>
LayerCount: 2
Fore
SplineSet
203.540039062 262.900390625 m 0
 203.540039062 198.580078125 238.266601562 145.780273438 312.98046875 145.780273438 c 0
 386.704101562 145.780273438 421.459960938 198.580078125 421.459960938 262.900390625 c 0
 421.459960938 324.33984375 386.704101562 375.219726562 312.98046875 375.219726562 c 0
 238.266601562 375.219726562 203.540039062 324.33984375 203.540039062 262.900390625 c 0
30 262 m 0
 30 410 128.47985348 530.93359375 313 530.93359375 c 0
 496.507352941 530.93359375 595 410 595 262 c 0
 595 112 496.507352941 -9.998046875 313 -9.998046875 c 0
 128.47985348 -9.998046875 30 112 30 262 c 0
EndSplineSet
Validated: 1
EndChar

StartChar: k
Encoding: 107 107 28
Width: 609
Flags: W
HStem: 0 21G<55 238 382.83 604>
VStem: 55 183<0 761.002>
LayerCount: 2
Fore
SplineSet
238 0 m 5
 55 0 l 5
 55 761.001953125 l 5
 238 761.001953125 l 5
 238 0 l 5
397 0 m 5
 205 271 l 5
 386 521.010742188 l 5
 594 521.010742188 l 5
 394 276 l 5
 604 0 l 5
 397 0 l 5
EndSplineSet
Validated: 5
EndChar

StartChar: zero
Encoding: 48 48 29
Width: 712
Flags: W
HStem: -10 171.134<286.549 425.451> 567.866 171.134<286.549 425.451>
VStem: 30 192.953<235.453 493.096> 489.047 192.953<235.453 493.096>
LayerCount: 2
Fore
SplineSet
222.953125 364.161132812 m 0
 222.953125 252.856445312 255.024029169 161.133789062 356 161.133789062 c 4
 456.975970831 161.133789062 489.046875 252.856445312 489.046875 364.161132812 c 0
 489.046875 475.83984375 456.975970831 567.866210938 356 567.866210938 c 4
 255.024029169 567.866210938 222.953125 475.83984375 222.953125 364.161132812 c 0
30 364 m 0
 30 570.756835938 131.662760417 739 356 739 c 0
 580.337239583 739 682 570.756835938 682 364 c 0
 682 157.794921875 580.337239583 -10 356 -10 c 0
 131.662760417 -10 30 157.794921875 30 364 c 0
EndSplineSet
Validated: 1
Substitution2: "'frac' Diagonal Fractions in Latin lookup 26 subtable" zero.numr
Substitution2: "'sups' Superscript lookup 0 subtable" zero.superior
Substitution2: "'sinf' Scientific Inferiors lookup 0 subtable" zero.inferior
Substitution2: "'dnom' Denominators lookup 0 subtable" zero.dnom
Substitution2: "'numr' Numerators lookup 0 subtable" zero.numr
EndChar

StartChar: grave
Encoding: 96 96 30
Width: 273
Flags: W
HStem: 553 178.008<145 178>
VStem: 5 263
LayerCount: 2
Fore
SplineSet
145 553 m 5
 5 731.0078125 l 1
 178 731.0078125 l 1
 268 553 l 1
 145 553 l 5
EndSplineSet
Validated: 1
EndChar

StartChar: slash
Encoding: 47 47 31
Width: 466
Flags: W
HStem: 741.002 20G<274.102 461>
LayerCount: 2
Fore
SplineSet
5 -171.469726562 m 5
 280 761.001953125 l 5
 461 761.001953125 l 5
 186 -171.469726562 l 5
 5 -171.469726562 l 5
EndSplineSet
Validated: 1
Substitution2: "'frac' Diagonal Fractions in Latin lookup 25 subtable" fraction
EndChar

StartChar: g
Encoding: 103 103 32
Width: 631
Flags: W
HStem: -189.994 141<148.052 369.854> 35 137<238.407 390.124> 382.934 148<240.312 390.882>
VStem: 30 176<203.623 348.727> 393 183<-26.601 29.0059 209 372.934>
LayerCount: 2
Fore
SplineSet
449 209 m 1
 472 78 l 1
 472 78 392.882681564 35 278 35 c 0
 141 35 30 111.187772926 30 274 c 0
 30 448.431167323 141 530.93359375 318 530.93359375 c 0
 479.382716049 530.93359375 576 487.93359375 576 487.93359375 c 1
 576 28.005859375 l 2
 576 -129.563476562 480.592592593 -189.994140625 296 -189.994140625 c 4
 136.563876652 -189.994140625 64 -143.994140625 64 -143.994140625 c 5
 95 -3.994140625 l 5
 95 -3.994140625 164.837837838 -48.994140625 285 -48.994140625 c 4
 353.326530612 -48.994140625 393 -29.6982421875 393 29.005859375 c 2
 393 372.93359375 l 1
 393 372.93359375 366.352112676 382.93359375 307 382.93359375 c 0
 246 382.93359375 206 345.146344382 206 277 c 0
 206 206.65 239 172 311 172 c 0
 398.512195122 172 449 209 449 209 c 1
EndSplineSet
Validated: 5
Substitution2: "'ss03' Style Set 3 in Latin lookup 11-1" g.ss03
EndChar

StartChar: r
Encoding: 114 114 33
Width: 458
Flags: W
HStem: 0 21G<55 238> 381 149.934<289.753 429.329> 501.011 20G<55 213.357>
VStem: 55 183<0 342 409 435.136>
LayerCount: 2
Fore
SplineSet
238 0 m 1xb0
 55 0 l 1
 55 521.010742188 l 1
 208 521.010742188 l 1
 238 409 l 1
 238 0 l 1xb0
427 366 m 5
 427 366 403.969696969 381 351 381 c 0
 247.966942149 381 214 278 214 278 c 1
 172 342 l 1
 172 342 224.613684172 530.93359375 365 530.93359375 c 0xd0
 422.461538462 530.93359375 448 510 448 510 c 1
 427 366 l 5
EndSplineSet
Substitution2: "'ss02' Style Set 2 in Latin lookup 1-1" r.ss02
EndChar

StartChar: a
Encoding: 97 97 34
Width: 588
Flags: W
HStem: -9.99805 130.229<216.897 357.144> 223.126 105.81<216.676 356.837> 396.93 134<120.074 333.975>
VStem: 30 175<134.873 210.192> 358 175<132.727 187.691 312.93 373.743>
LayerCount: 2
Fore
SplineSet
407 187.69140625 m 5
 407 187.69140625 362.365853659 223.125976562 285 223.125976562 c 4
 231.666666667 223.125976562 205 205.974677734 205 171.15234375 c 4
 205 138.3952838 233.323951496 120.231445312 289 120.231445312 c 4
 336.61971831 120.231445312 358 132.7265625 358 132.7265625 c 5
 358 316.9296875 l 6
 358 376 318.326171875 396.9296875 250 396.9296875 c 4
 152.60546875 396.9296875 96 364.9296875 96 364.9296875 c 5
 69 497.9296875 l 5
 69 497.9296875 132.18061674 530.9296875 271 530.9296875 c 4
 449 530.9296875 533 470.499023438 533 312.9296875 c 6
 533 33.001953125 l 5
 533 33.001953125 462.510288066 -9.998046875 278 -9.998046875 c 4
 105.663654618 -9.998046875 30 58.4215732061 30 171.935546875 c 4
 30 278.887511941 115.931451613 328.935546875 241 328.935546875 c 4
 368.936507937 328.935546875 427 281.935546875 427 281.935546875 c 5
 407 187.69140625 l 5
EndSplineSet
Validated: 5
Substitution2: "'ss03' Style Set 3 in Latin lookup 11-1" a.ss03
EndChar

StartChar: v
Encoding: 118 118 35
Width: 590
Flags: W
HStem: 0 21G<181.937 408.063> 501.011 20G<5 199.946 390.054 585>
LayerCount: 2
Fore
SplineSet
401 0 m 5
 189 0 l 5
 5 521.010742188 l 5
 194 521.010742188 l 5
 295 181.272460938 l 5
 396 521.010742188 l 5
 585 521.010742188 l 5
 401 0 l 5
EndSplineSet
Validated: 1
EndChar

StartChar: one
Encoding: 49 49 36
Width: 473
Flags: W
HStem: 0 21G<215 418> 711.008 20G<199.065 418>
VStem: 215 203<0 544>
LayerCount: 2
Fore
SplineSet
215 0 m 5
 215 544 l 5
 65 461 l 1
 5 603 l 1
 235 731.0078125 l 5
 418 731.0078125 l 5
 418 0 l 5
 215 0 l 5
EndSplineSet
Validated: 1
Substitution2: "'frac' Diagonal Fractions in Latin lookup 26 subtable" one.numr
Substitution2: "'sups' Superscript lookup 0 subtable" one.superior
Substitution2: "'sinf' Scientific Inferiors lookup 0 subtable" one.inferior
Substitution2: "'dnom' Denominators lookup 0 subtable" one.dnom
Substitution2: "'numr' Numerators lookup 0 subtable" one.numr
EndChar

StartChar: two
Encoding: 50 50 37
Width: 629
Flags: W
HStem: 0 162<300 594> 579.043 159.957<175.757 346.615>
VStem: 381.38 206.62<413.705 546.684>
LayerCount: 2
Fore
SplineSet
300 162 m 5
 594 162 l 1
 594 0 l 1
 39 0 l 1
 39 170 l 1
 242 294 381.379882812 374 381.379882812 486 c 0
 381.379882812 534.309570312 354.981445312 579.04296875 271 579.04296875 c 0
 172.521367188 579.04296875 100 509 100 509 c 1
 37 670 l 1
 37 670 120.02734375 739 294 739 c 0
 480.489257812 739 588 651.69921875 588 498.010742188 c 0
 588 322.416992188 472.026845638 248 300 162 c 5
EndSplineSet
Validated: 1
Substitution2: "'frac' Diagonal Fractions in Latin lookup 26 subtable" two.numr
Substitution2: "'sups' Superscript lookup 0 subtable" two.superior
Substitution2: "'sinf' Scientific Inferiors lookup 0 subtable" two.inferior
Substitution2: "'dnom' Denominators lookup 0 subtable" two.dnom
Substitution2: "'numr' Numerators lookup 0 subtable" two.numr
EndChar

StartChar: three
Encoding: 51 51 38
Width: 647
Flags: W
HStem: -10 159.957<183.18 386.814> 292 145<194 383.684> 579.043 159.957<189.617 381.782>
VStem: 406.38 205.62<170.636 273.23 459.152 552.632>
CounterMasks: 1 e0
LayerCount: 2
Back
SplineSet
194 437 m 5
 328 569.0078125 l 5
 56 569.0078125 l 5
 56 731.0078125 l 5
 595 731.0078125 l 5
 595 609.0078125 l 5
 420 427 l 5
 420 427 612 426 612 222 c 4
 612 64.4675164474 501.929510259 -10 311 -10 c 4
 122.811523438 -10 33 59 33 59 c 5
 96 216 l 5
 96 216 181.085449219 149.95703125 306 149.95703125 c 4
 391.726756179 149.95703125 406.379882812 184.920898438 406.379882812 225 c 4
 406.379882812 285.265625 358 292 280 292 c 6
 194 292 l 5
 194 437 l 5
EndSplineSet
Fore
SplineSet
194 292 m 5
 194 437 l 5
 280 437 l 6
 354.206837052 437 400.379882812 443.734375 400.379882812 504 c 4
 400.379882812 544.079101562 386.154635064 579.04296875 302 579.04296875 c 4
 195.073274895 579.04296875 104 517 104 517 c 5
 44 668 l 5
 44 668 128.965577928 739 307 739 c 4
 496.660875639 739 606 670.310135691 606 525 c 4
 606 400.216216216 496 363 496 363 c 5
 496 363 612 326.472972973 612 204 c 4
 612 58.6898643092 501.929510259 -10 311 -10 c 4
 122.811523438 -10 33 59 33 59 c 5
 96 216 l 5
 96 216 181.085449219 149.95703125 306 149.95703125 c 4
 391.726756179 149.95703125 406.379882812 184.920898438 406.379882812 225 c 4
 406.379882812 285.265625 358 292 280 292 c 6
 194 292 l 5
EndSplineSet
Validated: 1
Substitution2: "'frac' Diagonal Fractions in Latin lookup 26 subtable" three.numr
Substitution2: "'sups' Superscript lookup 0 subtable" three.superior
Substitution2: "'sinf' Scientific Inferiors lookup 0 subtable" three.inferior
Substitution2: "'dnom' Denominators lookup 0 subtable" three.dnom
Substitution2: "'numr' Numerators lookup 0 subtable" three.numr
EndChar

StartChar: equal
Encoding: 61 61 39
Width: 500
Flags: W
HStem: 179 141<30 470> 396 141<30 470>
LayerCount: 2
Fore
SplineSet
470 179 m 5
 30 179 l 5
 30 320 l 5
 470 320 l 5
 470 179 l 5
470 396 m 5
 30 396 l 5
 30 537 l 5
 470 537 l 5
 470 396 l 5
EndSplineSet
Validated: 1
EndChar

StartChar: four
Encoding: 52 52 40
Width: 715
Flags: W
HStem: 0 21G<390 583> 148 150<216.175 690> 711.008 20G<363.562 583>
VStem: 390 193<0 518>
LayerCount: 2
Fore
SplineSet
390 0 m 1
 390 518 l 5
 216.174804688 298 l 1
 690 298 l 1
 690 148 l 1
 46 148 l 1
 20 293 l 1
 380 731.0078125 l 1
 583 731.0078125 l 1
 583 0 l 1
 390 0 l 1
EndSplineSet
Substitution2: "'frac' Diagonal Fractions in Latin lookup 26 subtable" four.numr
Substitution2: "'sups' Superscript lookup 0 subtable" four.superior
Substitution2: "'sinf' Scientific Inferiors lookup 0 subtable" four.inferior
Substitution2: "'dnom' Denominators lookup 0 subtable" four.dnom
Substitution2: "'numr' Numerators lookup 0 subtable" four.numr
EndChar

StartChar: nine
Encoding: 57 57 41
Width: 668
Flags: W
HStem: -10 164.992<154.316 274.391> 235.266 143.601<254.822 385.515> 578.249 160.743<253.847 399.251>
VStem: 35 183.889<415.531 543.084> 434.744 198.572<305.138 541.493>
LayerCount: 2
Fore
SplineSet
154.31640625 -10 m 5
 136.31640625 154.9921875 l 5
 406.466531572 165.861358302 419.858398438 280.059570312 419.858398438 280.059570312 c 1
 419.858398438 280.059570312 381.842200532 235.265625 278.715820312 235.265625 c 0
 117.55078125 235.265625 35 334.152999133 35 483.743164062 c 0
 35 628.193359375 125.588867188 738.9921875 324.005859375 738.9921875 c 0
 509.237304688 738.9921875 633.31640625 636.598632812 633.31640625 422.643554688 c 0
 633.31640625 196.734375 500.847468374 -3 154.31640625 -10 c 5
434.744140625 478.734375 m 0
 434.744140625 533.290922421 402.564519106 578.249023438 326.180664062 578.249023438 c 0
 250.692291272 578.249023438 218.888671875 533.290922421 218.888671875 478.734375 c 0
 218.888671875 423.983392557 250.692291272 378.866210938 326.180664062 378.866210938 c 0
 402.564519106 378.866210938 434.744140625 423.983392557 434.744140625 478.734375 c 0
EndSplineSet
Substitution2: "'frac' Diagonal Fractions in Latin lookup 26 subtable" nine.numr
Substitution2: "'sups' Superscript lookup 0 subtable" nine.superior
Substitution2: "'sinf' Scientific Inferiors lookup 0 subtable" nine.inferior
Substitution2: "'dnom' Denominators lookup 0 subtable" nine.dnom
Substitution2: "'numr' Numerators lookup 0 subtable" nine.numr
EndChar

StartChar: five
Encoding: 53 53 42
Width: 652
Flags: W
HStem: -10 159.957<193.96 381.606> 329 141<260.384 381.985> 569.008 162<276.111 579>
VStem: 411.38 205.62<180.077 297.161>
LayerCount: 2
Fore
SplineSet
260 450 m 1
 260 450 291 470 375 470 c 0
 525.175625094 470 617 403.947962852 617 236 c 0
 617 63.4678498642 501.822362065 -10 311 -10 c 0
 122.811523438 -10 33 69 33 69 c 1
 96 226 l 1
 96 226 181.085449219 149.95703125 306 149.95703125 c 0
 391.279060476 149.95703125 411.379882812 192.375585856 411.379882812 241 c 0
 411.379882812 300.754613492 369.422552378 329 302 329 c 4
 226.640304218 329 189 292 189 292 c 1
 69 372 l 1
 119 731.0078125 l 1
 579 731.0078125 l 1
 579 569.0078125 l 1
 276.111328125 569.0078125 l 1
 260 450 l 1
EndSplineSet
Substitution2: "'frac' Diagonal Fractions in Latin lookup 26 subtable" five.numr
Substitution2: "'sups' Superscript lookup 0 subtable" uni2075
Substitution2: "'sinf' Scientific Inferiors lookup 0 subtable" five.inferior
Substitution2: "'dnom' Denominators lookup 0 subtable" five.dnom
Substitution2: "'numr' Numerators lookup 0 subtable" five.numr
EndChar

StartChar: six
Encoding: 54 54 43
Width: 668
Flags: W
HStem: -10 156.743<268.604 408.861> 346.126 140.601<286.175 411.949> 571 167.992<408.912 534>
VStem: 35 198.663<180.683 422.752> 446.337 186.979<180.797 310.528>
LayerCount: 2
Fore
SplineSet
534 738.9921875 m 1
 552 571 l 1
 279.944633433 560.652377598 266.458007812 451.932617188 266.458007812 451.932617188 c 1
 266.458007812 451.932617188 299.626378213 486.7265625 389.600585938 486.7265625 c 0
 550.765625 486.7265625 633.31640625 390.625466341 633.31640625 245.249023438 c 0
 633.31640625 100.798832407 542.727539062 -10 344.310546875 -10 c 0
 159.079101562 -10 35 92.3935546875 35 306.348632812 c 0
 35 532.257973363 173 731.992409446 534 738.9921875 c 1
233.663085938 246.2578125 m 4
 233.663085938 191.701265079 264.900065138 146.743164062 339.044921875 146.743164062 c 4
 414.533731867 146.743164062 446.336914062 191.701265079 446.336914062 246.2578125 c 4
 446.336914062 301.008794943 414.533731867 346.125976562 339.044921875 346.125976562 c 4
 264.900065138 346.125976562 233.663085938 301.008794943 233.663085938 246.2578125 c 4
EndSplineSet
Validated: 1
Substitution2: "'frac' Diagonal Fractions in Latin lookup 26 subtable" six.numr
Substitution2: "'sups' Superscript lookup 0 subtable" six.superior
Substitution2: "'sinf' Scientific Inferiors lookup 0 subtable" six.inferior
Substitution2: "'dnom' Denominators lookup 0 subtable" six.dnom
Substitution2: "'numr' Numerators lookup 0 subtable" six.numr
EndChar

StartChar: seven
Encoding: 55 55 44
Width: 619
Flags: W
HStem: 0 21G<81 308.359> 569.008 162<35 357>
LayerCount: 2
Fore
SplineSet
35 731.0078125 m 5
 584 731.0078125 l 5
 584 609.0078125 l 5
 299 0 l 5
 81 0 l 5
 357 569.0078125 l 5
 35 569.0078125 l 5
 35 731.0078125 l 5
EndSplineSet
Validated: 1
Substitution2: "'frac' Diagonal Fractions in Latin lookup 26 subtable" seven.numr
Substitution2: "'sups' Superscript lookup 0 subtable" seven.superior
Substitution2: "'sinf' Scientific Inferiors lookup 0 subtable" seven.inferior
Substitution2: "'dnom' Denominators lookup 0 subtable" seven.dnom
Substitution2: "'numr' Numerators lookup 0 subtable" seven.numr
EndChar

StartChar: eight
Encoding: 56 56 45
Width: 667
Flags: W
HStem: -9.99805 150.745<258.503 408.497> 308.416 136.192<282.11 388.166> 352.573 60.2568<157.622 512.632> 585.451 153.434<270.872 402.278>
VStem: 35 191.741<170.894 278.086> 63.2598 186.794<465.609 565.586> 421.946 186.794<466.212 565.586> 440.259 191.741<170.894 278.086>
LayerCount: 2
Fore
SplineSet
333.75 444.608398438 m 0xd6
 388.16608157 444.608398438 421.946289062 472.168241997 421.946289062 515.935546875 c 0
 421.946289062 559.643191531 389.488317717 585.451171875 333.75 585.451171875 c 0
 280.855814465 585.451171875 250.053710938 559.643191531 250.053710938 515.935546875 c 0
 250.053710938 472.168241997 282.110382636 444.608398438 333.75 444.608398438 c 0xd6
333.5 738.884765625 m 0
 505.056726117 738.884765625 608.740234375 662.444920804 608.740234375 536.655273438 c 0
 608.740234375 417.070312499 512.632117308 352.573242188 333.5 352.573242188 c 0xb6
 157.621779712 352.573242188 63.259765625 417.070312499 63.259765625 536.655273438 c 0
 63.259765625 662.444920804 165.059471821 738.884765625 333.5 738.884765625 c 0
333.5 140.747070312 m 0
 402.484272779 140.747070312 440.258789062 173.553901914 440.258789062 224.9765625 c 0
 440.258789062 273.206351559 402.499080508 308.416015625 333.5 308.416015625 c 0
 264.500919492 308.416015625 226.741210938 273.206351559 226.741210938 224.9765625 c 0xd9
 226.741210938 173.553901914 264.515727221 140.747070312 333.5 140.747070312 c 0
333.5 412.830078125 m 4xb9
 526.058442357 412.830078125 632 343.252417609 632 217.381835938 c 0
 632 73.7231604336 514.573089131 -9.998046875 333.5 -9.998046875 c 0
 152.426910869 -9.998046875 35 73.7231604336 35 217.381835938 c 0
 35 343.252417609 140.941557643 412.830078125 333.5 412.830078125 c 4xb9
EndSplineSet
Substitution2: "'frac' Diagonal Fractions in Latin lookup 26 subtable" eight.numr
Substitution2: "'sups' Superscript lookup 0 subtable" eight.superior
Substitution2: "'sinf' Scientific Inferiors lookup 0 subtable" eight.inferior
Substitution2: "'dnom' Denominators lookup 0 subtable" eight.dnom
Substitution2: "'numr' Numerators lookup 0 subtable" eight.numr
EndChar

StartChar: ampersand
Encoding: 38 38 46
Width: 758
Flags: W
HStem: -10 159.957<263.113 445.562> 292 145<263.143 733> 586.043 152.957<275.528 555.708>
VStem: 33 205.62<171.258 273.23 462.138 552.169> 449 189<160.511 518>
LayerCount: 2
Fore
SplineSet
733 292 m 5
 365 292 l 2
 287 292 238.620117188 285.265625 238.620117188 225 c 0
 238.620117188 184.920898438 254.733011079 149.95703125 349 149.95703125 c 0
 427.421052632 149.95703125 449 160.510742188 449 160.510742188 c 1
 449 518 l 1
 638 518 l 1
 638 30 l 1
 638 30 529.386153116 -10 334 -10 c 0
 143.070489741 -10 33 58.6898643092 33 204 c 0
 33 326.472972973 149 363 149 363 c 1
 149 363 39 400.216216216 39 525 c 0
 39 670.310135691 155.652778164 739 358 739 c 0
 498.813591499 739 581 710 581 710 c 1
 562 566 l 1
 562 566 477.432510342 586.04296875 393 586.04296875 c 0
 266.075119303 586.04296875 244.620117188 550.147265635 244.620117188 509 c 0
 244.620117188 444.236940299 290.793162948 437 365 437 c 2
 733 437 l 5
 733 292 l 5
EndSplineSet
Substitution2: "'ss05' Style Set 5 in Latin lookup 13-1" ampersand.ss05
EndChar

StartChar: i
Encoding: 105 105 47
Width: 292
Flags: W
HStem: 0 21G<55 237> 500.934 20G<55 237> 583.002 198<78.7651 213.235>
VStem: 44 204<616.818 747.186> 55 182<0 520.934>
LayerCount: 2
Fore
SplineSet
44 682.001953125 m 0xf0
 44 742.001953125 84 781.001953125 146 781.001953125 c 0
 208 781.001953125 248 742.001953125 248 682.001953125 c 0
 248 622.001953125 208 583.001953125 146 583.001953125 c 0
 84 583.001953125 44 622.001953125 44 682.001953125 c 0xf0
55 0 m 5xe8
 55 520.93359375 l 5
 237 520.93359375 l 5
 237 0 l 5
 55 0 l 5xe8
EndSplineSet
Validated: 1
EndChar

StartChar: hyphen
Encoding: 45 45 48
Width: 366
Flags: W
HStem: 203.011 154<25 341>
VStem: 25 316<203.011 357.011>
LayerCount: 2
Fore
SplineSet
25 357.010742188 m 5
 341 357.010742188 l 5
 341 203.010742188 l 5
 25 203.010742188 l 5
 25 357.010742188 l 5
EndSplineSet
Validated: 1
EndChar

StartChar: u
Encoding: 117 117 49
Width: 643
Flags: W
HStem: -9.92285 145.934<179.449 352.722> 0 21G<429.643 588> 501.011 20G<55 231 405 588>
VStem: 55 176<159.853 521.011> 405 183<85.8749 112.011 169.011 521.011>
LayerCount: 2
Fore
SplineSet
405 521.010742188 m 5x78
 588 521.010742188 l 5
 588 0 l 5
 435 0 l 5
 405 112.010742188 l 5
 405 521.010742188 l 5x78
231 521.010742188 m 1
 231 239.010742188 l 2
 231 165.247070312 257.36328125 136.010742188 318 136.010742188 c 0
 416.520376219 136.010742188 449 243.010742188 449 243.010742188 c 1
 501 169.010742188 l 1
 501 169.010742188 436.392043779 -9.9228515625 246 -9.9228515625 c 0xb8
 112.8984375 -9.9228515625 55 63.8916015625 55 188.010742188 c 2
 55 521.010742188 l 1
 231 521.010742188 l 1
EndSplineSet
Substitution2: "'ss02' Style Set 2 in Latin lookup 1-1" u.ss02
EndChar

StartChar: period
Encoding: 46 46 50
Width: 274
Flags: W
HStem: -10 208<66.3239 207.676>
VStem: 30 214<27.2036 160.796>
LayerCount: 2
Fore
SplineSet
30 94 m 4
 30 157.555965909 71.6106889205 198 137 198 c 4
 202.38931108 198 244 157.555965909 244 94 c 4
 244 30.4440340909 202.38931108 -10 137 -10 c 4
 71.6106889205 -10 30 30.4440340909 30 94 c 4
EndSplineSet
Validated: 1
EndChar

StartChar: comma
Encoding: 44 44 51
Width: 293
Flags: W
VStem: 55 183<28.4623 208.008>
LayerCount: 2
Fore
SplineSet
55 130 m 2
 55 208.0078125 l 1
 238 208.0078125 l 1
 238 121 l 2
 238 -48.4475138122 116 -131 116 -131 c 1
 -21 -60 l 1
 -21 -60 55 13.2596153846 55 130 c 2
EndSplineSet
Validated: 1
EndChar

StartChar: exclam
Encoding: 33 33 54
Width: 304
Flags: W
HStem: -10 208<81.3239 222.676> 711.008 20G<50.5 253.5>
VStem: 45 214<27.2036 160.796> 50.5 203<560.205 731.008> 70.5 163<243 413.803>
LayerCount: 2
Fore
SplineSet
70.5 243 m 5xc8
 50.5 731.0078125 l 1
 253.5 731.0078125 l 1xd0
 233.5 243 l 5
 70.5 243 l 5xc8
EndSplineSet
Refer: 50 46 N 1 0 0 1 15 0 2
Validated: 1
EndChar

StartChar: p
Encoding: 112 112 55
Width: 631
Flags: W
HStem: -180 21G<55 238> -9.99805 143<239.323 381.789> 374.934 156<240.967 381.723>
VStem: 55 183<-180 33.002 170.002 364.934> 425 176<175.826 332.413>
LayerCount: 2
Fore
SplineSet
179 170.001953125 m 5
 179 170.001953125 224 133.001953125 302 133.001953125 c 4
 388 133.001953125 425 180 425 256 c 0
 425 328 384 374.93359375 309 374.93359375 c 0
 260 374.93359375 238 364.93359375 238 364.93359375 c 1
 238 -180 l 1
 55 -180 l 1
 55 487.93359375 l 1
 55 487.93359375 146 530.93359375 298 530.93359375 c 0
 510 530.93359375 601 420 601 251 c 0
 601 94 509 -9.998046875 336 -9.998046875 c 4
 230 -9.998046875 156 33.001953125 156 33.001953125 c 5
 179 170.001953125 l 5
EndSplineSet
Validated: 5
Substitution2: "'ss03' Style Set 3 in Latin lookup 11-1" p.ss03
EndChar

StartChar: e
Encoding: 101 101 56
Width: 585
Flags: W
HStem: -9.99805 142<255.435 485.556> 212 102<83 385> 396.934 134<237.548 359.847>
VStem: 83 121<212 314>
LayerCount: 2
Fore
SplineSet
300 396.93359375 m 0
 230 396.93359375 204 347 204 267 c 0
 204 178 246.90647482 132.001953125 346 132.001953125 c 0
 440 132.001953125 496 158.001953125 496 158.001953125 c 1
 516 20.001953125 l 1
 516 20.001953125 449 -9.998046875 315 -9.998046875 c 0
 125 -9.998046875 30 112 30 262 c 0
 30 410 113 530.93359375 305 530.93359375 c 0
 514 530.93359375 560 382.492602921 560 277 c 0
 560 227 555 212 555 212 c 1
 83 212 l 1
 80 314 l 1
 385 314 l 1
 385 314 385 322.923434449 382 334.916167317 c 4
 375.854225726 359.484377028 357.118270978 396.93359375 300 396.93359375 c 0
EndSplineSet
EndChar

StartChar: question
Encoding: 63 63 57
Width: 564
Flags: W
HStem: -10 208<171.824 313.176> 529 21G<79.0638 88> 589.043 149.957<150.417 315.655>
VStem: 135.5 214<27.2036 160.796> 146 172.62<243.017 323.021> 331.38 202.62<487.13 573.249>
LayerCount: 2
Fore
SplineSet
318.620117188 279 m 0xec
 318.620117188 260.708806818 321 243 321 243 c 1
 152 243 l 1
 152 243 146 270.608781646 146 309 c 0
 146 457.105895153 331.379882812 438.621857935 331.379882812 531.010742188 c 0
 331.379882812 563.43359375 306.436523438 589.04296875 245 589.04296875 c 0
 151.63160203 589.04296875 88 529 88 529 c 1
 25 670 l 1
 25 670 115.070946067 739 263 739 c 0
 428.99277478 739 534 669.507552083 534 538 c 0
 534 339.388992003 318.620117188 380.672508552 318.620117188 279 c 0xec
EndSplineSet
Refer: 50 46 S 1 0 0 1 105.5 0 2
EndChar

StartChar: q
Encoding: 113 113 58
Width: 631
Flags: W
HStem: -9.99805 143<249.211 391.677> 374.934 156<249.277 390.033>
VStem: 30 176<175.826 332.413> 393 183<-178 33.002 170.002 364.934>
LayerCount: 2
Fore
SplineSet
452 170.001953125 m 1
 475 33.001953125 l 1
 475 33.001953125 401 -9.998046875 295 -9.998046875 c 0
 122 -9.998046875 30 94 30 251 c 0
 30 420 121 530.93359375 333 530.93359375 c 0
 485 530.93359375 576 487.93359375 576 487.93359375 c 1
 576 -178 l 1
 393 -178 l 1
 393 364.93359375 l 1
 393 364.93359375 371 374.93359375 322 374.93359375 c 0
 247 374.93359375 206 328 206 256 c 0
 206 180 243 133.001953125 329 133.001953125 c 0
 407 133.001953125 452 170.001953125 452 170.001953125 c 1
EndSplineSet
Validated: 5
Substitution2: "'ss03' Style Set 3 in Latin lookup 11-1" q.ss03
EndChar

StartChar: backslash
Encoding: 92 92 59
Width: 466
Flags: W
HStem: 741.002 20G<5 191.898>
LayerCount: 2
Fore
SplineSet
461 -171.469726562 m 1
 280 -171.469726562 l 1
 5 761.001953125 l 5
 186 761.001953125 l 5
 461 -171.469726562 l 1
EndSplineSet
Validated: 1
EndChar

StartChar: b
Encoding: 98 98 60
Width: 631
Flags: W
HStem: -9.99805 156<240.967 380.626> 387.934 143<239.323 382.934>
VStem: 55 183<156.002 349.934 487.934 761> 425 176<189.164 342.695>
LayerCount: 2
Fore
SplineSet
179 349.93359375 m 1
 156 487.93359375 l 1
 156 487.93359375 230 530.93359375 336 530.93359375 c 0
 509 530.93359375 601 428 601 271 c 0
 601 101 510 -9.998046875 298 -9.998046875 c 4
 146 -9.998046875 55 33.001953125 55 33.001953125 c 5
 55 761 l 1
 238 761 l 1
 238 156.001953125 l 5
 238 156.001953125 260 146.001953125 309 146.001953125 c 4
 384 146.001953125 425 194 425 266 c 0
 425 342 388 387.93359375 302 387.93359375 c 0
 224 387.93359375 179 349.93359375 179 349.93359375 c 1
EndSplineSet
Validated: 5
Substitution2: "'ss03' Style Set 3 in Latin lookup 11-1" b.ss03
EndChar

StartChar: d
Encoding: 100 100 61
Width: 631
Flags: W
HStem: -9.99805 156<250.374 390.033> 387.934 143<248.066 391.677>
VStem: 30 176<189.164 342.695> 393 183<156.002 349.934 487.934 761>
LayerCount: 2
Fore
SplineSet
452 349.93359375 m 1
 452 349.93359375 407 387.93359375 329 387.93359375 c 0
 243 387.93359375 206 342 206 266 c 0
 206 194 247 146.001953125 322 146.001953125 c 4
 371 146.001953125 393 156.001953125 393 156.001953125 c 5
 393 761 l 1
 576 761 l 1
 576 33.001953125 l 5
 576 33.001953125 485 -9.998046875 333 -9.998046875 c 4
 121 -9.998046875 30 101 30 271 c 0
 30 428 122 530.93359375 295 530.93359375 c 0
 401 530.93359375 475 487.93359375 475 487.93359375 c 1
 452 349.93359375 l 1
EndSplineSet
Validated: 5
Substitution2: "'ss03' Style Set 3 in Latin lookup 11-1" d.ss03
EndChar

StartChar: c
Encoding: 99 99 62
Width: 529
Flags: W
HStem: -9.99805 146<263.147 441.189> 386.934 144<255.184 430.967>
VStem: 30 178<187.24 341.416>
LayerCount: 2
Fore
SplineSet
332 386.93359375 m 4
 239.882254464 386.93359375 208 330 208 262 c 4
 208 193 252.624375881 136.001953125 339 136.001953125 c 4
 422.899159664 136.001953125 467 173.001953125 467 173.001953125 c 5
 501 42.001953125 l 5
 501 42.001953125 448 -9.998046875 320 -9.998046875 c 4
 120.292761705 -9.998046875 30 112 30 262 c 4
 30 410 115.203318242 530.93359375 310 530.93359375 c 4
 443.93989071 530.93359375 503 483.93359375 503 483.93359375 c 5
 462 344.93359375 l 5
 462 344.93359375 420.064516129 386.93359375 332 386.93359375 c 4
EndSplineSet
Validated: 1
EndChar

StartChar: j
Encoding: 106 106 63
Width: 292
Flags: W
HStem: 500.934 20G<54 237> 583.002 198<78.7651 213.235>
VStem: 44 204<616.818 747.186> 54 183<35.0794 520.934>
LayerCount: 2
Fore
SplineSet
-90 -58 m 5xd0
 10 -30.956097561 54 35.6002926123 54 140 c 2
 54 520.93359375 l 1
 237 520.93359375 l 1
 237 123 l 2
 237 -140.450762842 -4 -198 -4 -198 c 1
 -90 -58 l 5xd0
44 682.001953125 m 0xe0
 44 742.001953125 84 781.001953125 146 781.001953125 c 0
 208 781.001953125 248 742.001953125 248 682.001953125 c 0
 248 622.001953125 208 583.001953125 146 583.001953125 c 0
 84 583.001953125 44 622.001953125 44 682.001953125 c 0xe0
EndSplineSet
EndChar

StartChar: quotesingle
Encoding: 39 39 64
Width: 293
Flags: W
HStem: 403 328.008<70 223>
VStem: 70 153<403 517.803>
LayerCount: 2
Fore
SplineSet
70 403 m 5
 50 731.0078125 l 5
 243 731.0078125 l 5
 223 403 l 5
 70 403 l 5
EndSplineSet
EndChar

StartChar: f
Encoding: 102 102 65
Width: 452
Flags: W
HStem: 0 21G<100 282> 378.011 143<25 431> 635.06 135.942<301.604 456.313>
VStem: 100 182<0 617.439>
LayerCount: 2
Fore
SplineSet
364.479492188 635.059570312 m 4
 302 635.059570312 282 605.670935491 282 555.001953125 c 6
 282 0 l 5
 100 0 l 5
 100 579.001953125 l 6
 100 724.858398438 177.454101562 771.001953125 323.479492188 771.001953125 c 4
 435.029296875 771.001953125 474.479492188 742.001953125 474.479492188 742.001953125 c 5
 453.479492188 618.001953125 l 5
 453.479492188 618.001953125 423.648165546 635.059570312 364.479492188 635.059570312 c 4
25 521.010742188 m 1
 431 521.010742188 l 1
 431 378.010742188 l 1
 25 378.010742188 l 1
 25 521.010742188 l 1
EndSplineSet
Validated: 5
EndChar

StartChar: h
Encoding: 104 104 66
Width: 643
Flags: W
HStem: 0 21G<55 238 412 588> 385 145.934<290.278 463.551> 741.002 20G<55 238>
VStem: 55 183<0 761.002> 412 176<0 361.158>
LayerCount: 2
Fore
SplineSet
412 0 m 5
 412 282 l 6
 412 355.763671875 385.63671875 385 325 385 c 4
 226.479623781 385 194 278 194 278 c 1
 142 352 l 1
 142 352 206.607956221 530.93359375 397 530.93359375 c 4
 530.1015625 530.93359375 588 457.118781469 588 333 c 6
 588 0 l 5
 412 0 l 5
238 0 m 1
 55 0 l 1
 55 761.001953125 l 1
 238 761.001953125 l 1
 238 0 l 1
EndSplineSet
Validated: 5
EndChar

StartChar: n
Encoding: 110 110 67
Width: 643
Flags: W
HStem: 0 21G<55 238 412 588> 385 145.934<290.278 463.551> 501.011 20G<55 55>
VStem: 55 183<0 352 409 435.136> 412 176<0 361.158>
LayerCount: 2
Fore
SplineSet
238 0 m 5xb8
 55 0 l 5
 55 521.010742188 l 5
 208 521.010742188 l 5
 238 409 l 5
 238 0 l 5xb8
412 0 m 1
 412 282 l 2
 412 355.763671875 385.63671875 385 325 385 c 0
 226.479623781 385 194 278 194 278 c 1
 142 352 l 1
 142 352 206.607956221 530.93359375 397 530.93359375 c 0xd8
 530.1015625 530.93359375 588 457.118781469 588 333 c 2
 588 0 l 1
 412 0 l 1
EndSplineSet
Substitution2: "'ss02' Style Set 2 in Latin lookup 1-1" n.ss02
EndChar

StartChar: l
Encoding: 108 108 68
Width: 292
Flags: W
HStem: 0 21G<55 237> 741.002 20G<55 237>
VStem: 55 182<0 761.002>
LayerCount: 2
Fore
SplineSet
55 0 m 5
 55 761.001953125 l 5
 237 761.001953125 l 5
 237 0 l 5
 55 0 l 5
EndSplineSet
Validated: 1
EndChar

StartChar: m
Encoding: 109 109 69
Width: 972
Flags: W
HStem: 0 21G<55 238 402 578 742 918> 385 145.934<290.214 443.937 622.699 796.011> 501.011 20G<55 55>
VStem: 55 183<0 352 409 435.136> 402 176<0 355.764> 742 176<0 359.255>
LayerCount: 2
Fore
SplineSet
742 0 m 5xdc
 742 282 l 6
 742 355.763671875 715.63671875 385 655 385 c 4
 564 385 534 278 534 278 c 5
 472 372 l 5
 472 372 539.141601562 530.93359375 737 530.93359375 c 4
 855.021484375 530.93359375 918 460.848053034 918 343 c 6
 918 0 l 5
 742 0 l 5xdc
402 0 m 1
 402 282 l 2
 402 355.763671875 375.63671875 385 315 385 c 0
 224 385 194 278 194 278 c 1
 142 352 l 1
 142 352 206.524414062 530.93359375 397 530.93359375 c 0
 523.021484375 530.93359375 578 460.848053034 578 343 c 2
 578 0 l 1
 402 0 l 1
238 0 m 1
 55 0 l 1
 55 521.010742188 l 1xbc
 208 521.010742188 l 1
 238 409 l 1
 238 0 l 1
EndSplineSet
Substitution2: "'ss02' Style Set 2 in Latin lookup 1-1" m.ss02
EndChar

StartChar: t
Encoding: 116 116 70
Width: 451
Flags: W
HStem: -9.99805 146.942<222.227 409.432> 378.011 143<143 426>
VStem: 95 182<152.819 489>
LayerCount: 2
Fore
SplineSet
344 136.944335938 m 4
 385 136.944335938 407.479492188 150.001953125 407.479492188 150.001953125 c 5
 422.479492188 18.001953125 l 5
 422.479492188 18.001953125 388 -9.998046875 287 -9.998046875 c 4
 157.454101562 -9.998046875 95 53 95 175.001953125 c 6
 95 489 l 5
 100 489 l 1
 130 681.00390625 l 1
 277 681.00390625 l 5
 277 217.001953125 l 6
 277 159 299 136.944335938 344 136.944335938 c 4
10 378.010742188 m 1
 10 507.010742188 l 1
 135 527.010742188 l 1
 143 521.010742188 l 1
 426 521.010742188 l 1
 426 378.010742188 l 1
 10 378.010742188 l 1
EndSplineSet
Validated: 5
EndChar

StartChar: s
Encoding: 115 115 71
Width: 518
Flags: W
HStem: -10 127.99<137.715 298.369> 402.943 127.99<227.133 392.367>
VStem: 43 180.74<335.668 395.872> 303.26 178.74<125.623 185.412>
LayerCount: 2
Back
SplineSet
43 366.93359375 m 0
 43 469.376953125 123 530.93359375 266 530.93359375 c 0
 417 530.93359375 479 474.93359375 479 474.93359375 c 1
 435 356.93359375 l 1
 435 356.93359375 382 402.943359375 285.115234375 402.943359375 c 4
 241.805664062 402.943359375 223.740234375 389.865234375 223.740234375 366 c 0
 223.740234375 279.986328125 482 358.495117188 482 150 c 0
 482 47.556640625 402 -10 259 -10 c 0
 108 -10 25 45 25 45 c 1
 72 173 l 1
 72 173 149 117.990234375 243 117.990234375 c 0
 277.194335938 117.990234375 303.259765625 128.068359375 303.259765625 156 c 0
 303.259765625 240.077148438 43 156.168945312 43 366.93359375 c 0
EndSplineSet
Fore
SplineSet
43 366.93359375 m 0
 43 469.376953125 123 530.93359375 266 530.93359375 c 0
 412.037558685 530.93359375 472 478.93359375 472 478.93359375 c 1
 428 360.93359375 l 1
 428 360.93359375 377.475234881 402.943359375 285.115234375 402.943359375 c 0
 241.805664062 402.943359375 223.740234375 389.865234375 223.740234375 366 c 0
 223.740234375 333.615956779 260.34890156 324.553192435 305.999998272 314.714102921 c 0
 381.600544738 298.420068438 482 279.996958241 482 150 c 0
 482 47.556640625 402 -10 259 -10 c 0
 108 -10 25 45 25 45 c 1
 72 173 l 1
 72 173 149 117.990234375 243 117.990234375 c 0
 277.194335938 117.990234375 303.259765625 128.068359375 303.259765625 156 c 0
 303.259765625 187.278576963 267.239653564 195.307877675 222.000001732 203.909303399 c 0
 145.634986994 218.428601747 43 234.578101661 43 366.93359375 c 0
EndSplineSet
EndChar

StartChar: w
Encoding: 119 119 72
Width: 910
Flags: W
HStem: 0 21G<143.472 374.08> 501.011 20G<5 198.18 357.231 552.735>
LayerCount: 2
Fore
SplineSet
368 0 m 1
 149 0 l 1
 5 521.010742188 l 1
 194 521.010742188 l 1
 265 181.272460938 l 1
 363 521.010742188 l 1
 547 521.010742188 l 1
 645 179.272460938 l 1
 716 519.010742188 l 1
 905 519.010742188 l 1
 761 -2 l 1
 542 -2 l 5
 455 286.168945312 l 1
 368 0 l 1
EndSplineSet
Validated: 1
EndChar

StartChar: x
Encoding: 120 120 73
Width: 606
Flags: W
HStem: 0 21G<5 221.473 384.527 601> 501.011 20G<18 228.646 377.354 588>
LayerCount: 2
Fore
SplineSet
210 0 m 1
 5 0 l 1
 174 265 l 1
 18 521.010742188 l 5
 218 521.010742188 l 5
 358 258 l 1
 210 0 l 1
396 0 m 1
 248 258 l 1
 388 521.010742188 l 1
 588 521.010742188 l 1
 432 265 l 1
 601 0 l 1
 396 0 l 1
EndSplineSet
EndChar

StartChar: y
Encoding: 121 121 74
Width: 590
Flags: W
HStem: -179.994 21G<99 303.274> 501.011 20G<5 203.644 386.49 585>
LayerCount: 2
Fore
SplineSet
295 -179.994140625 m 1
 99 -179.994140625 l 5
 200 45 l 1
 5 521.010742188 l 1
 197 521.010742188 l 1
 296 223 l 1
 393 521.010742188 l 1
 585 521.010742188 l 1
 295 -179.994140625 l 1
EndSplineSet
Validated: 1
EndChar

StartChar: z
Encoding: 122 122 75
Width: 509
Flags: W
HStem: 0 142<263 474> 379.011 142<35 246>
LayerCount: 2
Fore
SplineSet
35 521.010742188 m 5
 474 521.010742188 l 5
 474 399.010742188 l 5
 263 142 l 1
 474 142 l 1
 474 0 l 1
 35 0 l 1
 35 122 l 1
 246 379.010742188 l 5
 35 379.010742188 l 5
 35 521.010742188 l 5
EndSplineSet
Validated: 1
EndChar

StartChar: plus
Encoding: 43 43 76
Width: 500
Flags: W
HStem: 285 146<30 470>
VStem: 173 154<138 578>
LayerCount: 2
Fore
SplineSet
327 578 m 1
 327 138 l 1
 173 138 l 1
 173 578 l 1
 327 578 l 1
470 285 m 5
 30 285 l 5
 30 431 l 5
 470 431 l 5
 470 285 l 5
EndSplineSet
Validated: 5
EndChar

StartChar: less
Encoding: 60 60 77
Width: 500
Flags: W
LayerCount: 2
Fore
SplineSet
413 119 m 1
 30 319 l 1
 30 397 l 1
 413 597 l 1
 480 459 l 1
 259.25 358 l 5
 480 257 l 1
 413 119 l 1
EndSplineSet
Validated: 1
EndChar

StartChar: greater
Encoding: 62 62 78
Width: 500
Flags: W
LayerCount: 2
Fore
SplineSet
97 597 m 1
 480 397 l 1
 480 319 l 1
 97 119 l 1
 30 257 l 1
 250.75 358 l 5
 30 459 l 1
 97 597 l 1
EndSplineSet
Validated: 1
EndChar

StartChar: parenleft
Encoding: 40 40 80
Width: 360
Flags: W
VStem: 35 175.137<121.058 473.788>
LayerCount: 2
Fore
SplineSet
210.13671875 300.836914062 m 0
 210.13671875 21 355 -138.994140625 355 -138.994140625 c 1
 212 -188.994140625 l 5
 212 -188.994140625 35 -37 35 301.005859375 c 0
 35 613 212 781.001953125 212 781.001953125 c 5
 355 731.001953125 l 1
 355 731.001953125 210.13671875 577 210.13671875 300.836914062 c 0
EndSplineSet
Validated: 1
EndChar

StartChar: parenright
Encoding: 41 41 81
Width: 360
Flags: W
VStem: 149.863 175.137<118.22 470.95>
LayerCount: 2
Fore
SplineSet
149.86328125 291.170898438 m 0
 149.86328125 571.0078125 5 731.001953125 5 731.001953125 c 1
 148 781.001953125 l 5
 148 781.001953125 325 629.0078125 325 291.001953125 c 0
 325 -20.9921875 148 -188.994140625 148 -188.994140625 c 5
 5 -138.994140625 l 1
 5 -138.994140625 149.86328125 15.0078125 149.86328125 291.170898438 c 0
EndSplineSet
Validated: 1
EndChar

StartChar: asterisk
Encoding: 42 42 82
Width: 467
Flags: W
HStem: 711.008 20G<164.399 302.8>
VStem: 169.535 128.129<605.936 731.008>
LayerCount: 2
Fore
SplineSet
233.599609375 429.880859375 m 1
 174.5 312.80859375 l 1
 56.7998046875 389.0078125 l 1
 136.77734375 491.0625 l 1
 25 512.208007812 l 1
 52.5 638.708007812 l 1
 169.53515625 605.935546875 l 1
 164.399414062 731.0078125 l 1
 302.799804688 731.0078125 l 1
 297.6640625 605.935546875 l 1
 414.69921875 638.708007812 l 1
 442.19921875 512.208007812 l 1
 330.421875 491.0625 l 1
 410.399414062 389.0078125 l 5
 292.69921875 312.80859375 l 5
 233.599609375 429.880859375 l 1
EndSplineSet
EndChar

StartChar: braceleft
Encoding: 123 123 83
Width: 439
Flags: W
HStem: -182 131.996<273.883 399.212> 251.532 126<25 117.959> 638.006 132.996<270.148 399.221>
VStem: 95 165<-38.8172 128.944 482.665 627.999> 125 155<65.8165 243.448 385.29 540.779>
LayerCount: 2
Fore
SplineSet
219 311.538085938 m 1xe8
 219 311.538085938 280 286.538085938 280 206.538085938 c 0xe8
 280 141.791992188 260 89.81640625 260 17.99609375 c 0
 260 -34.21484375 283.006835938 -50.00390625 324 -50.00390625 c 0
 374.836914062 -50.00390625 397 -35.00390625 397 -35.00390625 c 1
 414 -162 l 1
 414 -162 369.37109375 -182 297 -182 c 0
 148.283203125 -182 95 -117.853515625 95 -9.005859375 c 0xf0
 95 69.025390625 125 127.983398438 125 199.532226562 c 0
 125 239.2265625 103.138671875 251.532226562 60 251.532226562 c 2
 25 251.532226562 l 1
 25 377.532226562 l 1
 60 377.532226562 l 2
 103.138671875 377.532226562 125 389.838867188 125 429.532226562 c 0xe8
 125 470.747070312 95 547.520507812 95 603.99609375 c 0
 95 709.073242188 148.283203125 771.001953125 297 771.001953125 c 0
 363.0390625 771.001953125 414 751.001953125 414 751.001953125 c 1
 397 623.005859375 l 1
 397 623.005859375 364.951171875 638.005859375 323 638.005859375 c 0
 282.647460938 638.005859375 260 622.448242188 260 571.005859375 c 0xf0
 260 525.4375 280 478.208007812 280 416.538085938 c 4
 280 334.541015625 219 311.538085938 219 311.538085938 c 1xe8
EndSplineSet
Validated: 1
EndChar

StartChar: underscore
Encoding: 95 95 84
Width: 700
Flags: W
HStem: -154 154<25 675>
LayerCount: 2
Fore
SplineSet
25 0 m 1
 675 0 l 5
 675 -154 l 5
 25 -154 l 1
 25 0 l 1
EndSplineSet
Validated: 1
EndChar

StartChar: bar
Encoding: 124 124 85
Width: 279
Flags: W
HStem: 741.002 20G<55 224>
VStem: 55 169<-171.47 761.002>
LayerCount: 2
Fore
SplineSet
55 -171.469726562 m 1
 55 761.001953125 l 1
 224 761.001953125 l 5
 224 -171.469726562 l 5
 55 -171.469726562 l 1
EndSplineSet
Validated: 1
EndChar

StartChar: dollar
Encoding: 36 36 86
Width: 635
Flags: W
HStem: -113 213<225 394> -10 159.957<180.258 377.661> 525 21G<527 534.02> 579.043 159.957<265.589 462.693> 638 207.472<243 412>
VStem: 41 204.62<480.88 559.819> 225 169<-113 100> 243 169<638 845.472> 396.38 199.62<169.181 252.822>
LayerCount: 2
Fore
SplineSet
243 638 m 5x29
 243 845.471679688 l 5
 412 845.471679688 l 5
 412 638 l 5
 243 638 l 5x29
225 100 m 5xa2
 394 100 l 5
 394 -113 l 5
 225 -113 l 5
 225 100 l 5xa2
EndSplineSet
Refer: 23 83 N 1 0 0 1 0 0 2
EndChar

StartChar: percent
Encoding: 37 37 87
Width: 1051
Flags: W
HStem: -9.99805 124.27<759.544 852.456> 0 21G<209 373.215> 299.382 124.27<198.584 291.497 754.985 857.016> 614.723 124.27<199.156 290.924> 711.008 20G<678.785 843>
VStem: 35 143.129<443.043 594.979> 311.952 143.128<443.043 594.979> 595.96 143.129<133.663 285.599> 872.912 143.128<133.663 285.599>
LayerCount: 2
Fore
SplineSet
739.088867188 209.505859375 m 0xa780
 739.088867188 157.296308127 755.218236489 114.271484375 806 114.271484375 c 0
 856.782729972 114.271484375 872.912109375 157.296308127 872.912109375 209.505859375 c 0
 872.912109375 262.046657748 856.782729972 305.342773438 806 305.342773438 c 0
 755.218236489 305.342773438 739.088867188 262.046657748 739.088867188 209.505859375 c 0xa780
595.959960938 209.362304688 m 0
 595.959960938 330.797544329 661.4609375 429.612304688 806 429.612304688 c 0
 950.539062502 429.612304688 1016.04003906 330.797544329 1016.04003906 209.362304688 c 0
 1016.04003906 88.4183463728 950.539062502 -9.998046875 806 -9.998046875 c 0
 661.4609375 -9.998046875 595.959960938 88.4183463728 595.959960938 209.362304688 c 0
178.12890625 518.885742188 m 0
 178.12890625 466.676190939 194.258275552 423.651367188 245.040039062 423.651367188 c 0
 295.822769034 423.651367188 311.952148438 466.676190939 311.952148438 518.885742188 c 0
 311.952148438 571.426540561 295.822769034 614.72265625 245.040039062 614.72265625 c 0x3780
 194.258275552 614.72265625 178.12890625 571.426540561 178.12890625 518.885742188 c 0
35 518.7421875 m 0
 35 640.177427141 100.500976562 738.9921875 245.040039062 738.9921875 c 0
 389.579101562 738.9921875 455.080078125 640.177427141 455.080078125 518.7421875 c 0
 455.080078125 397.798229185 389.579101562 299.381835938 245.040039062 299.381835938 c 0
 100.500976562 299.381835938 35 397.798229185 35 518.7421875 c 0
EndSplineSet
Refer: 165 8260 S 1 0 0 1 359 0 2
EndChar

StartChar: at
Encoding: 64 64 88
Width: 919
Flags: W
HStem: -161.398 157.562<409.584 758.908> 90.5596 140.2<540.177 689.074> 366.6 132.3<539.398 669.482> 598.494 154.9<368.028 602.331>
VStem: 35 179.058<181.537 438.01> 350.3 172.399<250.18 349.451> 690 174.699<417.44 512.956>
LayerCount: 2
Back
SplineSet
485.899414062 658.494140625 m 4
 651.382870054 658.494140625 700 589.200195312 700 487.440429688 c 6
 700 297.759765625 l 5
 700 297.759765625 673.228239089 284.759765625 613.599609375 284.759765625 c 4
 544.671793246 284.759765625 515.69921875 313.774495989 515.69921875 366.099609375 c 4
 515.69921875 424.054476869 544.068598762 452.599609375 612.19921875 452.599609375 c 4
 676.375473137 452.599609375 713.399414062 422.299804688 713.399414062 422.299804688 c 5
 751.099609375 508.200195312 l 5
 751.099609375 508.200195312 703.685672435 575.899414062 569 575.899414062 c 4
 444.714073108 575.899414062 353.299804688 510.836912117 353.299804688 371.799804688 c 4
 353.299804688 221.60005902 449.73046875 150.559570312 603.5 150.559570312 c 4
 766.883290288 150.559570312 864.69921875 191.259765625 864.69921875 191.259765625 c 5
 864.69921875 487.440429688 l 6
 864.69921875 694.501953125 716.125644451 803.39453125 476.899414062 803.39453125 c 4
 206.529296875 803.39453125 35 632.138054621 35 362.200195312 c 4
 35 111.4375 198.099609375 -91.3984375 530.899414062 -91.3984375 c 4
 753.929379642 -91.3984375 864.37109375 -35.28125 864.37109375 -35.28125 c 5
 841.08203125 102.745117188 l 5
 841.08203125 102.745117188 730.109186353 56.1630859375 547.099609375 56.1630859375 c 4
 312.904296875 56.1630859375 211.057617188 193.803710938 211.057617188 362.950195312 c 4
 211.057617188 548.47156287 303.111328125 658.494140625 485.899414062 658.494140625 c 4
EndSplineSet
Fore
SplineSet
485.899414062 598.494140625 m 0
 643.653631235 598.494140625 690 525.149190225 690 417.440429688 c 2
 690 243.759765625 l 5
 690 243.759765625 666.326808519 230.759765625 613.599609375 230.759765625 c 4
 549.600218044 230.759765625 522.69921875 255.137266836 522.69921875 299.099609375 c 4
 522.69921875 344.324505974 549.010716274 366.599609375 612.19921875 366.599609375 c 4
 670.033958263 366.599609375 703.399414062 335.299804688 703.399414062 335.299804688 c 5
 741.099609375 414.200195312 l 5
 741.099609375 414.200195312 696.289408769 498.899414062 569 498.899414062 c 4
 442.985480419 498.899414062 350.299804688 433.836912118 350.299804688 294.799804688 c 0
 350.299804688 156.141339852 444.032570582 90.5595703125 593.5 90.5595703125 c 4
 763.138411994 90.5595703125 864.69921875 131.259765625 864.69921875 131.259765625 c 5
 864.69921875 417.440429688 l 2
 864.69921875 637.609016614 716.125644451 753.39453125 476.899414062 753.39453125 c 0
 206.529296875 753.39453125 35 578.256398338 35 302.200195312 c 0
 35 45.9092052221 198.099609375 -161.3984375 530.899414062 -161.3984375 c 0
 747.241256507 -161.3984375 854.37109375 -111.28125 854.37109375 -111.28125 c 1
 831.08203125 36.7451171875 l 1
 831.08203125 36.7451171875 723.883998608 -3.8369140625 547.099609375 -3.8369140625 c 0
 314.995065153 -3.8369140625 214.057617188 133.803710938 214.057617188 302.950195312 c 0
 214.057617188 488.47156287 305.106527778 598.494140625 485.899414062 598.494140625 c 0
EndSplineSet
EndChar

StartChar: asciicircum
Encoding: 94 94 89
Width: 530
Flags: W
HStem: 711.008 20G<168.795 361.205>
LayerCount: 2
Fore
SplineSet
179 731.0078125 m 1
 351 731.0078125 l 1
 525 390 l 1
 362 390 l 5
 265 594.735351562 l 1
 168 390 l 1
 5 390 l 1
 179 731.0078125 l 1
EndSplineSet
Validated: 1
EndChar

StartChar: numbersign
Encoding: 35 35 90
Width: 787
Flags: W
HStem: 0 21G<116.5 268.92 396.5 548.92> 154 141<35 717> 419 141<70 752> 711.008 20G<238.08 390.5 518.08 670.5>
LayerCount: 2
Fore
SplineSet
70 560 m 1
 752 560 l 5
 752 419 l 5
 70 419 l 1
 70 560 l 1
35 295 m 1
 717 295 l 5
 717 154 l 5
 35 154 l 1
 35 295 l 1
396.5 0 m 5
 521.5 731.0078125 l 5
 670.5 731.0078125 l 5
 545.5 0 l 5
 396.5 0 l 5
116.5 0 m 1
 241.5 731.0078125 l 1
 390.5 731.0078125 l 5
 265.5 0 l 5
 116.5 0 l 1
EndSplineSet
Validated: 5
EndChar

StartChar: bracketleft
Encoding: 91 91 91
Width: 406
Flags: W
HStem: -171.47 134<224 381> 627.002 134<224 381>
VStem: 55 326<-171.47 -37.4697 627.002 761.002> 55 169<-37.4697 627.002>
LayerCount: 2
Fore
SplineSet
224 627.001953125 m 5xd0
 224 -37.4697265625 l 5xd0
 381 -37.4697265625 l 5
 381 -171.469726562 l 5
 55 -171.469726562 l 5
 55 761.001953125 l 5
 381 761.001953125 l 5
 381 627.001953125 l 5xe0
 224 627.001953125 l 5xd0
EndSplineSet
Validated: 1
EndChar

StartChar: bracketright
Encoding: 93 93 92
Width: 406
Flags: W
HStem: -171.47 134<25 182> 627.002 134<25 182>
VStem: 25 326<-171.47 -37.4697 627.002 761.002> 182 169<-37.4697 627.002>
LayerCount: 2
Fore
SplineSet
182 -37.4697265625 m 5xd0
 182 627.001953125 l 5xd0
 25 627.001953125 l 5
 25 761.001953125 l 5
 351 761.001953125 l 5
 351 -171.469726562 l 5
 25 -171.469726562 l 5
 25 -37.4697265625 l 5xe0
 182 -37.4697265625 l 5xd0
EndSplineSet
Validated: 1
EndChar

StartChar: braceright
Encoding: 125 125 93
Width: 439
Flags: W
HStem: -182 132.996<39.7794 168.852> 211.47 126<321.041 414> 639.006 131.996<39.7879 165.117>
VStem: 159 155<48.2227 203.712 345.554 523.185> 179 165<-38.9967 106.337 460.058 627.819>
LayerCount: 2
Fore
SplineSet
220 277.463867188 m 5xf0
 220 277.463867188 159 302.463867188 159 382.463867188 c 4xf0
 159 447.209960938 179 499.185546875 179 571.005859375 c 4
 179 623.216796875 155.993164062 639.005859375 115 639.005859375 c 4
 64.1630859375 639.005859375 42 624.005859375 42 624.005859375 c 5
 25 751.001953125 l 5
 25 751.001953125 69.62890625 771.001953125 142 771.001953125 c 4
 290.716796875 771.001953125 344 706.85546875 344 598.0078125 c 4xe8
 344 519.9765625 314 461.018554688 314 389.469726562 c 4
 314 349.775390625 335.861328125 337.469726562 379 337.469726562 c 6
 414 337.469726562 l 5
 414 211.469726562 l 5
 379 211.469726562 l 6
 335.861328125 211.469726562 314 199.163085938 314 159.469726562 c 4xf0
 314 118.254882812 344 41.4814453125 344 -14.994140625 c 4
 344 -120.071289062 290.716796875 -182 142 -182 c 4
 75.9609375 -182 25 -162 25 -162 c 5
 42 -34.00390625 l 5
 42 -34.00390625 74.048828125 -49.00390625 116 -49.00390625 c 4
 156.352539062 -49.00390625 179 -33.4462890625 179 17.99609375 c 4xe8
 179 63.564453125 159 110.793945312 159 172.463867188 c 4
 159 254.4609375 220 277.463867188 220 277.463867188 c 5xf0
EndSplineSet
Validated: 1
EndChar

StartChar: asciitilde
Encoding: 126 126 94
Width: 516
VWidth: 999
Flags: W
HStem: 274 140<279.588 440.548> 327 139<76.5581 236.904>
LayerCount: 2
Fore
SplineSet
501 328 m 5x80
 501 328 452.065429688 274 362 274 c 4x80
 274.461914062 274 220.615234375 327 154 327 c 0
 96 327 50 288 50 288 c 1
 15 421 l 1
 15 421 70.3447265625 466 155 466 c 0x40
 241.307617188 466 301.307617188 414 363 414 c 4
 423 414 462 450 462 450 c 5
 501 328 l 5x80
EndSplineSet
Validated: 1
EndChar

StartChar: sterling
Encoding: 163 163 95
Width: 639
Flags: W
HStem: 0 162<273 614> 287 149<66 502> 586.065 154.942<381.305 527.568>
VStem: 151 198<266.203 548.889>
LayerCount: 2
Fore
SplineSet
66 436 m 5
 502 436 l 5
 502 287 l 5
 66 287 l 5
 66 436 l 5
456.479492188 586.065429688 m 4
 383.455422642 586.065429688 349 557.913511491 349 463.0078125 c 6
 349 359 l 6
 349 212 273 162 273 162 c 5
 614 162 l 5
 614 0 l 5
 25 0 l 5
 25 162 l 5
 25 162 151 222 151 353 c 6
 151 493.0078125 l 6
 151 676.0078125 250.514638578 741.0078125 395.479492188 741.0078125 c 4
 507.028985206 741.0078125 546.479492188 720.0078125 546.479492188 720.0078125 c 5
 525.479492188 577.0078125 l 5
 525.479492188 577.0078125 494.966796875 586.065429688 456.479492188 586.065429688 c 4
EndSplineSet
Validated: 5
EndChar

StartChar: cent
Encoding: 162 162 96
Width: 529
Flags: W
HStem: -3 213<229 388> 100.002 146<263.147 441.189> 496.934 144<255.184 430.967> 578 157.472<229 388>
VStem: 30 178<297.24 451.416> 229 159<-3 210 578 735.472>
LayerCount: 2
Fore
SplineSet
229 578 m 1x1c
 229 735.471679688 l 1
 388 735.471679688 l 1
 388 578 l 1
 229 578 l 1x1c
229 210 m 1x8c
 388 210 l 1
 388 -3 l 1
 229 -3 l 1
 229 210 l 1x8c
EndSplineSet
Refer: 62 99 N 1 0 0 1 0 110 2
Validated: 5
EndChar

StartChar: currency
Encoding: 164 164 97
Width: 513
Flags: W
HStem: 154.724 127.462<208.278 303.951> 432.006 127.649<208.296 303.968>
VStem: 42.6113 140.849<302.746 413.605> 328.54 141.849<302.746 413.605>
LayerCount: 2
Fore
SplineSet
305.239257812 213.436523438 m 1
 413.889648438 246.325195312 l 1
 508.259765625 128.765625 l 1
 379.580078125 56.1455078125 l 1
 305.239257812 213.436523438 l 1
208.020507812 213.436523438 m 1
 133.6796875 56.1455078125 l 1
 5 128.765625 l 1
 99.3701171875 246.325195312 l 1
 208.020507812 213.436523438 l 1
305.239257812 497.74609375 m 1
 379.580078125 655.036132812 l 1
 508.259765625 582.416015625 l 1
 413.889648438 464.856445312 l 1
 305.239257812 497.74609375 l 1
208.020507812 497.74609375 m 1
 99.3701171875 464.856445312 l 1
 5 582.416015625 l 1
 133.6796875 655.036132812 l 1
 208.020507812 497.74609375 l 1
183.459960938 359.283203125 m 0
 183.459960938 313.051868971 209.035886979 282.185546875 255.5 282.185546875 c 0
 302.719019769 282.185546875 328.540039062 313.051868971 328.540039062 359.283203125 c 0
 328.540039062 402.89147431 302.752298288 432.005859375 255.611328125 432.005859375 c 0
 209.069081914 432.005859375 183.459960938 402.89147431 183.459960938 359.283203125 c 0
42.611328125 359.283203125 m 0
 42.611328125 480.527575149 123.163660091 559.655273438 255.5 559.655273438 c 0
 389.079500043 559.655273438 470.388671875 480.527575149 470.388671875 359.283203125 c 0
 470.388671875 235.505634266 389.079500043 154.723632812 255.5 154.723632812 c 0
 123.163660091 154.723632812 42.611328125 235.505634266 42.611328125 359.283203125 c 0
EndSplineSet
Validated: 5
EndChar

StartChar: yen
Encoding: 165 165 98
Width: 674
Flags: W
HStem: 0 21G<235.5 438.5> 109 111<82 592> 266 166.008<235.5 438.5> 266 111<82 246 428 592> 305 72<246 428> 711.008 20G<5 226.43 447.57 669>
VStem: 235.5 203<0 432.008>
LayerCount: 2
Fore
SplineSet
246 305 m 1xce
 5 731.0078125 l 1
 217 731.0078125 l 1
 337 476.490234375 l 1
 457 731.0078125 l 1
 669 731.0078125 l 1
 428 305 l 1
 246 305 l 1xce
235.5 0 m 1
 235.5 432.0078125 l 1
 438.5 432.0078125 l 1xe6
 438.5 0 l 1
 235.5 0 l 1
592 109 m 5
 82 109 l 1
 82 220 l 1
 592 220 l 5
 592 109 l 5
592 266 m 5xd6
 82 266 l 1
 82 377 l 1
 592 377 l 5
 592 266 l 5xd6
EndSplineSet
Validated: 5
EndChar

StartChar: brokenbar
Encoding: 166 166 99
Width: 279
Flags: W
HStem: 741.002 20G<55 224>
VStem: 55 169<-171.47 228.532 361 761.002>
LayerCount: 2
Fore
SplineSet
55 -171.469726562 m 1
 55 228.532226562 l 5
 224 228.532226562 l 5
 224 -171.469726562 l 1
 55 -171.469726562 l 1
55 361 m 1
 55 761.001953125 l 1
 224 761.001953125 l 1
 224 361 l 1
 55 361 l 1
EndSplineSet
Validated: 1
EndChar

StartChar: section
Encoding: 167 167 100
Width: 476
Flags: W
HStem: -150.042 132.382<89.1797 250.393> 638.594 132.382<225.623 386.836>
VStem: 30.2725 182.707<537.295 625.096> 263.037 182.706<-4.16226 87.0953>
LayerCount: 2
Fore
SplineSet
397.250976562 269.883789062 m 1
 273.104492188 338.224609375 l 2
 138.071289062 412.557617188 30.2724609375 464.3125 30.2724609375 586.051757812 c 0
 30.2724609375 708.237304688 118.395507812 770.975585938 275.916015625 770.975585938 c 0
 414.224609375 770.975585938 471.015625 714.3671875 471.015625 714.3671875 c 1
 423.537109375 592.083007812 l 1
 423.537109375 592.083007812 380.109375 638.59375 295.23828125 638.59375 c 0
 240.224609375 638.59375 212.979492188 621.806640625 212.979492188 583.01953125 c 0
 212.979492188 536.459348005 257.783344151 512.687785611 348.884765625 463.276367188 c 2
 465.614257812 399.96484375 l 1
 397.250976562 269.883789062 l 1
78.7646484375 351.049804688 m 1
 202.911132812 282.709960938 l 2
 337.944335938 208.375976562 445.743164062 156.62109375 445.743164062 34.8818359375 c 0
 445.743164062 -87.3037109375 357.620117188 -150.041992188 200.099609375 -150.041992188 c 0
 61.791015625 -150.041992188 5 -93.43359375 5 -93.43359375 c 1
 52.478515625 28.8505859375 l 1
 52.478515625 28.8505859375 95.9072265625 -17.66015625 180.77734375 -17.66015625 c 0
 235.791015625 -17.66015625 263.037109375 -0.873046875 263.037109375 37.9140625 c 0
 263.037109375 84.4742270754 225.961616766 104.053136941 127.130859375 157.657226562 c 2
 10.40234375 220.96875 l 1
 78.7646484375 351.049804688 l 1
EndSplineSet
EndChar

StartChar: dieresis
Encoding: 168 168 101
Width: 494
Flags: W
HStem: 550.992 188<61.2006 192.799 301.201 432.799>
VStem: 30 194<581.228 708.756> 270 194<581.228 708.756>
LayerCount: 2
Fore
SplineSet
270 644.9921875 m 4
 270 702.436730018 307.721533659 738.9921875 367 738.9921875 c 4
 426.278466341 738.9921875 464 702.436730018 464 644.9921875 c 4
 464 587.547644982 426.278466341 550.9921875 367 550.9921875 c 4
 307.721533659 550.9921875 270 587.547644982 270 644.9921875 c 4
30 644.9921875 m 0
 30 702.436730018 67.7215336595 738.9921875 127 738.9921875 c 0
 186.278466341 738.9921875 224 702.436730018 224 644.9921875 c 0
 224 587.547644982 186.278466341 550.9921875 127 550.9921875 c 0
 67.7215336595 550.9921875 30 587.547644982 30 644.9921875 c 0
EndSplineSet
Validated: 1
EndChar

StartChar: guillemotleft
Encoding: 171 171 102
Width: 710
Flags: W
LayerCount: 2
Fore
SplineSet
583 99 m 5
 350 319 l 5
 350 397 l 5
 583 617 l 5
 690 509 l 5
 529.25 358 l 5
 690 207 l 5
 583 99 l 5
263 99 m 1
 30 319 l 1
 30 397 l 1
 263 617 l 1
 370 509 l 1
 209.25 358 l 1
 370 207 l 1
 263 99 l 1
EndSplineSet
Validated: 1
EndChar

StartChar: guillemotright
Encoding: 187 187 103
Width: 710
Flags: W
LayerCount: 2
Fore
SplineSet
127 617 m 5
 360 397 l 5
 360 319 l 5
 127 99 l 5
 20 207 l 5
 180.75 358 l 5
 20 509 l 5
 127 617 l 5
447 617 m 5
 680 397 l 5
 680 319 l 5
 447 99 l 5
 340 207 l 5
 500.75 358 l 5
 340 509 l 5
 447 617 l 5
EndSplineSet
Validated: 1
EndChar

StartChar: logicalnot
Encoding: 172 172 104
Width: 500
Flags: W
HStem: 285 146<30 316>
VStem: 316 154<155 285>
LayerCount: 2
Fore
SplineSet
470 155 m 5
 316 155 l 5
 316 285 l 1
 30 285 l 1
 30 431 l 1
 470 431 l 1
 470 155 l 5
EndSplineSet
Validated: 1
EndChar

StartChar: uni00AD
Encoding: 173 173 105
Width: 366
Flags: W
HStem: 203.011 154<25 341>
VStem: 25 316<203.011 357.011>
LayerCount: 2
Fore
SplineSet
25 357.010742188 m 5
 341 357.010742188 l 5
 341 203.010742188 l 5
 25 203.010742188 l 5
 25 357.010742188 l 5
EndSplineSet
Validated: 1
EndChar

StartChar: macron
Encoding: 175 175 106
Width: 386
Flags: W
HStem: 601 124<25 361>
LayerCount: 2
Fore
SplineSet
25 725 m 1
 361 725 l 1
 361 601 l 1
 25 601 l 1
 25 725 l 1
EndSplineSet
Validated: 1
EndChar

StartChar: degree
Encoding: 176 176 107
Width: 473
Flags: W
HStem: 359.382 117.27<187.325 285.259> 621.723 117.27<187.325 285.259>
VStem: 35 137.129<491.793 606.208> 300.952 137.128<491.793 606.208>
LayerCount: 2
Fore
SplineSet
172.12890625 548.885742188 m 0
 172.12890625 509.285290109 190.400599027 476.651367188 236.040039062 476.651367188 c 0
 282.394545341 476.651367188 300.952148438 509.285290109 300.952148438 548.885742188 c 0
 300.952148438 588.817220088 282.394545341 621.72265625 236.040039062 621.72265625 c 0
 190.400599027 621.72265625 172.12890625 588.817220088 172.12890625 548.885742188 c 0
35 548.7421875 m 0
 35 653.636872366 97.6943269743 738.9921875 236.040039062 738.9921875 c 0
 375.073901196 738.9921875 438.080078125 653.636872366 438.080078125 548.7421875 c 0
 438.080078125 444.338678376 375.073901196 359.381835938 236.040039062 359.381835938 c 0
 97.6943269743 359.381835938 35 444.338678376 35 548.7421875 c 0
EndSplineSet
Validated: 1
EndChar

StartChar: plusminus
Encoding: 177 177 108
Width: 500
Flags: W
HStem: 138 126<30 177 323 470> 168 96<177 323> 340 126<30 470>
VStem: 177 146<168 578>
LayerCount: 2
Fore
SplineSet
470 138 m 1xb0
 30 138 l 1
 30 264 l 1
 470 264 l 1
 470 138 l 1xb0
323 578 m 1
 323 168 l 1
 177 168 l 1x70
 177 578 l 1
 323 578 l 1
470 340 m 5
 30 340 l 5
 30 466 l 5
 470 466 l 5
 470 340 l 5
EndSplineSet
Validated: 5
EndChar

StartChar: acute
Encoding: 180 180 109
Width: 273
Flags: W
HStem: 553 178.008<95 128>
VStem: 5 263
LayerCount: 2
Fore
SplineSet
128 553 m 5
 5 553 l 1
 95 731.0078125 l 1
 268 731.0078125 l 1
 128 553 l 5
EndSplineSet
Validated: 1
EndChar

StartChar: mu
Encoding: 181 181 110
Width: 643
Flags: W
HStem: -179.994 21G<55 231> -9.92285 145.934<211.254 350.43> 0 21G<429.643 588> 501.011 20G<55 231 405 588>
VStem: 55 176<-179.994 520.934> 95 136<26.6416 361.011> 405 183<85.8749 112.011 179.011 521.011>
LayerCount: 2
Fore
SplineSet
405 521.010742188 m 5xb2
 588 521.010742188 l 5
 588 0 l 5
 435 0 l 5
 405 112.010742188 l 5
 405 521.010742188 l 5xb2
55 -179.994140625 m 1x9a
 55 520.93359375 l 1
 231 520.93359375 l 1
 231 -179.994140625 l 1
 55 -179.994140625 l 1x9a
231 361.010742188 m 1
 231 239.010742188 l 2xda
 231 165.247070312 257.36328125 136.010742188 318 136.010742188 c 0
 416.520376219 136.010742188 449 243.010742188 449 243.010742188 c 1
 491 179.010742188 l 1
 491 179.010742188 431.2 -9.9228515625 256 -9.9228515625 c 0
 168 -9.9228515625 95 26.6415997316 95 138.010742188 c 2
 95 361.010742188 l 1xd6
 231 361.010742188 l 1
EndSplineSet
EndChar

StartChar: paragraph
Encoding: 182 182 111
Width: 751
Flags: W
HStem: 0 21G<440 633> 576.271 154.737<367 440 633 726>
VStem: 30 337<358.082 572.105> 440 193<0 576.271>
LayerCount: 2
Fore
SplineSet
367 576.04296875 m 1
 367 241.04296875 l 1
 367 241.04296875 339 235 262 235 c 0
 121.479862215 235 30 313.781803408 30 474 c 0
 30 640.252385015 117 731.0078125 317 731.0078125 c 2
 726 731.0078125 l 1
 726 576.270507812 l 1
 633 576.270507812 l 5
 633 0 l 5
 440 0 l 1
 440 576.270507812 l 1
 367 576.04296875 l 1
EndSplineSet
EndChar

StartChar: ordfeminine
Encoding: 170 170 113
Width: 518
Flags: W
HStem: 100 114<28 479> 268.064 110.229<188.624 310.008> 468.188 91.8096<185.632 310.712> 624.992 114<105.348 288.789>
VStem: 30 149<389.514 458.495> 312 151<390.789 437.754 540.992 601.742>
LayerCount: 2
Fore
SplineSet
28 214 m 1
 479 214 l 1
 479 100 l 1
 28 100 l 1
 28 214 l 1
337 437.75390625 m 1
 337 437.75390625 305.902439024 468.188476562 252 468.188476562 c 0
 203.333333334 468.188476562 179 454.337177734 179 426.21484375 c 4
 179 395.387662944 204.963622205 378.293945312 256 378.293945312 c 0
 294.647887324 378.293945312 312 390.7890625 312 390.7890625 c 1
 312 548.9921875 l 2
 312 605.108984375 274.530273437 624.9921875 210 624.9921875 c 0
 131.578429383 624.9921875 86 592.9921875 86 592.9921875 c 1
 59 705.9921875 l 1
 59 705.9921875 112.797356828 738.9921875 231 738.9921875 c 0
 388.618320611 738.9921875 463 684.105621058 463 540.9921875 c 2
 463 311.064453125 l 1
 463 311.064453125 403.567497781 268.064453125 248 268.064453125 c 0
 96.5107931725 268.064453125 30 328.962689313 30 429.998046875 c 0
 30 518.55699884 103.713709678 559.998046875 211 559.998046875 c 0
 311.423280424 559.998046875 357 517.998046875 357 517.998046875 c 1
 337 437.75390625 l 1
EndSplineSet
EndChar

StartChar: ordmasculine
Encoding: 186 186 114
Width: 555
Flags: W
HStem: 100 114<34.5 520.5> 268.061 135.778<217.691 337.745> 603.278 135.714<214.376 341.043>
VStem: 30 153.54<437.935 570.922> 371.46 153.54<437.935 570.922>
LayerCount: 2
Fore
SplineSet
183.540039062 505.958984375 m 0
 183.540039062 449.876408573 213.506948855 403.838867188 277.98046875 403.838867188 c 4
 341.509967445 403.838867188 371.459960938 449.876408573 371.459960938 505.958984375 c 0
 371.459960938 559.193333819 341.509967445 603.278320312 277.98046875 603.278320312 c 0
 213.506948855 603.278320312 183.540039062 559.193333819 183.540039062 505.958984375 c 0
30 505.05859375 m 0
 30 633.797333274 116.3003663 738.9921875 278 738.9921875 c 0
 438.731617647 738.9921875 525 633.797333274 525 505.05859375 c 0
 525 374.360202936 438.731617647 268.060546875 278 268.060546875 c 0
 116.3003663 268.060546875 30 374.360202936 30 505.05859375 c 0
34.5 214 m 1
 520.5 214 l 1
 520.5 100 l 1
 34.5 100 l 1
 34.5 214 l 1
EndSplineSet
EndChar

StartChar: copyright
Encoding: 169 169 115
Width: 832
Flags: W
HStem: -10 109.134<295.809 536.191> 177.252 106.979<396.678 540.328> 444.771 106.979<396.678 535.422> 629.866 109.134<295.809 536.191>
VStem: 30 112.953<251.322 477.135> 240.158 132.811<307.537 421.335> 689.047 112.953<251.322 477.135>
LayerCount: 2
Fore
SplineSet
372.96875 364.66796875 m 0
 372.96875 320.318944583 398.939203382 284.23046875 458.658203125 284.23046875 c 0
 520.722167969 284.23046875 553.537109375 315.109375 553.537109375 315.109375 c 1
 576.4765625 213.427734375 l 1
 576.4765625 213.427734375 533.151130733 177.251953125 445.658203125 177.251953125 c 0
 307.746487122 177.251953125 240.158203125 260.872121903 240.158203125 364.25 c 0
 240.158203125 467.628417969 307.746487122 551.75 445.658203125 551.75 c 0
 533.151130733 551.75 576.4765625 515.07421875 576.4765625 515.07421875 c 1
 548.537109375 412.892578125 l 1
 548.537109375 412.892578125 517.609570702 444.771484375 458.658203125 444.771484375 c 0
 398.939203382 444.771484375 372.96875 409.114178845 372.96875 364.66796875 c 0
142.953125 364.161132812 m 4
 142.953125 218.866488603 230.240277058 99.1337890625 416 99.1337890625 c 4
 601.759722942 99.1337890625 689.046875 218.866488603 689.046875 364.161132812 c 4
 689.046875 509.830552975 601.759722942 629.866210938 416 629.866210938 c 4
 230.240277058 629.866210938 142.953125 509.830552975 142.953125 364.161132812 c 4
30 364 m 4
 30 570.756835938 164.13671875 739 416 739 c 4
 667.86328125 739 802 570.756835938 802 364 c 4
 802 157.794921875 667.86328125 -10 416 -10 c 4
 164.13671875 -10 30 157.794921875 30 364 c 4
EndSplineSet
Validated: 1
EndChar

StartChar: registered
Encoding: 174 174 116
Width: 832
Flags: W
HStem: -10 109.134<295.809 536.191> 306.75 79.4805<351.496 453.609> 306.75 51<380 489> 464.771 89.4785<381.936 464.473> 629.866 109.134<295.809 536.191>
VStem: 30 112.953<251.322 477.135> 258.5 121.5<184.75 306.75 386.23 461.885> 350.5 29.5<306.75 386.23> 470.189 117.311<392.303 457.359> 689.047 112.953<251.322 477.135>
LayerCount: 2
Fore
SplineSet
380 356.25 m 1xbdc0
 489 357.75 l 5
 609.5 184.75 l 1
 473.5 184.75 l 1
 380 356.25 l 1xbdc0
448.5 306.75 m 2xdec0
 350.5 306.75 l 1xbdc0
 351.49609375 386.23046875 l 1
 412.99609375 386.23046875 l 2
 453.609222343 386.230872299 470.189453125 398.028632113 470.189453125 424.333984375 c 0
 470.189453125 452.108269279 451.658434257 464.771484375 410.5 464.771484375 c 0
 390.801347897 464.771484375 380 461.884765625 380 461.884765625 c 1
 380 184.75 l 1
 258.5 184.75 l 1
 258.5 545.25390625 l 1
 258.5 545.25390625 316.733886719 554.25 414.5 554.25 c 0
 539.525466561 554.25 587.5 504.496669012 587.5 428.75 c 0
 587.5 346.373931624 530.5 306.75 448.5 306.75 c 2xdec0
142.953125 364.161132812 m 0
 142.953125 218.866488603 230.240277058 99.1337890625 416 99.1337890625 c 0
 601.759722942 99.1337890625 689.046875 218.866488603 689.046875 364.161132812 c 0
 689.046875 509.830552975 601.759722942 629.866210938 416 629.866210938 c 0
 230.240277058 629.866210938 142.953125 509.830552975 142.953125 364.161132812 c 0
30 364 m 0
 30 570.756835938 164.13671875 739 416 739 c 0
 667.86328125 739 802 570.756835938 802 364 c 0
 802 157.794921875 667.86328125 -10 416 -10 c 0
 164.13671875 -10 30 157.794921875 30 364 c 0
EndSplineSet
EndChar

StartChar: AE
Encoding: 198 198 119
Width: 1079
Flags: W
HStem: 0 162<718 1044> 156 156<240 556> 287 156<636 1002> 569.008 162<718 1044>
VStem: 515 41<156 312> 636 82<287 443>
LayerCount: 2
Fore
SplineSet
240 312 m 1x5c
 556 312 l 1
 556 156 l 1
 240 156 l 1
 240 312 l 1x5c
525 554 m 5
 218 0 l 1
 5 0 l 1x9c
 429 731.0078125 l 1
 611 731.0078125 l 1
 525 554 l 5
636 443 m 1x3c
 1002 443 l 1
 1002 287 l 1
 636 287 l 1
 636 443 l 1x3c
718 569.0078125 m 1
 718 162 l 1
 1044 162 l 1
 1044 0 l 1
 515 0 l 1x9c
 515 731.0078125 l 1
 1044 731.0078125 l 1
 1044 569.0078125 l 1
 718 569.0078125 l 1
EndSplineSet
EndChar

StartChar: ae
Encoding: 230 230 120
Width: 915
Flags: W
HStem: -9.99805 130.229<225.532 355.682> -9.99805 142<585.435 815.556> 212 102<413 715> 223.126 105.81<224.064 346.449> 396.93 134<118.664 325.414> 396.934 134<567.548 689.847>
VStem: 30 185<134.032 210.542> 348 135<312.93 373.743> 413 121<212 314>
LayerCount: 2
Fore
SplineSet
483 254.78125 m 1x0b
 348 249.3125 l 1
 348 316.9296875 l 2
 348 376 310.530273437 396.9296875 246 396.9296875 c 0
 151.135196834 396.9296875 96 364.9296875 96 364.9296875 c 1
 69 497.9296875 l 1
 69 497.9296875 125.925110132 530.9296875 251 530.9296875 c 0
 408.61832061 530.9296875 483 470.499023438 483 312.9296875 c 2
 483 254.78125 l 1x0b
245 -9.998046875 m 0x92
 105.663654618 -9.998046875 30 58.4215732061 30 171.935546875 c 0
 30 278.887511941 115.931451613 328.935546875 241 328.935546875 c 0
 375.814814816 328.935546875 437 274.935546875 437 274.935546875 c 1
 417 180.69140625 l 1
 417 180.69140625 372.365853659 223.125976562 295 223.125976562 c 0
 241.666666667 223.125976562 215 206.964677734 215 174.15234375 c 4
 215 139.465404658 239.228915663 120.231445312 288 120.231445312 c 0
 378.543288875 120.231445312 387 193 387 193 c 1
 478 111 l 1
 478 111 431.183393938 -9.998046875 245 -9.998046875 c 0x92
EndSplineSet
Refer: 56 101 N 1 0 0 1 330 0 2
EndChar

StartChar: cedilla
Encoding: 184 184 121
Width: 357
Flags: W
HStem: -285.475 89.2803<79.6339 194.646> -120.774 150.753<102.3 193.554>
VStem: 198.371 123.029<-191.957 -125.23>
LayerCount: 2
Fore
SplineSet
193.75 -55.474609375 m 1
 193.75 -55.474609375 206.714803601 -53.474609375 219 -53.474609375 c 0
 280.137418253 -53.474609375 321.400390625 -82.3949433075 321.400390625 -163.075195312 c 0
 321.400390625 -254.23828125 261.290039062 -285.474609375 161.700195312 -285.474609375 c 0
 74.5791015625 -285.474609375 33 -248.125 33 -248.125 c 1
 64.0498046875 -163.974609375 l 1
 64.0498046875 -163.974609375 99.259765625 -196.194335938 150.950195312 -196.194335938 c 0
 189.326171875 -196.194335938 198.37109375 -182.608122163 198.37109375 -158.524414062 c 4
 198.37109375 -130.255814647 182.359891951 -120.774414062 146.200195312 -120.774414062 c 0
 115.429640702 -120.774414062 100.5 -129.774414062 100.5 -129.774414062 c 1
 78 -98.2744140625 l 1
 102.299804688 29.978515625 l 1
 209 29.978515625 l 1
 193.75 -55.474609375 l 1
EndSplineSet
EndChar

StartChar: perthousand
Encoding: 8240 8240 122
Width: 1491
Flags: W
HStem: -9.99805 124.27<759.544 852.456 1199.54 1292.46> 0 21G<209 373.215> 305.343 124.27<194.025 296.056 760.116 851.884 1200.12 1291.88> 614.723 124.27<199.156 290.924> 711.008 20G<678.785 843>
VStem: 35 143.129<443.043 594.979> 311.952 143.128<443.043 594.979> 595.96 143.129<133.663 285.599> 872.912 143.128<133.663 285.599> 1035.96 143.129<133.663 285.599> 1312.91 143.128<133.663 285.599>
LayerCount: 2
Fore
SplineSet
1179.08886719 209.505859375 m 0xa7e0
 1179.08886719 157.295898438 1195.21777344 114.271484375 1246 114.271484375 c 0
 1296.78320312 114.271484375 1312.91210938 157.295898438 1312.91210938 209.505859375 c 0
 1312.91210938 262.046875 1296.78320312 305.342773438 1246 305.342773438 c 0
 1195.21777344 305.342773438 1179.08886719 262.046875 1179.08886719 209.505859375 c 0xa7e0
1035.95996094 209.362304688 m 0
 1035.95996094 330.797851562 1101.4609375 429.612304688 1246 429.612304688 c 0
 1390.5390625 429.612304688 1456.04003906 330.797851562 1456.04003906 209.362304688 c 0
 1456.04003906 88.41796875 1390.5390625 -9.998046875 1246 -9.998046875 c 0
 1101.4609375 -9.998046875 1035.95996094 88.41796875 1035.95996094 209.362304688 c 0
739.088867188 209.505859375 m 0
 739.088867188 157.296308127 755.218236489 114.271484375 806 114.271484375 c 0
 856.782729972 114.271484375 872.912109375 157.296308127 872.912109375 209.505859375 c 0
 872.912109375 262.046657748 856.782729972 305.342773438 806 305.342773438 c 0
 755.218236489 305.342773438 739.088867188 262.046657748 739.088867188 209.505859375 c 0
595.959960938 209.362304688 m 0
 595.959960938 330.797544329 661.4609375 429.612304688 806 429.612304688 c 0
 950.539062502 429.612304688 1016.04003906 330.797544329 1016.04003906 209.362304688 c 0
 1016.04003906 88.4183463728 950.539062502 -9.998046875 806 -9.998046875 c 0
 661.4609375 -9.998046875 595.959960938 88.4183463728 595.959960938 209.362304688 c 0
178.12890625 518.885742188 m 0
 178.12890625 466.676190939 194.258275552 423.651367188 245.040039062 423.651367188 c 0
 295.822769034 423.651367188 311.952148438 466.676190939 311.952148438 518.885742188 c 0
 311.952148438 571.426540561 295.822769034 614.72265625 245.040039062 614.72265625 c 0x37e0
 194.258275552 614.72265625 178.12890625 571.426540561 178.12890625 518.885742188 c 0
35 518.7421875 m 0
 35 640.177427141 100.500976562 738.9921875 245.040039062 738.9921875 c 0
 389.579101562 738.9921875 455.080078125 640.177427141 455.080078125 518.7421875 c 0
 455.080078125 397.798229185 389.579101562 299.381835938 245.040039062 299.381835938 c 0
 100.500976562 299.381835938 35 397.798229185 35 518.7421875 c 0
EndSplineSet
Refer: 165 8260 S 1 0 0 1 359 0 2
EndChar

StartChar: uni2031
Encoding: 8241 8241 123
Width: 1931
Flags: W
HStem: -9.99805 124.27<759.544 852.456 1199.54 1292.46 1639.54 1732.46> 0 21G<209 373.215> 305.343 124.27<194.025 296.056 760.116 851.884 1200.12 1291.88 1640.12 1731.88> 614.723 124.27<199.156 290.924> 711.008 20G<678.785 843>
VStem: 35 143.129<443.043 594.979> 311.952 143.128<443.043 594.979> 595.96 143.129<133.663 285.599> 872.912 143.128<133.663 285.599> 1035.96 143.129<133.663 285.599> 1312.91 143.128<133.663 285.599> 1475.96 143.129<133.663 285.599> 1752.91 143.128<133.663 285.599>
LayerCount: 2
Fore
SplineSet
1619.08886719 209.505859375 m 0xa7f8
 1619.08886719 157.295898438 1635.21777344 114.271484375 1686 114.271484375 c 0
 1736.78320312 114.271484375 1752.91210938 157.295898438 1752.91210938 209.505859375 c 0
 1752.91210938 262.046875 1736.78320312 305.342773438 1686 305.342773438 c 0
 1635.21777344 305.342773438 1619.08886719 262.046875 1619.08886719 209.505859375 c 0xa7f8
1475.95996094 209.362304688 m 0
 1475.95996094 330.797851562 1541.4609375 429.612304688 1686 429.612304688 c 0
 1830.5390625 429.612304688 1896.04003906 330.797851562 1896.04003906 209.362304688 c 0
 1896.04003906 88.41796875 1830.5390625 -9.998046875 1686 -9.998046875 c 0
 1541.4609375 -9.998046875 1475.95996094 88.41796875 1475.95996094 209.362304688 c 0
1179.08886719 209.505859375 m 0
 1179.08886719 157.295898438 1195.21777344 114.271484375 1246 114.271484375 c 0
 1296.78320312 114.271484375 1312.91210938 157.295898438 1312.91210938 209.505859375 c 0
 1312.91210938 262.046875 1296.78320312 305.342773438 1246 305.342773438 c 0
 1195.21777344 305.342773438 1179.08886719 262.046875 1179.08886719 209.505859375 c 0
1035.95996094 209.362304688 m 0
 1035.95996094 330.797851562 1101.4609375 429.612304688 1246 429.612304688 c 0
 1390.5390625 429.612304688 1456.04003906 330.797851562 1456.04003906 209.362304688 c 0
 1456.04003906 88.41796875 1390.5390625 -9.998046875 1246 -9.998046875 c 0
 1101.4609375 -9.998046875 1035.95996094 88.41796875 1035.95996094 209.362304688 c 0
739.088867188 209.505859375 m 0
 739.088867188 157.296308127 755.218236489 114.271484375 806 114.271484375 c 0
 856.782729972 114.271484375 872.912109375 157.296308127 872.912109375 209.505859375 c 0
 872.912109375 262.046657748 856.782729972 305.342773438 806 305.342773438 c 0
 755.218236489 305.342773438 739.088867188 262.046657748 739.088867188 209.505859375 c 0
595.959960938 209.362304688 m 0
 595.959960938 330.797544329 661.4609375 429.612304688 806 429.612304688 c 0
 950.539062502 429.612304688 1016.04003906 330.797544329 1016.04003906 209.362304688 c 0
 1016.04003906 88.4183463728 950.539062502 -9.998046875 806 -9.998046875 c 0
 661.4609375 -9.998046875 595.959960938 88.4183463728 595.959960938 209.362304688 c 0
178.12890625 518.885742188 m 0
 178.12890625 466.676190939 194.258275552 423.651367188 245.040039062 423.651367188 c 0
 295.822769034 423.651367188 311.952148438 466.676190939 311.952148438 518.885742188 c 0
 311.952148438 571.426540561 295.822769034 614.72265625 245.040039062 614.72265625 c 0x37f8
 194.258275552 614.72265625 178.12890625 571.426540561 178.12890625 518.885742188 c 0
35 518.7421875 m 0
 35 640.177427141 100.500976562 738.9921875 245.040039062 738.9921875 c 0
 389.579101562 738.9921875 455.080078125 640.177427141 455.080078125 518.7421875 c 0
 455.080078125 397.798229185 389.579101562 299.381835938 245.040039062 299.381835938 c 0
 100.500976562 299.381835938 35 397.798229185 35 518.7421875 c 0
EndSplineSet
Refer: 165 8260 S 1 0 0 1 359 0 2
EndChar

StartChar: lira
Encoding: 8356 8356 124
Width: 639
Flags: W
HStem: 0 162<273 614> 247 99<66 502> 407 99<66 502> 586.065 154.942<381.305 527.568>
VStem: 151 198<352.18 548.889>
LayerCount: 2
Fore
SplineSet
66 346 m 5
 502 346 l 5
 502 247 l 5
 66 247 l 5
 66 346 l 5
66 506 m 5
 502 506 l 5
 502 407 l 5
 66 407 l 5
 66 506 l 5
456.479492188 586.065429688 m 0
 383.455422642 586.065429688 349 557.913511491 349 463.0078125 c 2
 349 359 l 2
 349 212 273 162 273 162 c 1
 614 162 l 1
 614 0 l 1
 25 0 l 1
 25 162 l 1
 25 162 151 222 151 353 c 2
 151 493.0078125 l 2
 151 676.0078125 250.514638578 741.0078125 395.479492188 741.0078125 c 0
 507.028985206 741.0078125 546.479492188 720.0078125 546.479492188 720.0078125 c 1
 525.479492188 577.0078125 l 1
 525.479492188 577.0078125 494.966796875 586.065429688 456.479492188 586.065429688 c 0
EndSplineSet
Validated: 5
EndChar

StartChar: Euro
Encoding: 8364 8364 125
Width: 738
Flags: W
HStem: -9.99805 173.957<399.969 627.122> 231 99<25 505> 391 99<25 535> 521.285 21G<655.758 662.557> 565.043 173.957<397.737 617.653>
LayerCount: 2
Fore
SplineSet
25 330 m 1
 525 330 l 1
 505 231 l 1
 25 231 l 1
 25 330 l 1
25 490 m 1
 555 490 l 5
 535 391 l 5
 25 391 l 1
 25 490 l 1
304.620117188 364.833984375 m 0
 304.620117188 254.08203125 352.695440563 163.958984375 502 163.958984375 c 0
 611.709414552 163.958984375 665.7578125 205.716796875 665.7578125 205.716796875 c 1
 711.634765625 42.3544921875 l 1
 711.634765625 42.3544921875 644.851918714 -9.998046875 484 -9.998046875 c 0
 214.60126302 -9.998046875 99 157.243164062 99 364 c 0
 99 570.756835938 214.60126302 739 484 739 c 0
 644.851918714 739 711.634765625 685.647460938 711.634765625 685.647460938 c 1
 655.7578125 521.28515625 l 1
 655.7578125 521.28515625 605.429280734 565.04296875 502 565.04296875 c 0
 352.695440563 565.04296875 304.620117188 475.921875 304.620117188 364.833984375 c 0
EndSplineSet
EndChar

StartChar: Thorn
Encoding: 222 222 126
Width: 703
Flags: W
HStem: 0 21G<55 258> 114 151.957<260.337 443.069> 460.379 151.957<260.337 443.069> 711.008 20G<55 258>
VStem: 55 203<0 139 295 431.336 587.336 731.008> 482.38 190.62<302.031 424.412>
LayerCount: 2
Fore
SplineSet
55 0 m 1
 55 731.0078125 l 1
 258 731.0078125 l 1
 258 0 l 1
 55 0 l 1
673 363.3359375 m 0
 673 215.310798555 580.749023438 114 377 114 c 4
 250.09765625 114 162 139 162 139 c 5
 186 295 l 5
 186 295 228.51953125 265.95703125 352 265.95703125 c 4
 445.987304688 265.95703125 482.379882812 302.624532178 482.379882812 363.16796875 c 0
 482.379882812 423.711405322 445.987304688 460.37890625 352 460.37890625 c 0
 228.51953125 460.37890625 186 431.3359375 186 431.3359375 c 1
 162 587.3359375 l 1
 162 587.3359375 250.09765625 612.3359375 377 612.3359375 c 0
 580.749023438 612.3359375 673 511.030409175 673 363.3359375 c 0
EndSplineSet
EndChar

StartChar: thorn
Encoding: 254 254 127
Width: 631
Flags: W
HStem: -179.994 21G<55 237> -9.99805 143<239.323 381.789> 381.934 149<238.715 374.981> 741.002 20G<55 237>
VStem: 55 182<-179.994 33.002 170.002 354.934 470 761.002> 425 176<175.826 332.563>
LayerCount: 2
Fore
SplineSet
55 -179.994140625 m 5
 55 761.001953125 l 1
 237 761.001953125 l 1
 237 -179.994140625 l 5
 55 -179.994140625 l 5
158 470 m 1
 158 470 222 530.93359375 335 530.93359375 c 0
 510 530.93359375 601 420 601 251 c 0
 601 94 509 -9.998046875 336 -9.998046875 c 0
 230 -9.998046875 156 33.001953125 156 33.001953125 c 1
 179 170.001953125 l 1
 179 170.001953125 224 133.001953125 302 133.001953125 c 0
 388 133.001953125 425 180 425 256 c 0
 425 328 384 381.93359375 296 381.93359375 c 0
 233 381.93359375 198 354.93359375 198 354.93359375 c 1
 158 470 l 1
EndSplineSet
Validated: 5
EndChar

StartChar: multiply
Encoding: 215 215 128
Width: 500
Flags: W
LayerCount: 2
Fore
SplineSet
131.913085938 579.32421875 m 5
 471.32421875 239.913085938 l 5
 368.086914062 136.67578125 l 5
 28.67578125 476.086914062 l 5
 131.913085938 579.32421875 l 5
471.32421875 476.086914062 m 5
 131.913085938 136.67578125 l 5
 28.67578125 239.913085938 l 5
 368.086914062 579.32421875 l 5
 471.32421875 476.086914062 l 5
EndSplineSet
Validated: 5
EndChar

StartChar: divide
Encoding: 247 247 129
Width: 500
Flags: W
HStem: 60 188<184.201 315.799> 285 146<30 470> 468 188<184.201 315.799>
VStem: 153 194<90.2359 217.764 498.236 625.764>
CounterMasks: 1 e0
LayerCount: 2
Fore
SplineSet
153 562 m 0
 153 619.444335938 190.721679688 656 250 656 c 0
 309.278320312 656 347 619.444335938 347 562 c 0
 347 504.555664062 309.278320312 468 250 468 c 0
 190.721679688 468 153 504.555664062 153 562 c 0
470 285 m 1
 30 285 l 1
 30 431 l 1
 470 431 l 1
 470 285 l 1
153 154 m 0
 153 211.444335938 190.721679688 248 250 248 c 0
 309.278320312 248 347 211.444335938 347 154 c 0
 347 96.5556640625 309.278320312 60 250 60 c 0
 190.721679688 60 153 96.5556640625 153 154 c 0
EndSplineSet
Validated: 1
EndChar

StartChar: uni203D
Encoding: 8253 8253 130
Width: 564
Flags: W
HStem: -10 208<171.824 313.176> 595.043 143.957<96.3895 310.092>
VStem: 124 149<444.134 540> 135.5 214<27.2036 160.796> 331.38 202.62<480.711 574.5>
LayerCount: 2
Fore
SplineSet
147 243 m 1xe0
 136.837209302 290.903225806 124 432.696774194 124 540 c 1
 273 540 l 5
 273 466 274 346 289 264 c 1
 147 243 l 1xe0
318.620117188 279 m 0
 318.620117188 255.259943182 321 243 321 243 c 1
 147 243 l 1
 147 243 192 270.608781646 192 309 c 0
 192 477.773006544 331.379882812 436.237241932 331.379882812 532.010742188 c 0
 331.379882812 567.227114995 303.548888197 595.04296875 235 595.04296875 c 0
 142.428568578 595.04296875 63 562 63 562 c 1
 25 699 l 1
 25 699 111.286452535 739 253 739 c 0
 425.117969421 739 534 669.507552083 534 538 c 0xc8
 534 339.388992003 318.620117188 380.313496769 318.620117188 279 c 0
EndSplineSet
Refer: 50 46 N 1 0 0 1 105.5 0 2
EndChar

StartChar: uni2117
Encoding: 8471 8471 131
Width: 832
Flags: W
HStem: -10 109.134<295.809 536.191> 284.75 85.4805<369.66 473.416> 464.771 89.4785<385.936 473.428> 629.866 109.134<295.809 536.191>
VStem: 30 112.953<251.322 477.135> 262.5 121.5<184.75 291.75 380.23 461.885> 480.189 117.311<378.965 455.961> 689.047 112.953<251.322 477.135>
LayerCount: 2
Fore
SplineSet
443.5 284.75 m 4
 390.37244898 284.75 354.5 291.75 354.5 291.75 c 5
 355.49609375 380.23046875 l 5
 355.49609375 380.23046875 388 370.23046875 416.99609375 370.23046875 c 4
 461.869835364 370.23046875 480.189453125 384.505708186 480.189453125 416.333984375 c 4
 480.189453125 449.603027344 459.79569122 464.771484375 414.5 464.771484375 c 4
 394.801347897 464.771484375 384 461.884765625 384 461.884765625 c 5
 384 184.75 l 5
 262.5 184.75 l 5
 262.5 545.25390625 l 5
 262.5 545.25390625 320.733886719 554.25 418.5 554.25 c 4
 547.86160991 554.25 597.5 498.946496631 597.5 414.75 c 4
 597.5 326.972222222 534.319466526 284.75 443.5 284.75 c 4
142.953125 364.161132812 m 0
 142.953125 218.866488603 230.240277058 99.1337890625 416 99.1337890625 c 0
 601.759722942 99.1337890625 689.046875 218.866488603 689.046875 364.161132812 c 0
 689.046875 509.830552975 601.759722942 629.866210938 416 629.866210938 c 0
 230.240277058 629.866210938 142.953125 509.830552975 142.953125 364.161132812 c 0
30 364 m 0
 30 570.756835938 164.13671875 739 416 739 c 0
 667.86328125 739 802 570.756835938 802 364 c 0
 802 157.794921875 667.86328125 -10 416 -10 c 0
 164.13671875 -10 30 157.794921875 30 364 c 0
EndSplineSet
EndChar

StartChar: G.ss01
Encoding: 65537 -1 132
Width: 803
Flags: W
HStem: -10 166.957<325.635 483.157> 0 21G<560 748> 565.043 173.957<336.577 570.279>
VStem: 30 205.62<252.829 465.628> 560 188<198 389>
LayerCount: 2
Fore
SplineSet
30 364 m 0xb8
 30 570.756835938 158.598632812 739 421 739 c 0
 603.641460824 739 716.634765625 667.647460938 716.634765625 667.647460938 c 1
 667.7578125 497.28515625 l 1
 667.7578125 497.28515625 572.527870761 565.04296875 439 565.04296875 c 0
 297.259765625 565.04296875 235.620117188 475.921875 235.620117188 364.833984375 c 0
 235.620117188 249.922851562 285.390625 156.95703125 422 156.95703125 c 0
 573 156.95703125 621.552734375 295.837890625 621.552734375 295.837890625 c 1
 676 198 l 1
 676 198 599.63671875 -10 365 -10 c 0
 143.596679688 -10 30 157.794921875 30 364 c 0xb8
560 0 m 1x78
 560 389 l 1
 748 389 l 5
 748 0 l 5
 560 0 l 1x78
EndSplineSet
EndChar

StartChar: .notdef
Encoding: 65536 -1 133
Width: 832
Flags: W
HStem: -10 109.134<295.809 536.191> 177.25 110<358.837 461.163> 465.771 85.9785<326.395 424.787> 629.866 109.134<295.809 536.191>
VStem: 30 112.953<251.322 477.135> 348.5 123<188.764 275.736> 351.75 101.311<305.507 353.683> 426.439 125.311<413.306 464.026> 689.047 112.953<251.322 477.135>
LayerCount: 2
Fore
SplineSet
348.5 232.25 m 0xfc80
 348.5 265.861684946 372.416791399 287.25 410 287.25 c 0
 447.583208601 287.25 471.5 265.861684946 471.5 232.25 c 4
 471.5 198.638315054 447.583208601 177.25 410 177.25 c 0
 372.416791399 177.25 348.5 198.638315054 348.5 232.25 c 0xfc80
453.060546875 325.75 m 0xfa80
 453.060546875 312.561079546 455.75 305.75 455.75 305.75 c 1
 356.25 305.25 l 1
 356.25 305.25 351.75 317.590288766 351.75 334.75 c 0xfa80
 351.75 408.136161923 426.439453125 402.445845451 426.439453125 444.755859375 c 0
 426.439453125 456.497378359 416.855549677 465.771484375 393.25 465.771484375 c 0
 347.755207359 465.771484375 316.75 436.75 316.75 436.75 c 1
 287.25 517.25 l 1
 287.25 517.25 334.1777198 551.75 411.25 551.75 c 0
 497.308984711 551.75 551.75 517.003776042 551.75 451.25 c 0xf980
 551.75 355.011847476 453.060546875 369.996501331 453.060546875 325.75 c 0xfa80
142.953125 364.161132812 m 0
 142.953125 218.866488603 230.240277058 99.1337890625 416 99.1337890625 c 0
 601.759722942 99.1337890625 689.046875 218.866488603 689.046875 364.161132812 c 0
 689.046875 509.830552975 601.759722942 629.866210938 416 629.866210938 c 0
 230.240277058 629.866210938 142.953125 509.830552975 142.953125 364.161132812 c 0
30 364 m 0
 30 570.756835938 164.13671875 739 416 739 c 0
 667.86328125 739 802 570.756835938 802 364 c 0
 802 157.794921875 667.86328125 -10 416 -10 c 0
 164.13671875 -10 30 157.794921875 30 364 c 0
EndSplineSet
EndChar

StartChar: OE
Encoding: 338 338 134
Width: 1101
Flags: W
HStem: -10 163.957<334.562 596.797> 0 162<740 1066> 287 156<658 1024> 569.008 162<740 1066> 575.043 163.957<334.562 596.88>
VStem: 30 199.62<253.806 474.664> 658 82<287 443>
LayerCount: 2
Fore
SplineSet
606 550.737304688 m 1xae
 606 550.737304688 525.259579328 575.04296875 454 575.04296875 c 0
 289.404296875 575.04296875 229.620117188 495.453535416 229.620117188 364.16796875 c 0
 229.620117188 233.248678294 289.404296875 153.95703125 454 153.95703125 c 4
 536.331946264 153.95703125 606 178.809570312 606 178.809570312 c 5
 606 10 l 1
 606 10 541.793406951 -10 434 -10 c 0
 150.280669463 -10 30 137.794921875 30 364 c 0
 30 590.756835938 150.280669463 739 434 739 c 0
 541.793406951 739 606 721.0078125 606 721.0078125 c 1
 606 550.737304688 l 1xae
EndSplineSet
Refer: 13 69 N 1 0 0 1 482 0 2
EndChar

StartChar: kgreenlandic
Encoding: 312 312 136
Width: 609
Flags: W
HStem: 0 21G<55 238 382.83 604> 501.011 20G<55 238 371.521 594>
VStem: 55 183<0 521.011>
LayerCount: 2
Fore
SplineSet
238 0 m 1
 55 0 l 1
 55 521.010742188 l 5
 238 521.010742188 l 5
 238 0 l 1
397 0 m 1
 205 271 l 1
 386 521.010742188 l 1
 594 521.010742188 l 1
 394 276 l 1
 604 0 l 1
 397 0 l 1
EndSplineSet
EndChar

StartChar: dotlessi
Encoding: 305 305 137
Width: 292
HStem: 0 21G<55 237> 500.934 20G<55 237>
VStem: 55 182<0 520.934>
LayerCount: 2
Fore
SplineSet
55 0 m 5
 55 520.93359375 l 5
 237 520.93359375 l 5
 237 0 l 5
 55 0 l 5
EndSplineSet
EndChar

StartChar: uni0237
Encoding: 567 567 138
Width: 292
HStem: 500.934 20G<54 237>
VStem: 54 183<35.0794 520.934>
LayerCount: 2
Fore
SplineSet
-90 -58 m 1
 10 -30.956097561 54 35.6002926123 54 140 c 2
 54 520.93359375 l 1
 237 520.93359375 l 1
 237 123 l 2
 237 -140.450762842 -4 -198 -4 -198 c 1
 -90 -58 l 1
EndSplineSet
EndChar

StartChar: Ohorn
Encoding: 416 416 139
Width: 832
Flags: W
HStem: -10 171.134<324.317 507.683> 567.866 171.134<324.317 507.683>
VStem: 30 192.953<262.603 465.864> 609.047 192.953<262.603 465.864> 613.16 156.76<672.574 813.507>
LayerCount: 2
Fore
SplineSet
583.080078125 825.799804688 m 5xe8
 747.759765625 825.799804688 l 5
 747.759765625 825.799804688 769.919921875 795.200195312 769.919921875 738.9921875 c 4
 769.919921875 645 687.599609375 592.639648438 687.599609375 592.639648438 c 5
 568.16015625 641.360351562 l 5
 568.16015625 641.360351562 613.16015625 688 613.16015625 733.729492188 c 4
 613.16015625 790.55078125 583.080078125 825.799804688 583.080078125 825.799804688 c 5xe8
EndSplineSet
Refer: 1 79 N 1 0 0 1 0 0 2
EndChar

StartChar: Uhorn
Encoding: 431 431 140
Width: 860
Flags: W
HStem: -10 172.957<306.68 475.32> 711.008 20G<55 248 534 727>
VStem: 55 193<224.875 731.008> 534 193<224.875 731.008> 667 163<738.665 814.543>
LayerCount: 2
Fore
SplineSet
633.080078125 825.799804688 m 5xe8
 797.759765625 825.799804688 l 5
 797.759765625 825.799804688 830 800 830 752 c 4
 830 685.406593407 780.789915966 651 708 651 c 5
 594 731.0078125 l 5
 628 731.0078125 667 732.480474404 667 770 c 4
 667 804 633.080078125 825.799804688 633.080078125 825.799804688 c 5xe8
EndSplineSet
Refer: 6 85 N 1 0 0 1 0 0 2
EndChar

StartChar: ohorn
Encoding: 417 417 141
Width: 625
Flags: W
HStem: -9.99805 155.778<245.639 379.796> 375.22 155.714<245.639 379.796>
VStem: 30 173.54<187.008 335.801> 421.46 173.54<187.008 335.801> 448.16 146.76<464.584 605.518>
LayerCount: 2
Fore
SplineSet
418.080078125 617.810546875 m 5xe8
 572.759765625 617.810546875 l 5
 572.759765625 617.810546875 594.919921875 587.210937499 594.919921875 531.002929688 c 0
 594.919921875 437.010742187 512.599609375 384.650390625 512.599609375 384.650390625 c 1
 403.16015625 433.37109375 l 1
 403.16015625 433.37109375 448.16015625 480.010742187 448.16015625 525.740234375 c 0
 448.16015625 582.561523437 418.080078125 617.810546875 418.080078125 617.810546875 c 5xe8
EndSplineSet
Refer: 27 111 N 1 0 0 1 0 0 2
EndChar

StartChar: uhorn
Encoding: 432 432 142
Width: 698
Flags: W
HStem: -9.92285 145.934<179.449 352.722> 0 21G<429.643 588> 501.011 20G<55 231 405 588>
VStem: 55 176<159.853 521.011> 405 183<85.8749 112.011 169.011 521.011> 525 143<531.508 606.884>
LayerCount: 2
Fore
SplineSet
491.080078125 618 m 5x34
 635.759765625 618 l 1
 635.759765625 618 668 592.480824647 668 545.002929688 c 0
 668 476.431501116 618.789915966 441.002929688 546 441.002929688 c 1
 432 521.010742188 l 1
 475.315068493 521.010742188 525 522.596708474 525 563.002929688 c 4
 525 596.513806671 491.080078125 618 491.080078125 618 c 5x34
EndSplineSet
Refer: 49 117 N 1 0 0 1 0 0 2
EndChar

StartChar: Oslash
Encoding: 216 216 143
Width: 832
Flags: W
HStem: -10 171.134<324.317 507.683> 567.866 171.134<324.317 507.683>
VStem: 30 192.953<262.603 465.864> 609.047 192.953<262.603 465.864>
LayerCount: 2
Fore
SplineSet
86 -59.4697265625 m 1
 611 833.403320312 l 1
 746 769.403320312 l 5
 221 -123.469726562 l 5
 86 -59.4697265625 l 1
EndSplineSet
Refer: 1 79 N 1 0 0 1 0 0 2
EndChar

StartChar: oslash
Encoding: 248 248 144
Width: 625
Flags: W
HStem: -9.99805 155.778<245.639 379.796> 375.22 155.714<245.639 379.796>
VStem: 30 173.54<187.008 335.801> 421.46 173.54<187.008 335.801>
LayerCount: 2
Fore
SplineSet
67.5 -58.4697265625 m 1
 458.5 614.403320312 l 1
 557.5 566.403320312 l 1
 166.5 -106.469726562 l 1
 67.5 -58.4697265625 l 1
EndSplineSet
Refer: 27 111 S 1 0 0 1 0 0 2
EndChar

StartChar: uni01B7
Encoding: 439 439 145
Width: 647
Flags: W
HStem: -10 159.957<161.028 372.864> 569.008 162<56 338>
VStem: 398.38 213.62<172.651 276.721>
LayerCount: 2
Fore
SplineSet
184 417 m 1
 338 569.0078125 l 1
 56 569.0078125 l 1
 56 731.0078125 l 1
 595 731.0078125 l 1
 595 609.0078125 l 1
 420 427 l 1
 420 427 612 426 612 222 c 0
 612 64.4675164474 501.929510259 -10 311 -10 c 0
 122.811523438 -10 33 49 33 49 c 1
 86 206 l 1
 86 206 167.033761161 149.95703125 286 149.95703125 c 0
 381.975035469 149.95703125 398.379882812 186.318652329 398.379882812 228 c 4
 398.379882812 294.562033582 341.578110391 302 250 302 c 2
 184 302 l 1
 184 417 l 1
EndSplineSet
EndChar

StartChar: uni0292
Encoding: 658 658 146
Width: 609
Flags: W
HStem: -189.994 152.957<130.694 351.328> 368.011 153<56 300>
VStem: 375.38 198.62<-15.6285 91.2246>
LayerCount: 2
Fore
SplineSet
174 228.002929688 m 1
 300 368.010742188 l 1
 56 368.010742188 l 1
 56 521.010742188 l 1
 551 521.010742188 l 1
 551 419.010742188 l 1
 392 241.002929688 l 1
 392 241.002929688 574 240.017563834 574 39.0029296875 c 4
 574 -116.49025291 469.803076675 -189.994140625 271 -189.994140625 c 0
 104.693904433 -189.994140625 43 -143.994140625 43 -143.994140625 c 1
 78 7.005859375 l 1
 78 7.005859375 151.335974702 -37.037109375 259 -37.037109375 c 0
 346.918206299 -37.037109375 375.379882812 -11.8167265283 375.379882812 38.0029296875 c 0
 375.379882812 104.56496327 328.148439492 112.002929687 252 112.002929688 c 2
 174 112.002929688 l 1
 174 228.002929688 l 1
EndSplineSet
EndChar

StartChar: Eth
Encoding: 208 208 147
Width: 840
Flags: W
HStem: -10 166.957<317.638 503.814> 275 154<25 451> 572.043 166.957<317.642 503.814>
VStem: 114 203<164.266 566.271> 610.38 199.62<254.599 473.871>
LayerCount: 2
Fore
SplineSet
25 429 m 5
 451 429 l 5
 451 275 l 5
 25 275 l 5
 25 429 l 5
EndSplineSet
Refer: 3 68 N 1 0 0 1 59 0 2
EndChar

StartChar: eth
Encoding: 240 240 148
Width: 668
Flags: W
HStem: -10 154.743<259.959 390.506> 361.126 135.601<260.381 384.154>
VStem: 35 187.979<180.615 322.318> 435.653 197.663<197.705 467.157>
LayerCount: 2
Fore
SplineSet
207 606 m 1
 587 714.06640625 l 1
 612 619 l 1
 232 510.93359375 l 1
 207 606 l 1
443 290.344726562 m 1
 443 290.344726562 424.734072343 361.125976562 328.361328125 361.125976562 c 0
 254.216796875 361.125976562 222.979492188 310.58757946 222.979492188 249.2578125 c 0
 222.979492188 191.960035696 254.216796875 144.743164062 328.361328125 144.743164062 c 0
 403.850585938 144.743164062 435.653320312 205.156522518 435.653320312 299.2578125 c 0
 435.653320313 477.080674326 399.31438807 551.89934568 242 677 c 1
 371 771.001953125 l 1
 371 771.001953125 633.31640625 658 633.31640625 306.348632812 c 0
 633.31640625 92.3935546875 512.847630702 -10 333.005859375 -10 c 0
 128.409916582 -10 35 105.573722434 35 256.249023438 c 0
 35 401.02297309 124.823977836 496.7265625 282 496.7265625 c 4
 419.141425027 496.7265625 461 406.44140625 461 406.44140625 c 1
 443 290.344726562 l 1
EndSplineSet
EndChar

StartChar: Eng
Encoding: 330 330 149
Width: 803
Flags: W
HStem: -190 150.942<361.197 526.154> 0 21G<55 244 549.4 575.807> 711.008 20G<55 278.088 559 748>
VStem: 55 189<0 438.359> 559 189<-5.19727 88 166 731.008>
LayerCount: 2
Fore
SplineSet
452.520507812 -39.0576171875 m 4
 525.262908587 -39.0576171875 559 -9.99061810826 559 88 c 2
 559 731.0078125 l 1
 748 731.0078125 l 1
 748 58 l 2
 748 -125 655.046875 -190 503.520507812 -190 c 0
 384.583390884 -190 342.520507812 -161 342.520507812 -161 c 5
 363.520507812 -22 l 5
 363.520507812 -22 402.877653488 -39.0576171875 452.520507812 -39.0576171875 c 4
662 166 m 1
 564 0 l 1
 244 438.359375 l 1
 244 0 l 1
 55 0 l 1
 55 731.0078125 l 1
 264 731.0078125 l 1
 662 166 l 1
EndSplineSet
EndChar

StartChar: eng
Encoding: 331 331 150
Width: 643
Flags: W
HStem: -199.994 136.942<273.568 460.773> 0 21G<55 238> 385 145.934<290.278 463.551> 501.011 20G<55 55>
VStem: 55 183<0 352 409 435.136> 412 176<-46.0718 361.492>
LayerCount: 2
Fore
SplineSet
238 0 m 5xdc
 55 0 l 5
 55 521.010742188 l 5
 208 521.010742188 l 5
 238 409 l 5
 238 0 l 5xdc
412 30 m 2
 412 283.93359375 l 2
 412 356 385.63671875 385 325 385 c 0
 226.479623781 385 194 278 194 278 c 1
 142 352 l 1
 142 352 206.607956221 530.93359375 397 530.93359375 c 0xec
 530.1015625 530.93359375 588 457 588 334.93359375 c 2
 588 -13 l 2
 588 -137 525.545898438 -199.994140625 396 -199.994140625 c 0
 295 -199.994140625 260.520507812 -171.994140625 260.520507812 -171.994140625 c 1
 275.520507812 -49.994140625 l 1
 275.520507812 -49.994140625 298 -63.0517578125 339 -63.0517578125 c 0
 388.029850746 -63.0517578125 412 -38.3448174496 412 30 c 2
EndSplineSet
Substitution2: "'ss02' Style Set 2 in Latin lookup 1-1" eng.ss02
EndChar

StartChar: germandbls
Encoding: 223 223 151
Width: 691
Flags: W
HStem: -10 140.992<303.409 453.13> 0 21G<55 237> 317.992 133.008<312 414.377> 624 146.992<276.414 412.408>
VStem: 55 182<0 582.566> 440 185<476.654 597.202> 479 182<156.867 285.839>
LayerCount: 2
Fore
SplineSet
426 -10 m 0xba
 340.041992188 -10 288 8 288 8 c 1
 305.510742188 144 l 1
 305.510742188 144 335.5663922 130.9921875 388 130.9921875 c 0
 439.737704918 130.9921875 479 157.034499485 479 220 c 0xba
 479 291.097518732 435.91233119 317.9921875 358 317.9921875 c 2
 312 317.9921875 l 1
 312 451 l 1
 348 451 l 6
 406.322413413 451 440 481.994341791 440 538 c 0
 440 588.507042254 414.542857143 624 341 624 c 0
 277.3 624 237 587.271028037 237 493 c 2
 237 0 l 1
 55 0 l 1
 55 517 l 2
 55 663.538357523 130 770.9921875 344 770.9921875 c 0
 531 770.9921875 625 684.441499751 625 553 c 0x7c
 625 423.224010749 512.211914062 390.836914062 512.211914062 390.836914062 c 1
 512.211914062 390.836914062 661 370.147976786 661 198.9921875 c 0
 661 66.6602806255 576 -10 426 -10 c 0xba
EndSplineSet
Substitution2: "'ss04' Style Set 4 in Latin lookup 12-1" germandbls.ss04
EndChar

StartChar: uni20AD
Encoding: 8365 8365 152
Width: 724
Flags: W
HStem: 0 21G<100 303 478.039 719> 304 124<25 681> 711.008 20G<100 303 486.892 709>
VStem: 100 203<0 731.008>
LayerCount: 2
Fore
SplineSet
25 428 m 1
 681 428 l 1
 681 304 l 1
 25 304 l 1
 25 428 l 1
492 0 m 1
 240 361 l 1
 501 731.0078125 l 1
 709 731.0078125 l 1
 441 366 l 1
 719 0 l 1
 492 0 l 1
100 0 m 1
 100 731.0078125 l 1
 303 731.0078125 l 1
 303 0 l 1
 100 0 l 1
EndSplineSet
EndChar

StartChar: uni018F
Encoding: 399 399 153
Width: 792
Flags: W
HStem: -9.99805 168.957<305.134 473.16> 289.936 143<236 623> 531.285 21G<130.972 134.242> 565.043 173.957<172.674 453.424>
VStem: 556.38 69.6201<289.936 432.936>
LayerCount: 2
Back
SplineSet
404 570.04296875 m 4
 277.651623907 570.04296875 235.620117188 478.696289063 235.620117188 364.833984375 c 4
 235.620117188 254.08203125 281.838867188 163.958984375 454 163.958984375 c 4
 580.842773438 163.958984375 657.7578125 197.716796875 657.7578125 197.716796875 c 5
 684.634765625 33.3544921875 l 5
 684.634765625 33.3544921875 598.646484375 -9.998046875 425 -9.998046875 c 4
 150.063476562 -9.998046875 30 157.243164063 30 364 c 4
 30 570.756835937 155.309570312 739 411 739 c 4
 692.780273438 739 767 529.763671875 767 381.06640625 c 4
 767 315.681640625 762 296.06640625 762 296.06640625 c 5
 169 296.06640625 l 5
 166 439.06640625 l 5
 556 439.06640625 l 5
 556 439.06640625 555.467397436 448.819108992 551.75 463.001953125 c 4
 541.843540117 500.794483268 509.321714805 570.04296875 404 570.04296875 c 4
EndSplineSet
Fore
SplineSet
388 158.958984375 m 4
 514.348376093 158.958984375 556.379882812 250.305664062 556.379882812 364.16796875 c 4
 556.379882812 474.919921875 510.161132812 565.04296875 338 565.04296875 c 4
 211.157226562 565.04296875 134.2421875 531.28515625 134.2421875 531.28515625 c 5
 107.365234375 695.647460938 l 5
 107.365234375 695.647460938 193.353515625 739 367 739 c 4
 641.936523438 739 762 571.758789062 762 365.001953125 c 4
 762 158.245117188 636.690429688 -9.998046875 381 -9.998046875 c 4
 99.2197265625 -9.998046875 25 199.23828125 25 347.935546875 c 4
 25 413.3203125 30 432.935546875 30 432.935546875 c 5
 623 432.935546875 l 5
 626 289.935546875 l 5
 236 289.935546875 l 5
 236 289.935546875 236.532646476 280.18284443 240.250350411 266.000000727 c 4
 250.156786799 228.207470327 282.678534981 158.958984375 388 158.958984375 c 4
EndSplineSet
EndChar

StartChar: longs
Encoding: 383 383 155
Width: 407
Flags: W
HStem: 0 21G<55 237> 635.06 135.942<256.604 411.313>
VStem: 55 182<0 617.439>
LayerCount: 2
Fore
SplineSet
319.479492188 635.059570312 m 4
 257 635.059570312 237 605.670898438 237 555.001953125 c 6
 237 0 l 5
 55 0 l 5
 55 579.001953125 l 6
 55 724.858398438 132.454101562 771.001953125 278.479492188 771.001953125 c 4
 390.029296875 771.001953125 429.479492188 742.001953125 429.479492188 742.001953125 c 5
 408.479492188 618.001953125 l 5
 408.479492188 618.001953125 378.6484375 635.059570312 319.479492188 635.059570312 c 4
EndSplineSet
EndChar

StartChar: fraction
Encoding: 8260 8260 165
Width: 334
Flags: W
HStem: 0 21G<-150 14.2146> 711.008 20G<319.785 484>
LayerCount: 2
Fore
SplineSet
-150 0 m 5
 333 731.0078125 l 5
 484 731.0078125 l 5
 1 0 l 5
 -150 0 l 5
EndSplineSet
EndChar

StartChar: circumflex
Encoding: 710 710 168
Width: 383
Flags: W
HStem: 553 178.008
LayerCount: 2
Fore
SplineSet
124 553 m 1
 5 553 l 1
 125 731.0078125 l 1
 258 731.0078125 l 1
 378 553 l 1
 259 553 l 5
 191.5 623.739257812 l 1
 124 553 l 1
EndSplineSet
EndChar

StartChar: caron
Encoding: 711 711 169
Width: 383
Flags: W
HStem: 553 178.008
LayerCount: 2
Fore
SplineSet
259 731.0078125 m 5
 378 731.0078125 l 5
 258 553 l 5
 125 553 l 5
 5 731.0078125 l 5
 124 731.0078125 l 5
 191.5 660.268554688 l 5
 259 731.0078125 l 5
EndSplineSet
EndChar

StartChar: dotaccent
Encoding: 729 729 171
Width: 254
Flags: W
HStem: 550.992 188<61.2006 192.799>
VStem: 30 194<581.228 708.756>
LayerCount: 2
Fore
SplineSet
30 644.9921875 m 0
 30 702.436730018 67.7215336595 738.9921875 127 738.9921875 c 0
 186.278466341 738.9921875 224 702.436730018 224 644.9921875 c 0
 224 587.547644982 186.278466341 550.9921875 127 550.9921875 c 0
 67.7215336595 550.9921875 30 587.547644982 30 644.9921875 c 0
EndSplineSet
EndChar

StartChar: ring
Encoding: 730 730 172
Width: 393
Flags: W
HStem: 439.382 97.2695<160.301 232.31> 641.723 97.2695<160.301 232.31>
VStem: 35 117.129<543.109 634.923> 240.952 117.128<543.392 634.636>
LayerCount: 2
Fore
SplineSet
152.12890625 588.885742188 m 0
 152.12890625 560.249724169 164.682755524 536.651367188 196.040039062 536.651367188 c 4
 228.112308413 536.651367188 240.952148438 560.249724169 240.952148438 588.885742188 c 4
 240.952148438 617.852593589 228.112308413 641.72265625 196.040039062 641.72265625 c 4
 164.682755524 641.72265625 152.12890625 617.852593589 152.12890625 588.885742188 c 0
35 588.7421875 m 0
 35 671.582799332 85.2203288064 738.9921875 196.040039062 738.9921875 c 4
 307.547899364 738.9921875 358.080078125 671.582799332 358.080078125 588.7421875 c 4
 358.080078125 506.39261063 307.547899364 439.381835938 196.040039062 439.381835938 c 4
 85.2203288064 439.381835938 35 506.39261063 35 588.7421875 c 0
EndSplineSet
EndChar

StartChar: ogonek
Encoding: 731 731 173
Width: 357
Flags: W
HStem: -285.475 97.2803<170.871 288.326>
VStem: 35 128.029<-180.543 -82.1532>
LayerCount: 2
Fore
SplineSet
157.400390625 29.978515625 m 5
 264.100585938 29.978515625 l 5
 198.767994552 -45.7042607915 163.029296875 -97.7734720508 163.029296875 -137.524414062 c 0
 163.029296875 -159.91948013 172.455692833 -188.194335938 212.450195312 -188.194335938 c 0
 259.976857666 -188.194335938 292.350585938 -163.974609375 292.350585938 -163.974609375 c 1
 323.400390625 -248.125 l 1
 323.400390625 -248.125 281.821289062 -285.474609375 194.700195312 -285.474609375 c 0
 95.1103515628 -285.474609375 35 -254.23828125 35 -163.075195312 c 0
 35 -90.9626152046 79.6476741559 -37 157.400390625 29.978515625 c 5
EndSplineSet
EndChar

StartChar: tilde
Encoding: 732 732 174
Width: 436
VWidth: 999
Flags: W
HStem: 572.992 124<224.07 376.115> 615.992 123<49.842 211.309>
LayerCount: 2
Fore
SplineSet
421 616.9921875 m 1x80
 421 616.9921875 379.106375057 572.9921875 302 572.9921875 c 0x80
 231.296161358 572.9921875 187.80461238 615.9921875 134 615.9921875 c 4
 87.1538461538 615.9921875 50 586.9921875 50 586.9921875 c 1
 15 703.9921875 l 1
 15 703.9921875 62.4383370536 738.9921875 135 738.9921875 c 4x40
 204.709998498 738.9921875 253.17153696 696.9921875 303 696.9921875 c 0
 350.878787879 696.9921875 382 722.9921875 382 722.9921875 c 1
 421 616.9921875 l 1x80
EndSplineSet
EndChar

StartChar: breve
Encoding: 728 728 176
Width: 379
VWidth: 999
Flags: W
HStem: 577.992 125<104.597 274.801>
LayerCount: 2
Fore
SplineSet
190 577.9921875 m 4
 84.1809082031 577.9921875 15 654.9921875 15 654.9921875 c 1
 70 744.9921875 l 1
 70 744.9921875 123.076923077 702.9921875 190 702.9921875 c 4
 256.365384615 702.9921875 309 744.9921875 309 744.9921875 c 1
 364 654.9921875 l 1
 364 654.9921875 295.214411272 577.9921875 190 577.9921875 c 4
EndSplineSet
EndChar

StartChar: n.ss02
Encoding: 65539 -1 177
Width: 643
Flags: W
HStem: 0 21G<55 238 412 588> 382 149<238.304 383.759>
VStem: 55 183<0 366> 412 176<0 347.824>
LayerCount: 2
Fore
SplineSet
238 366 m 1
 238 0 l 1
 55 0 l 1
 55 488.010742188 l 1
 55 488.010742188 149.744855967 531 308 531 c 0
 503.907590759 531 588 439 588 297 c 2
 588 0 l 1
 412 0 l 1
 412 272 l 6
 412 349.23655914 379.129310345 382 319 382 c 0
 263.098591549 382 238 366 238 366 c 1
EndSplineSet
EndChar

StartChar: m.ss02
Encoding: 65538 -1 178
Width: 972
Flags: W
HStem: 0 21G<55 238 402 578 742 918> 385 145.934<238.304 401.719 571.977 714.962>
VStem: 55 183<0 366> 402 176<0 275.588> 742 176<0 359.787>
LayerCount: 2
Fore
SplineSet
742 0 m 1
 742 282 l 2
 742 355.763671875 712.606456537 385 656 385 c 4
 546.479338843 385 514 278 514 278 c 1
 422 382 l 1
 422 382 486.60795622 530.93359375 677 530.93359375 c 0
 834.144628367 530.93359375 918 445.930966777 918 303 c 2
 918 0 l 1
 742 0 l 1
238 366 m 1
 238 0 l 1
 55 0 l 1
 55 488.010742188 l 1
 55 488.010742188 149.744855967 531 308 531 c 0
 496.910891089 531 578 439 578 297 c 2
 578 0 l 1
 402 0 l 1
 402 272 l 2
 402 349.23655914 372.663793103 382 319 382 c 0
 263.098591549 382 238 366 238 366 c 1
EndSplineSet
EndChar

StartChar: r.ss02
Encoding: 65540 -1 179
Width: 448
Flags: W
HStem: 0 21G<55 238> 382 149<240.968 417.335>
VStem: 55 183<0 366>
LayerCount: 2
Fore
SplineSet
320 382 m 0
 263.408450704 382 238 366 238 366 c 1
 238 0 l 1
 55 0 l 1
 55 488.010742188 l 5
 55 488.010742188 146 531 298 531 c 0
 394.444444444 530.93359375 438 510 438 510 c 1
 414 361 l 1
 414 361 385.854256854 381 320 382 c 0
EndSplineSet
EndChar

StartChar: eng.ss02
Encoding: 65542 -1 180
Width: 643
Flags: W
HStem: -199.994 136.942<273.568 460.773> 0 21G<55 238> 382 149<238.304 383.759>
VStem: 55 183<0 366> 412 176<-46.0718 347.824>
LayerCount: 2
Fore
SplineSet
588 -13 m 2
 588 -137 525.545898438 -199.994140625 396 -199.994140625 c 0
 295 -199.994140625 260.520507812 -171.994140625 260.520507812 -171.994140625 c 1
 275.520507812 -49.994140625 l 1
 275.520507812 -49.994140625 298 -63.0517578125 339 -63.0517578125 c 0
 388.029850746 -63.0517578125 412 -38.3448174496 412 30 c 2
 412 272 l 2
 412 349 379.129310345 382 319 382 c 0
 263.098591549 382 238 366 238 366 c 1
 238 0 l 1
 55 0 l 1
 55 488.010742188 l 1
 55 488.010742188 149.744855967 531 308 531 c 0
 503.907590759 531 588 439 588 297 c 2
 588 -13 l 2
EndSplineSet
EndChar

StartChar: u.ss02
Encoding: 65541 -1 181
Width: 643
Flags: W
HStem: -10 149<259.241 404.696> 501 20G<55 231 405 588>
VStem: 55 176<173.176 521> 405 183<155 521>
LayerCount: 2
Fore
SplineSet
405 155 m 5
 405 521 l 5
 588 521 l 5
 588 32.9892578125 l 5
 588 32.9892578125 493.255144033 -10 335 -10 c 4
 139.092409241 -10 55 82 55 224 c 6
 55 521 l 5
 231 521 l 5
 231 249 l 6
 231 171.76344086 263.870689655 139 324 139 c 4
 379.901408451 139 405 155 405 155 c 5
EndSplineSet
EndChar

StartChar: NameMe.65543
Encoding: 65543 -1 182
Width: 643
Flags: W
HStem: -179.994 21G<55 231> -10 149<261.395 404.696> 501 20G<55 231 405 588>
VStem: 55 176<224 520.934> 95 136<82 521> 405 183<155 521>
LayerCount: 2
Fore
SplineSet
405 155 m 1xf4
 405 521 l 1
 588 521 l 1
 588 32.9892578125 l 1
 588 32.9892578125 493.255144033 -10 335 -10 c 4
 167.079207921 -10 95 82 95 224 c 2
 95 521 l 1
 231 521 l 1xec
 231 249 l 2
 231 171.76344086 263.870689655 139 324 139 c 0
 379.901408451 139 405 155 405 155 c 1xf4
55 -179.994140625 m 1xf4
 55 520.93359375 l 1
 231 520.93359375 l 1xf4
 231 -179.994140625 l 1xec
 55 -179.994140625 l 1xf4
EndSplineSet
EndChar

StartChar: zero.numr
Encoding: 65544 -1 183
Width: 475
HStem: 253 115<183.85 291.981> 639 115<183.85 291.981>
VStem: 20 129<405.6 600.74> 326 129<404.492 601.859>
LayerCount: 2
Fore
SplineSet
149 503 m 0
 149 429 171 368 238 368 c 4
 305 368 326 429 326 503 c 0
 326 577 305 639 238 639 c 4
 171 639 149 577 149 503 c 0
20 503 m 0
 20 641 88 754 238 754 c 0
 388 754 455 641 455 503 c 0
 455 365 388 253 238 253 c 0
 88 253 20 365 20 503 c 0
EndSplineSet
Substitution2: "Single Substitution lookup 5 subtable" zero.dnom
Substitution2: "Single Substitution lookup 6 subtable" zero.dnom
EndChar

StartChar: one.numr
Encoding: 65545 -1 184
Width: 315
VStem: 143 135<261 631>
LayerCount: 2
Fore
SplineSet
143 261 m 5
 143 631 l 5
 43 575 l 1
 3 670 l 1
 157 755 l 5
 278 755 l 5
 278 261 l 5
 143 261 l 5
EndSplineSet
Substitution2: "Single Substitution lookup 5 subtable" one.dnom
Substitution2: "Single Substitution lookup 6 subtable" one.dnom
EndChar

StartChar: two.numr
Encoding: 65546 -1 185
Width: 420
HStem: 261 108<200 397> 647 107<104.04 240.714>
VStem: 255 138<525.422 631.287>
LayerCount: 2
Fore
SplineSet
200 369 m 5
 397 369 l 1
 397 261 l 1
 26 261 l 1
 26 374 l 1
 162 457 255 510 255 585 c 0
 255 617 237 647 181 647 c 0
 115 647 67 600 67 600 c 1
 25 708 l 1
 25 708 80 754 196 754 c 0
 321 754 393 696 393 593 c 0
 393 476 315 426 200 369 c 5
EndSplineSet
Substitution2: "Single Substitution lookup 5 subtable" two.dnom
Substitution2: "Single Substitution lookup 6 subtable" two.dnom
EndChar

StartChar: three.numr
Encoding: 65547 -1 186
Width: 431
HStem: 253 108<104.993 263.393> 455 97<129 261.991> 646 108<106.924 260.19>
VStem: 271 137<369.88 447.289 561.229 633.975>
CounterMasks: 1 e0
LayerCount: 2
Fore
SplineSet
129 455 m 5
 129 552 l 5
 187 552 l 6
 236 552 267 556 267 596 c 4
 267 623 257 646 201 646 c 4
 130 646 69 605 69 605 c 5
 29 706 l 5
 29 706 86 754 205 754 c 4
 331 754 404 708 404 611 c 4
 404 528 331 502 331 502 c 5
 331 502 408 478 408 396 c 4
 408 299 334 253 207 253 c 4
 82 253 22 300 22 300 c 5
 64 405 l 5
 64 405 121 361 204 361 c 4
 261 361 271 384 271 411 c 4
 271 451 239 455 187 455 c 6
 129 455 l 5
EndSplineSet
Substitution2: "Single Substitution lookup 5 subtable" three.dnom
Substitution2: "Single Substitution lookup 6 subtable" three.dnom
EndChar

StartChar: four.numr
Encoding: 65548 -1 187
Width: 477
HStem: 364 100<144 460>
VStem: 260 129<261 611>
LayerCount: 2
Fore
SplineSet
260 261 m 1
 260 611 l 5
 144 464 l 1
 460 464 l 1
 460 364 l 1
 31 364 l 1
 13 461 l 1
 254 753 l 1
 389 753 l 1
 389 261 l 1
 260 261 l 1
EndSplineSet
Substitution2: "Single Substitution lookup 5 subtable" four.dnom
Substitution2: "Single Substitution lookup 6 subtable" four.dnom
EndChar

StartChar: five.numr
Encoding: 65549 -1 188
Width: 434
HStem: 253 108<111.399 262.937> 479 95<173.321 260.549> 639 109<184 386>
VStem: 274 137<372.843 465.562>
LayerCount: 2
Fore
SplineSet
173 561 m 1
 173 561 194 574 250 574 c 0
 350 574 411 530 411 418 c 0
 411 303 334 253 207 253 c 0
 82 253 22 306 22 306 c 1
 64 411 l 1
 64 411 121 361 204 361 c 0
 261 361 274 389 274 421 c 0
 274 460 246 479 201 479 c 4
 151 479 126 455 126 455 c 1
 46 508 l 1
 79 748 l 1
 386 748 l 1
 386 639 l 1
 184 639 l 1
 173 561 l 1
EndSplineSet
Substitution2: "Single Substitution lookup 5 subtable" five.dnom
Substitution2: "Single Substitution lookup 6 subtable" five.dnom
EndChar

StartChar: six.numr
Encoding: 65550 -1 189
Width: 445
HStem: 253 106<169.788 281.891> 491 95<179.861 280.975> 641 113<244.65 356>
VStem: 23 132<375.4 473.924> 297 125<375.249 475.377>
LayerCount: 2
Fore
SplineSet
356 754 m 1
 368 641 l 1
 186 634 177 562 177 562 c 1
 177 562 200 586 260 586 c 0
 368 586 422 521 422 424 c 0
 422 327 362 253 230 253 c 0
 106 253 23 322 23 465 c 0
 23 616 115 749 356 754 c 1
155 425 m 4
 155 389 176 359 226 359 c 4
 276 359 297 389 297 425 c 4
 297 461 276 491 226 491 c 4
 176 491 155 461 155 425 c 4
EndSplineSet
Substitution2: "Single Substitution lookup 5 subtable" six.dnom
Substitution2: "Single Substitution lookup 6 subtable" six.dnom
EndChar

StartChar: seven.numr
Encoding: 65551 -1 190
Width: 412
HStem: 640 108<23 238>
LayerCount: 2
Fore
SplineSet
23 748 m 5
 389 748 l 5
 389 667 l 5
 199 261 l 5
 54 261 l 5
 238 640 l 5
 23 640 l 5
 23 748 l 5
EndSplineSet
Substitution2: "Single Substitution lookup 5 subtable" seven.dnom
Substitution2: "Single Substitution lookup 6 subtable" seven.dnom
EndChar

StartChar: eight.numr
Encoding: 65552 -1 191
Width: 454
HStem: 253 102<165.589 288.411> 466 91<191 267> 495 41<107 351> 650 104<175.783 281.748>
VStem: 23 128<370.127 451.463> 42 125<567.005 641.032> 291 125<567.337 641.032> 303 128<370.127 451.463>
LayerCount: 2
Fore
SplineSet
228 557 m 0xd6
 267 557 291 575 291 604 c 0
 291 633 268 650 228 650 c 0
 190 650 167 633 167 604 c 0
 167 575 191 557 228 557 c 0xd6
228 754 m 0
 346 754 416 702 416 618 c 0
 416 538 351 495 228 495 c 0xb6
 107 495 42 538 42 618 c 0
 42 702 113 754 228 754 c 0
227 355 m 0
 276 355 303 377 303 411 c 0
 303 443 276 466 227 466 c 0
 178 466 151 443 151 411 c 0xd9
 151 377 178 355 227 355 c 0
227 536 m 4xb9
 359 536 431 489 431 405 c 0
 431 309 351 253 227 253 c 0
 103 253 23 309 23 405 c 0
 23 489 95 536 227 536 c 4xb9
EndSplineSet
Substitution2: "Single Substitution lookup 5 subtable" eight.dnom
Substitution2: "Single Substitution lookup 6 subtable" eight.dnom
EndChar

StartChar: nine.numr
Encoding: 65553 -1 192
Width: 445
HStem: 253 111<103 209.716> 417 97<161.389 270.026> 646 108<162.808 273.063>
VStem: 23 123<529.882 630.751> 290 132<478.38 630.6>
LayerCount: 2
Fore
SplineSet
103 253 m 5
 91 364 l 5
 271 371 280 447 280 447 c 1
 280 447 255 417 186 417 c 0
 78 417 23 483 23 583 c 0
 23 680 84 754 216 754 c 0
 340 754 422 685 422 542 c 0
 422 391 334 258 103 253 c 5
290 580 m 0
 290 616 269 646 218 646 c 0
 168 646 146 616 146 580 c 0
 146 544 168 514 218 514 c 0
 269 514 290 544 290 580 c 0
EndSplineSet
Substitution2: "Single Substitution lookup 5 subtable" nine.dnom
Substitution2: "Single Substitution lookup 6 subtable" nine.dnom
EndChar

StartChar: zero.dnom
Encoding: 65554 -1 193
Width: 475
HStem: -8 115<183.85 291.981> 378 115<183.85 291.981>
VStem: 20 129<144.6 339.74> 326 129<143.492 340.859>
LayerCount: 2
Fore
SplineSet
149 242 m 0
 149 168 171 107 238 107 c 4
 305 107 326 168 326 242 c 0
 326 316 305 378 238 378 c 4
 171 378 149 316 149 242 c 0
20 242 m 0
 20 380 88 493 238 493 c 0
 388 493 455 380 455 242 c 0
 455 104 388 -8 238 -8 c 0
 88 -8 20 104 20 242 c 0
EndSplineSet
EndChar

StartChar: one.dnom
Encoding: 65555 -1 194
Width: 315
HStem: 0 21G<143 278>
VStem: 143 135<0 359>
LayerCount: 2
Fore
SplineSet
143 0 m 5
 143 359 l 5
 43 305 l 1
 3 397 l 1
 157 487 l 5
 278 487 l 5
 278 0 l 5
 143 0 l 5
EndSplineSet
EndChar

StartChar: two.dnom
Encoding: 65556 -1 195
Width: 420
HStem: 0 108<200 397> 386 107<104.04 240.714>
VStem: 255 138<264.422 370.287>
LayerCount: 2
Fore
SplineSet
200 108 m 5
 397 108 l 1
 397 0 l 1
 26 0 l 1
 26 113 l 1
 162 196 255 249 255 324 c 0
 255 356 237 386 181 386 c 0
 115 386 67 339 67 339 c 1
 25 447 l 1
 25 447 80 493 196 493 c 0
 321 493 393 435 393 332 c 0
 393 215 315 165 200 108 c 5
EndSplineSet
EndChar

StartChar: three.dnom
Encoding: 65557 -1 196
Width: 431
HStem: -8 108<104.993 263.393> 194 97<129 261.991> 385 108<106.924 260.19>
VStem: 271 137<108.88 186.289 300.229 372.975>
CounterMasks: 1 e0
LayerCount: 2
Fore
SplineSet
129 194 m 5
 129 291 l 5
 187 291 l 6
 236 291 267 295 267 335 c 4
 267 362 257 385 201 385 c 4
 130 385 69 344 69 344 c 5
 29 445 l 5
 29 445 86 493 205 493 c 4
 331 493 404 447 404 350 c 4
 404 267 331 241 331 241 c 5
 331 241 408 217 408 135 c 4
 408 38 334 -8 207 -8 c 4
 82 -8 22 39 22 39 c 5
 64 144 l 5
 64 144 121 100 204 100 c 4
 261 100 271 123 271 150 c 4
 271 190 239 194 187 194 c 6
 129 194 l 5
EndSplineSet
EndChar

StartChar: four.dnom
Encoding: 65558 -1 197
Width: 477
HStem: 0 21G<260 389> 101 101<144 460>
VStem: 260 129<0 343>
LayerCount: 2
Fore
SplineSet
260 0 m 1
 260 343 l 5
 144 202 l 1
 460 202 l 1
 460 101 l 1
 31 101 l 1
 13 199 l 1
 254 487 l 1
 389 487 l 1
 389 0 l 1
 260 0 l 1
EndSplineSet
EndChar

StartChar: five.dnom
Encoding: 65559 -1 198
Width: 434
HStem: -7 107<111.399 262.937> 219 94<173.321 260.549> 379 108<184 386>
VStem: 274 137<112.039 205.244>
LayerCount: 2
Fore
SplineSet
173 300 m 1
 173 300 194 313 250 313 c 0
 350 313 411 269 411 157 c 0
 411 42 334 -7 207 -7 c 0
 82 -7 22 46 22 46 c 1
 64 151 l 1
 64 151 121 100 204 100 c 0
 261 100 274 129 274 161 c 0
 274 201 246 219 201 219 c 4
 151 219 126 194 126 194 c 1
 46 248 l 1
 79 487 l 1
 386 487 l 1
 386 379 l 1
 184 379 l 1
 173 300 l 1
EndSplineSet
EndChar

StartChar: six.dnom
Encoding: 65560 -1 199
Width: 445
HStem: -8 106<169.788 281.891> 230 95<179.861 280.975> 380 113<244.65 356>
VStem: 23 132<114.4 212.924> 297 125<114.249 214.377>
LayerCount: 2
Fore
SplineSet
356 493 m 1
 368 380 l 1
 186 373 177 301 177 301 c 1
 177 301 200 325 260 325 c 0
 368 325 422 260 422 163 c 0
 422 66 362 -8 230 -8 c 0
 106 -8 23 61 23 204 c 0
 23 355 115 488 356 493 c 1
155 164 m 4
 155 128 176 98 226 98 c 4
 276 98 297 128 297 164 c 4
 297 200 276 230 226 230 c 4
 176 230 155 200 155 164 c 4
EndSplineSet
EndChar

StartChar: seven.dnom
Encoding: 65561 -1 200
Width: 412
HStem: 0 21G<54 208.36> 379 108<23 238>
LayerCount: 2
Fore
SplineSet
23 487 m 5
 389 487 l 5
 389 406 l 5
 199 0 l 5
 54 0 l 5
 238 379 l 5
 23 379 l 5
 23 487 l 5
EndSplineSet
EndChar

StartChar: eight.dnom
Encoding: 65562 -1 201
Width: 454
HStem: -8 102<165.589 288.411> 205 91<191 267> 234 41<107 351> 389 104<175.783 281.748>
VStem: 23 128<109.127 190.463> 42 125<306.005 380.032> 291 125<306.337 380.032> 303 128<109.127 190.463>
LayerCount: 2
Fore
SplineSet
228 296 m 0xd6
 267 296 291 314 291 343 c 0
 291 372 268 389 228 389 c 0
 190 389 167 372 167 343 c 0
 167 314 191 296 228 296 c 0xd6
228 493 m 0
 346 493 416 441 416 357 c 0
 416 277 351 234 228 234 c 0xb6
 107 234 42 277 42 357 c 0
 42 441 113 493 228 493 c 0
227 94 m 0
 276 94 303 116 303 150 c 0
 303 182 276 205 227 205 c 0
 178 205 151 182 151 150 c 0xd9
 151 116 178 94 227 94 c 0
227 275 m 4xb9
 359 275 431 228 431 144 c 0
 431 48 351 -8 227 -8 c 0
 103 -8 23 48 23 144 c 0
 23 228 95 275 227 275 c 4xb9
EndSplineSet
EndChar

StartChar: nine.dnom
Encoding: 65563 -1 202
Width: 445
HStem: -8 111<103 209.716> 156 97<161.389 270.026> 385 108<162.808 273.063>
VStem: 23 123<268.882 369.751> 290 132<217.38 369.6>
LayerCount: 2
Fore
SplineSet
103 -8 m 5
 91 103 l 5
 271 110 280 186 280 186 c 1
 280 186 255 156 186 156 c 0
 78 156 23 222 23 322 c 0
 23 419 84 493 216 493 c 0
 340 493 422 424 422 281 c 0
 422 130 334 -3 103 -8 c 5
290 319 m 0
 290 355 269 385 218 385 c 0
 168 385 146 355 146 319 c 0
 146 283 168 253 218 253 c 0
 269 253 290 283 290 319 c 0
EndSplineSet
EndChar

StartChar: zero.inferior
Encoding: 8320 8320 203
Width: 475
HStem: -358 115<183.85 291.981> 28 115<183.85 291.981>
VStem: 20 129<-205.4 -10.2597> 326 129<-206.508 -9.1409>
LayerCount: 2
Fore
SplineSet
149 -108 m 0
 149 -182 171 -243 238 -243 c 4
 305 -243 326 -182 326 -108 c 0
 326 -34 305 28 238 28 c 4
 171 28 149 -34 149 -108 c 0
20 -108 m 0
 20 30 88 143 238 143 c 0
 388 143 455 30 455 -108 c 0
 455 -246 388 -358 238 -358 c 0
 88 -358 20 -246 20 -108 c 0
EndSplineSet
EndChar

StartChar: one.inferior
Encoding: 8321 8321 204
Width: 315
VStem: 143 135<-350 9>
LayerCount: 2
Fore
SplineSet
143 -350 m 5
 143 9 l 5
 43 -45 l 1
 3 47 l 1
 157 137 l 5
 278 137 l 5
 278 -350 l 5
 143 -350 l 5
EndSplineSet
EndChar

StartChar: two.inferior
Encoding: 8322 8322 205
Width: 420
HStem: -350 108<200 397> 36 107<104.04 240.714>
VStem: 255 138<-85.5775 20.2873>
LayerCount: 2
Fore
SplineSet
200 -242 m 5
 397 -242 l 1
 397 -350 l 1
 26 -350 l 1
 26 -237 l 1
 162 -154 255 -101 255 -26 c 0
 255 6 237 36 181 36 c 0
 115 36 67 -11 67 -11 c 1
 25 97 l 1
 25 97 80 143 196 143 c 0
 321 143 393 85 393 -18 c 0
 393 -135 315 -185 200 -242 c 5
EndSplineSet
EndChar

StartChar: three.inferior
Encoding: 8323 8323 206
Width: 431
HStem: -358 108<104.993 263.393> -156 97<129 261.991> 35 108<106.924 260.19>
VStem: 271 137<-241.12 -163.711 -49.7713 22.9745>
CounterMasks: 1 e0
LayerCount: 2
Fore
SplineSet
129 -156 m 5
 129 -59 l 5
 187 -59 l 6
 236 -59 267 -55 267 -15 c 4
 267 12 257 35 201 35 c 4
 130 35 69 -6 69 -6 c 5
 29 95 l 5
 29 95 86 143 205 143 c 4
 331 143 404 97 404 -0 c 4
 404 -83 331 -109 331 -109 c 5
 331 -109 408 -133 408 -215 c 4
 408 -312 334 -358 207 -358 c 4
 82 -358 22 -311 22 -311 c 5
 64 -206 l 5
 64 -206 121 -250 204 -250 c 4
 261 -250 271 -227 271 -200 c 4
 271 -160 239 -156 187 -156 c 6
 129 -156 l 5
EndSplineSet
EndChar

StartChar: four.inferior
Encoding: 8324 8324 207
Width: 477
HStem: -249 101<144 460>
VStem: 260 129<-350 -7>
LayerCount: 2
Fore
SplineSet
260 -350 m 1
 260 -7 l 5
 144 -148 l 1
 460 -148 l 1
 460 -249 l 1
 31 -249 l 1
 13 -151 l 1
 254 137 l 1
 389 137 l 1
 389 -350 l 1
 260 -350 l 1
EndSplineSet
EndChar

StartChar: five.inferior
Encoding: 8325 8325 208
Width: 434
HStem: -357 107<111.399 262.937> -131 94<173.321 260.549> 29 108<184 386>
VStem: 274 137<-237.961 -144.756>
LayerCount: 2
Fore
SplineSet
173 -50 m 1
 173 -50 194 -37 250 -37 c 0
 350 -37 411 -81 411 -193 c 0
 411 -308 334 -357 207 -357 c 0
 82 -357 22 -304 22 -304 c 1
 64 -199 l 1
 64 -199 121 -250 204 -250 c 0
 261 -250 274 -221 274 -189 c 0
 274 -149 246 -131 201 -131 c 0
 151 -131 126 -156 126 -156 c 1
 46 -102 l 1
 79 137 l 1
 386 137 l 1
 386 29 l 1
 184 29 l 1
 173 -50 l 1
EndSplineSet
EndChar

StartChar: six.inferior
Encoding: 8326 8326 209
Width: 445
HStem: -358 106<169.788 281.891> -120 95<179.861 280.975> 30 113<244.65 356>
VStem: 23 132<-235.6 -137.076> 297 125<-235.751 -135.623>
LayerCount: 2
Fore
SplineSet
356 143 m 1
 368 30 l 1
 186 23 177 -49 177 -49 c 1
 177 -49 200 -25 260 -25 c 0
 368 -25 422 -90 422 -187 c 0
 422 -284 362 -358 230 -358 c 0
 106 -358 23 -289 23 -146 c 0
 23 5 115 138 356 143 c 1
155 -186 m 4
 155 -222 176 -252 226 -252 c 4
 276 -252 297 -222 297 -186 c 4
 297 -150 276 -120 226 -120 c 4
 176 -120 155 -150 155 -186 c 4
EndSplineSet
EndChar

StartChar: seven.inferior
Encoding: 8327 8327 210
Width: 412
HStem: 29 108<23 238>
LayerCount: 2
Fore
SplineSet
23 137 m 5
 389 137 l 5
 389 56 l 5
 199 -350 l 5
 54 -350 l 5
 238 29 l 5
 23 29 l 5
 23 137 l 5
EndSplineSet
EndChar

StartChar: eight.inferior
Encoding: 8328 8328 211
Width: 454
HStem: -358 102<165.589 288.411> -145 91<191 267> -116 41<107 351> 39 104<175.783 281.748>
VStem: 23 128<-240.873 -159.537> 42 125<-43.995 30.0316> 291 125<-43.6628 30.0316> 303 128<-240.873 -159.537>
LayerCount: 2
Fore
SplineSet
228 -54 m 0xd6
 267 -54 291 -36 291 -7 c 0
 291 22 268 39 228 39 c 0
 190 39 167 22 167 -7 c 0
 167 -36 191 -54 228 -54 c 0xd6
228 143 m 0
 346 143 416 91 416 7 c 0
 416 -73 351 -116 228 -116 c 0xb6
 107 -116 42 -73 42 7 c 0
 42 91 113 143 228 143 c 0
227 -256 m 0
 276 -256 303 -234 303 -200 c 0
 303 -168 276 -145 227 -145 c 0
 178 -145 151 -168 151 -200 c 0xd9
 151 -234 178 -256 227 -256 c 0
227 -75 m 4xb9
 359 -75 431 -122 431 -206 c 0
 431 -302 351 -358 227 -358 c 0
 103 -358 23 -302 23 -206 c 0
 23 -122 95 -75 227 -75 c 4xb9
EndSplineSet
EndChar

StartChar: nine.inferior
Encoding: 8329 8329 212
Width: 445
HStem: -358 111<103 209.716> -194 97<161.389 270.026> 35 108<162.808 273.063>
VStem: 23 123<-81.1182 19.7508> 290 132<-132.62 19.5998>
LayerCount: 2
Fore
SplineSet
103 -358 m 5
 91 -247 l 5
 271 -240 280 -164 280 -164 c 1
 280 -164 255 -194 186 -194 c 0
 78 -194 23 -128 23 -28 c 0
 23 69 84 143 216 143 c 0
 340 143 422 74 422 -69 c 0
 422 -220 334 -353 103 -358 c 5
290 -31 m 0
 290 5 269 35 218 35 c 0
 168 35 146 5 146 -31 c 0
 146 -67 168 -97 218 -97 c 0
 269 -97 290 -67 290 -31 c 0
EndSplineSet
EndChar

StartChar: zero.superior
Encoding: 8304 8304 213
Width: 475
HStem: 342 115<183.85 291.981> 728 115<183.85 291.981>
VStem: 20 129<494.6 689.74> 326 129<493.492 690.859>
LayerCount: 2
Fore
SplineSet
149 592 m 0
 149 518 171 457 238 457 c 4
 305 457 326 518 326 592 c 0
 326 666 305 728 238 728 c 4
 171 728 149 666 149 592 c 0
20 592 m 0
 20 730 88 843 238 843 c 0
 388 843 455 730 455 592 c 0
 455 454 388 342 238 342 c 0
 88 342 20 454 20 592 c 0
EndSplineSet
EndChar

StartChar: one.superior
Encoding: 185 185 214
Width: 315
VStem: 143 135<350 709>
LayerCount: 2
Fore
SplineSet
143 350 m 5
 143 709 l 5
 43 655 l 1
 3 747 l 1
 157 837 l 5
 278 837 l 5
 278 350 l 5
 143 350 l 5
EndSplineSet
EndChar

StartChar: two.superior
Encoding: 178 178 215
Width: 420
HStem: 350 108<200 397> 736 107<104.04 240.714>
VStem: 255 138<614.422 720.287>
LayerCount: 2
Fore
SplineSet
200 458 m 5
 397 458 l 1
 397 350 l 1
 26 350 l 1
 26 463 l 1
 162 546 255 599 255 674 c 0
 255 706 237 736 181 736 c 0
 115 736 67 689 67 689 c 1
 25 797 l 1
 25 797 80 843 196 843 c 0
 321 843 393 785 393 682 c 0
 393 565 315 515 200 458 c 5
EndSplineSet
EndChar

StartChar: three.superior
Encoding: 179 179 216
Width: 431
HStem: 342 108<104.993 263.393> 544 97<129 261.991> 735 108<106.924 260.19>
VStem: 271 137<458.88 536.289 650.229 722.975>
CounterMasks: 1 e0
LayerCount: 2
Fore
SplineSet
129 544 m 5
 129 641 l 5
 187 641 l 6
 236 641 267 645 267 685 c 4
 267 712 257 735 201 735 c 4
 130 735 69 694 69 694 c 5
 29 795 l 5
 29 795 86 843 205 843 c 4
 331 843 404 797 404 700 c 4
 404 617 331 591 331 591 c 5
 331 591 408 567 408 485 c 4
 408 388 334 342 207 342 c 4
 82 342 22 389 22 389 c 5
 64 494 l 5
 64 494 121 450 204 450 c 4
 261 450 271 473 271 500 c 4
 271 540 239 544 187 544 c 6
 129 544 l 5
EndSplineSet
EndChar

StartChar: four.superior
Encoding: 8308 8308 217
Width: 477
HStem: 451 101<144 460>
VStem: 260 129<350 693>
LayerCount: 2
Fore
SplineSet
260 350 m 1
 260 693 l 5
 144 552 l 1
 460 552 l 1
 460 451 l 1
 31 451 l 1
 13 549 l 1
 254 837 l 1
 389 837 l 1
 389 350 l 1
 260 350 l 1
EndSplineSet
EndChar

StartChar: six.superior
Encoding: 8310 8310 218
Width: 445
HStem: 342 106<169.788 281.891> 580 95<179.861 280.975> 730 113<244.65 356>
VStem: 23 132<464.4 562.924> 297 125<464.249 564.377>
LayerCount: 2
Fore
SplineSet
356 843 m 1
 368 730 l 1
 186 723 177 651 177 651 c 1
 177 651 200 675 260 675 c 0
 368 675 422 610 422 513 c 0
 422 416 362 342 230 342 c 0
 106 342 23 411 23 554 c 0
 23 705 115 838 356 843 c 1
155 514 m 4
 155 478 176 448 226 448 c 4
 276 448 297 478 297 514 c 4
 297 550 276 580 226 580 c 4
 176 580 155 550 155 514 c 4
EndSplineSet
EndChar

StartChar: seven.superior
Encoding: 8311 8311 219
Width: 412
HStem: 729 108<23 238>
LayerCount: 2
Fore
SplineSet
23 837 m 5
 389 837 l 5
 389 756 l 5
 199 350 l 5
 54 350 l 5
 238 729 l 5
 23 729 l 5
 23 837 l 5
EndSplineSet
EndChar

StartChar: eight.superior
Encoding: 8312 8312 220
Width: 454
HStem: 342 102<165.589 288.411> 555 91<191 267> 584 41<107 351> 739 104<175.783 281.748>
VStem: 23 128<459.127 540.463> 42 125<656.005 730.032> 291 125<656.337 730.032> 303 128<459.127 540.463>
LayerCount: 2
Fore
SplineSet
228 646 m 0xd6
 267 646 291 664 291 693 c 0
 291 722 268 739 228 739 c 0
 190 739 167 722 167 693 c 0
 167 664 191 646 228 646 c 0xd6
228 843 m 0
 346 843 416 791 416 707 c 0
 416 627 351 584 228 584 c 0xb6
 107 584 42 627 42 707 c 0
 42 791 113 843 228 843 c 0
227 444 m 0
 276 444 303 466 303 500 c 0
 303 532 276 555 227 555 c 0
 178 555 151 532 151 500 c 0xd9
 151 466 178 444 227 444 c 0
227 625 m 4xb9
 359 625 431 578 431 494 c 0
 431 398 351 342 227 342 c 0
 103 342 23 398 23 494 c 0
 23 578 95 625 227 625 c 4xb9
EndSplineSet
EndChar

StartChar: nine.superior
Encoding: 8313 8313 221
Width: 445
HStem: 342 111<103 209.716> 506 97<161.389 270.026> 735 108<162.808 273.063>
VStem: 23 123<618.882 719.751> 290 132<567.38 719.6>
LayerCount: 2
Fore
SplineSet
103 342 m 5
 91 453 l 5
 271 460 280 536 280 536 c 1
 280 536 255 506 186 506 c 0
 78 506 23 572 23 672 c 0
 23 769 84 843 216 843 c 0
 340 843 422 774 422 631 c 0
 422 480 334 347 103 342 c 5
290 669 m 0
 290 705 269 735 218 735 c 0
 168 735 146 705 146 669 c 0
 146 633 168 603 218 603 c 0
 269 603 290 633 290 669 c 0
EndSplineSet
EndChar

StartChar: uni2075
Encoding: 8309 8309 222
Width: 434
Flags: W
HStem: 343 107<111.399 262.937> 569 94<173.321 260.549> 729 108<184 386>
VStem: 274 137<462.039 555.244>
LayerCount: 2
Fore
SplineSet
173 650 m 1
 173 650 194 663 250 663 c 0
 350 663 411 619 411 507 c 0
 411 392 334 343 207 343 c 0
 82 343 22 396 22 396 c 1
 64 501 l 1
 64 501 121 450 204 450 c 0
 261 450 274 479 274 511 c 0
 274 551 246 569 201 569 c 0
 151 569 126 544 126 544 c 1
 46 598 l 1
 79 837 l 1
 386 837 l 1
 386 729 l 1
 184 729 l 1
 173 650 l 1
EndSplineSet
EndChar

StartChar: germandbls.ss04
Encoding: 65564 -1 223
Width: 783
Flags: W
HStem: -10 127.99<402.715 563.369> 0 21G<55 237> 402.943 127.99<428.805 600.2> 630.06 140.942<300.153 511.968>
VStem: 55 182<0 566.236> 308 180.74<336.563 395.872> 568.26 178.74<125.623 186.327>
LayerCount: 2
Fore
SplineSet
408 630.059570312 m 4xbe
 270 630.059570312 237 577 237 445 c 6
 237 0 l 5
 55 0 l 5x7e
 55 474 l 6
 55 692 183 771.001953125 398 771.001953125 c 4
 671 771.001953125 747 629 747 484.93359375 c 5
 693 366.93359375 l 5
 693 366.93359375 647 402.943359375 550.115234375 402.943359375 c 4
 506.805664062 402.943359375 488.740234375 389.865234375 488.740234375 366 c 4
 488.740234375 279.986328125 747 358.495117188 747 150 c 4
 747 47.556640625 667 -10 524 -10 c 4
 373 -10 290 45 290 45 c 5
 337 173 l 5
 337 173 414 117.990234375 508 117.990234375 c 4
 542.194335938 117.990234375 568.259765625 128.068359375 568.259765625 156 c 4
 568.259765625 240.077148438 308 156.168945312 308 366.93359375 c 4
 308 469.376953125 365.80104712 530.93359375 492 530.93359375 c 4
 534.404687731 530.93359375 553.413085938 526.982421875 553.413085938 526.982421875 c 5
 548.596253025 603.831257495 502.172863555 630.059570312 408 630.059570312 c 4xbe
EndSplineSet
EndChar

StartChar: uni1E9E
Encoding: 7838 7838 224
Width: 783
Flags: W
HStem: -10 150.124<359.98 532.071> 0 21G<55 258> 577.008 162<308.894 473.357>
VStem: 55 203<0 526.836> 562 196<168.483 277.76>
LayerCount: 2
Fore
SplineSet
55 458 m 2x78
 55 655.698996449 154.130257877 739.0078125 410 739.0078125 c 0
 600.507692308 739.0078125 715 721.0078125 715 721.0078125 c 1
 715 631.0078125 l 1
 575 425 l 1
 640.424870466 425 758 387 758 218 c 0
 758 64 657.43902439 -10 492 -10 c 0
 371.708914203 -10 319 24 319 24 c 1
 350 167 l 5
 350 167 391.625052309 140.124023438 461.015625 140.124023438 c 4xb8
 522.518681631 140.124023438 562 168.012543333 562 224 c 4
 562 281.329896907 523.574468085 307 433 307 c 2
 361 307 l 1
 361 399 l 1
 477 572.0078125 l 1
 477 572.0078125 453.75 577.0078125 405 577.0078125 c 0
 293.231404959 577.0078125 258 534.399888393 258 435.0078125 c 2
 258 0 l 1
 55 0 l 1
 55 458 l 2x78
EndSplineSet
EndChar

StartChar: uni20B5
Encoding: 8373 8373 225
Width: 669
Flags: W
HStem: -9.99805 109.998<315 484> 521.285 21G<586.758 593.557> 638 101<333 502>
VStem: 30 205.62<259.095 469.755> 315 169<-113 100> 333 169<638 845.472>
LayerCount: 2
Fore
SplineSet
333 638 m 5xf4
 333 845.471679688 l 5
 502 845.471679688 l 5
 502 638 l 5
 333 638 l 5xf4
315 100 m 5xf8
 484 100 l 5
 484 -113 l 5
 315 -113 l 5
 315 100 l 5xf8
235.620117188 364.833984375 m 0
 235.620117188 254.08203125 283.6953125 163.958984375 433 163.958984375 c 0
 542.708984375 163.958984375 596.7578125 205.716796875 596.7578125 205.716796875 c 1
 642.634765625 42.3544921875 l 1
 642.634765625 42.3544921875 575.8515625 -9.998046875 415 -9.998046875 c 0
 145.6015625 -9.998046875 30 157.243164062 30 364 c 0
 30 570.756835938 145.6015625 739 415 739 c 0
 575.8515625 739 642.634765625 685.647460938 642.634765625 685.647460938 c 1
 586.7578125 521.28515625 l 1
 586.7578125 521.28515625 536.4296875 565.04296875 433 565.04296875 c 0
 283.6953125 565.04296875 235.620117188 475.921875 235.620117188 364.833984375 c 0
EndSplineSet
EndChar

StartChar: uni20B2
Encoding: 8370 8370 226
Width: 759
Flags: W
HStem: -10 110<315 484> 521.285 21G<606.758 613.557> 638 101<333 502>
VStem: 30 205.62<254.632 469.755> 315 169<-113 100> 333 169<638 845.472> 517 187<172.957 389>
LayerCount: 2
Fore
SplineSet
415 -10 m 0xf2
 145.6015625 -9.998046875 30 157.243164062 30 364 c 0
 30 570.756835938 145.6015625 739 415 739 c 0
 589.983987489 739 662.634765625 685.647460938 662.634765625 685.647460938 c 1
 606.7578125 521.28515625 l 1
 606.7578125 521.28515625 549.883272176 565.04296875 433 565.04296875 c 0
 283.6953125 565.04296875 235.620117188 475.921875 235.620117188 364.833984375 c 0
 235.620117188 254.08203125 281.296109814 163.958984375 426 161.95703125 c 0
 484.627655697 161.95703125 517 172.95703125 517 172.95703125 c 1
 517 389 l 1
 704 389 l 1
 704 38 l 1
 704 38 612.684210526 -10 415 -10 c 0xf2
333 638 m 1xf6
 333 845.471679688 l 1
 502 845.471679688 l 1
 502 638 l 1
 333 638 l 1xf6
315 100 m 1xfa
 484 100 l 1
 484 -113 l 1
 315 -113 l 1
 315 100 l 1xfa
EndSplineSet
EndChar

StartChar: uni20BF
Encoding: 8383 8383 227
Width: 710
Flags: W
HStem: -113 213<185 314 375 504> -9.99805 154.957<260.919 461.618> 296.571 133.76<220.991 444.144> 584.043 154.957<258.644 438.319> 638 207.472<203 332 393 522>
VStem: 185 129<-113 100> 203 129<638 845.472> 220.991 37.0088<296.571 430.331> 375 129<-113 100> 393 129<638 845.472> 465.38 194.62<453.036 556.807> 484.38 195.62<169.191 273.06>
LayerCount: 2
Fore
SplineSet
393 638 m 5x2840
 393 845.471679688 l 5
 522 845.471679688 l 5
 522 638 l 5
 393 638 l 5x2840
375 100 m 5xa080
 504 100 l 5
 504 -113 l 5
 375 -113 l 5
 375 100 l 5xa080
203 638 m 5x2a
 203 845.471679688 l 5
 332 845.471679688 l 5
 332 638 l 5
 203 638 l 5x2a
185 100 m 5xa4
 314 100 l 5
 314 -113 l 5
 185 -113 l 5
 185 100 l 5xa4
EndSplineSet
Refer: 21 66 N 1 0 0 1 0 0 2
EndChar

StartChar: uni2116
Encoding: 8470 8470 228
Width: 1328
Flags: W
HStem: 0 21G<55 244 524.897 748> 141 114<849 1281> 298.002 135.778<1011.08 1120.36> 603.22 135.714<1010.41 1121.01> 711.008 20G<55 278.103 559 748>
VStem: 55 189<0 418.359> 559 189<312.648 731.008> 833 153.54<457.898 580.733> 1144.46 153.54<457.898 580.733>
LayerCount: 2
Fore
SplineSet
849 141 m 5xe780
 849 255 l 5
 1281 255 l 5
 1281 141 l 5
 849 141 l 5xe780
986.540039062 520.900390625 m 0
 986.540039062 473.055551522 1011.74729615 433.780273438 1065.98046875 433.780273438 c 0
 1119.31583333 433.780273438 1144.45996094 473.055551522 1144.45996094 520.900390625 c 0
 1144.45996094 565.929636386 1119.31583333 603.219726562 1065.98046875 603.219726562 c 0xf780
 1011.74729615 603.219726562 986.540039062 565.929636386 986.540039062 520.900390625 c 0
833 520 m 0
 833 640.483913606 914.080288621 738.93359375 1066 738.93359375 c 0
 1216.97096631 738.93359375 1298 640.483913606 1298 520 c 0
 1298 397.573727408 1216.97096631 298.001953125 1066 298.001953125 c 0
 914.080288621 298.001953125 833 397.573727408 833 520 c 0
EndSplineSet
Refer: 14 78 N 1 0 0 1 0 0 2
EndChar

StartChar: arrowleft
Encoding: 8592 8592 229
Width: 600
Flags: W
HStem: 292 146<135 575>
LayerCount: 2
Fore
SplineSet
575 292 m 1
 135 292 l 1
 135 438 l 1
 575 438 l 1
 575 292 l 1
5 365 m 1
 195 611.0078125 l 1
 378 611.0078125 l 1
 188 365.0078125 l 1
 378 120 l 1
 195 120 l 1
 5 365 l 1
EndSplineSet
EndChar

StartChar: minus
Encoding: 8722 8722 230
Width: 500
Flags: W
HStem: 285 146<30 470>
LayerCount: 2
Fore
SplineSet
470 285 m 5
 30 285 l 5
 30 431 l 5
 470 431 l 5
 470 285 l 5
EndSplineSet
EndChar

StartChar: minute
Encoding: 8242 8242 234
Width: 299
Flags: W
HStem: 403 328.008<101 158>
VStem: 5 289
LayerCount: 2
Fore
SplineSet
5 403 m 1
 101 731.0078125 l 1
 294 731.0078125 l 1
 158 403 l 1
 5 403 l 1
EndSplineSet
EndChar

StartChar: bullet
Encoding: 8226 8226 237
Width: 354
Flags: W
HStem: 180 288<93.9418 260.058>
VStem: 30 294<242.637 405.363>
LayerCount: 2
Fore
SplineSet
30 324 m 0
 30 412.00015024 87.1656231746 468 177 468 c 0
 266.834376825 468 324 412.00015024 324 324 c 0
 324 235.99984976 266.834376825 180 177 180 c 4
 87.1656231746 180 30 235.99984976 30 324 c 0
EndSplineSet
EndChar

StartChar: ampersand.ss05
Encoding: 65565 -1 238
Width: 778
Flags: W
HStem: -9.99805 140.282<232.216 415.092> 0 21G<529.002 773> 609.959 129.401<300.736 394.475>
VStem: 35 173.244<156.183 259.731> 127.32 162.033<486.836 599.082> 403.329 150.251<503.08 599.936> 549 166<292.641 413>
LayerCount: 2
Fore
SplineSet
773 0 m 1x6c
 548 0 548 0 548 0 c 1
 298.005859375 263.180664062 l 2
 151.073911395 408.800471443 127.3203125 485.867934245 127.3203125 559.932617188 c 0
 127.3203125 668.98046875 205.560392943 739.360351562 344.895507812 739.360351562 c 0
 483.830368703 739.360351562 553.580078125 672.029296875 553.580078125 577.102539062 c 0x6c
 553.580078125 487.686385342 515.262406608 429.875741344 366 344.236328125 c 0
 252.615216037 282.474295588 208.244140625 265.876964164 208.244140625 203 c 0
 208.244140625 160.945942058 242.586366865 130.284179688 308.047851562 130.284179688 c 0
 437.741036129 130.284179688 549 234 549 413 c 1
 715 413 l 1
 715 194 543.870431993 -9.998046875 291.74609375 -9.998046875 c 0
 145.515625 -9.998046875 35 65.9287109375 35 191.782226562 c 0xb2
 35 350.91015625 205.720571785 395.455396487 333.591796875 464.536132812 c 0
 391.336347671 498.68276403 403.329101562 525.354535665 403.329101562 557.333007812 c 0
 403.329101562 589.248825624 383.816169854 609.958984375 346.720703125 609.958984375 c 0
 310.154119663 609.958984375 289.353515625 587.533576911 289.353515625 548 c 0
 289.353515625 491.703612538 341.712491945 440.50129932 454.845703125 324.951171875 c 2
 773 0 l 1x6c
EndSplineSet
EndChar

StartChar: b.ss03
Encoding: 65567 -1 239
Width: 631
Flags: W
HStem: -9.99805 146<271.648 381.251> 0 21G<55 213.178> 387.934 143<252.47 386.66> 741.011 20G<55 237>
VStem: 55 182<84.9737 110.936 112.011 310.934 447.934 761.011> 425 176<180.442 348.386>
LayerCount: 2
Fore
SplineSet
237 761.010742188 m 1x7c
 237 112.010742188 l 1
 208 0 l 1
 55 0 l 1
 55 761.010742188 l 1
 237 761.010742188 l 1x7c
158 110.935546875 m 1
 198 213.001953125 l 1
 198 213.001953125 240.142857143 136.001953125 316 136.001953125 c 0
 390.356589147 136.001953125 425 191.220357198 425 264.935546875 c 0
 425 340.935546875 394.016260163 387.93359375 322 387.93359375 c 0
 231.317073171 387.93359375 179 310.93359375 179 310.93359375 c 1
 156 447.93359375 l 1
 156 447.93359375 238.222222222 530.93359375 356 530.93359375 c 0
 515.943396226 530.93359375 601 426.935546875 601 269.935546875 c 0
 601 100.935546875 520.263157895 -9.998046875 365 -9.998046875 c 4xbc
 232.847457627 -9.998046875 158 110.935546875 158 110.935546875 c 1
EndSplineSet
EndChar

StartChar: d.ss03
Encoding: 65568 -1 240
Width: 631
Flags: W
HStem: -9.99805 146<249.749 359.352> 0 21G<417.822 576> 387.934 143<244.34 378.53> 741.011 20G<394 576>
VStem: 30 176<180.442 348.386> 394 182<84.9737 110.936 112.011 310.934 447.934 761.011>
LayerCount: 2
Fore
SplineSet
394 761.010742188 m 1x7c
 576 761.010742188 l 1
 576 0 l 1
 423 0 l 1
 394 112.010742188 l 1
 394 761.010742188 l 1x7c
473 110.935546875 m 1
 473 110.935546875 398.152542373 -9.998046875 266 -9.998046875 c 4
 110.736842105 -9.998046875 30 100.935546875 30 269.935546875 c 0
 30 426.935546875 115.056603774 530.93359375 275 530.93359375 c 0
 392.777777778 530.93359375 475 447.93359375 475 447.93359375 c 1
 452 310.93359375 l 1
 452 310.93359375 399.682926829 387.93359375 309 387.93359375 c 0
 236.983739837 387.93359375 206 340.935546875 206 264.935546875 c 0
 206 191.220357198 240.643410853 136.001953125 315 136.001953125 c 0xbc
 390.857142857 136.001953125 433 213.001953125 433 213.001953125 c 1
 473 110.935546875 l 1
EndSplineSet
EndChar

StartChar: p.ss03
Encoding: 65570 -1 241
Width: 631
Flags: W
HStem: -180 21G<55 238> -9.99805 146<271.648 382.298> 383.934 147<271.267 385.402> 501.011 20G<55 213.357>
VStem: 55 183<-180 409 417.934 435.136> 425 176<178.754 342.241>
LayerCount: 2
Fore
SplineSet
238 -180 m 1xdc
 55 -180 l 1
 55 521.010742188 l 1
 208 521.010742188 l 1
 238 409 l 1
 238 -180 l 1xdc
158 110.935546875 m 1
 198 213.001953125 l 1
 198 213.001953125 240.142857143 136.001953125 316 136.001953125 c 4
 390.356589147 136.001953125 425 186.937656122 425 254.935546875 c 0
 425 334.642922818 394.016260163 383.93359375 322 383.93359375 c 0
 231.317073171 383.93359375 179 280.93359375 179 280.93359375 c 1
 156 417.93359375 l 1
 156 417.93359375 238.222222222 530.93359375 369 530.93359375 c 0xec
 515.943396226 530.93359375 601 426.935546875 601 269.935546875 c 0
 601 100.935546875 520.263157895 -9.998046875 365 -9.998046875 c 0
 232.847457627 -9.998046875 158 110.935546875 158 110.935546875 c 1
EndSplineSet
EndChar

StartChar: q.ss03
Encoding: 65571 -1 242
Width: 631
Flags: W
HStem: -180 21G<393 576> -9.99805 146<248.702 359.352> 383.934 147<245.598 359.733> 501.011 20G<417.643 576>
VStem: 30 176<178.754 342.241> 393 183<-180 409 417.934 435.136>
LayerCount: 2
Fore
SplineSet
393 -180 m 1xdc
 393 409 l 1
 423 521.010742188 l 1
 576 521.010742188 l 1
 576 -180 l 1
 393 -180 l 1xdc
473 110.935546875 m 1
 473 110.935546875 398.152542373 -9.998046875 266 -9.998046875 c 0
 110.736842105 -9.998046875 30 100.935546875 30 269.935546875 c 0
 30 426.935546875 115.056603774 530.93359375 262 530.93359375 c 0
 392.777777778 530.93359375 475 417.93359375 475 417.93359375 c 1
 452 280.93359375 l 1
 452 280.93359375 399.682926829 383.93359375 309 383.93359375 c 0xec
 236.983739837 383.93359375 206 334.642922818 206 254.935546875 c 0
 206 186.937656122 240.643410853 136.001953125 315 136.001953125 c 4
 390.857142857 136.001953125 433 213.001953125 433 213.001953125 c 1
 473 110.935546875 l 1
EndSplineSet
EndChar

StartChar: g.ss03
Encoding: 65569 -1 243
Width: 631
Flags: W
HStem: -189.994 141<148.052 369.854> 35.002 135<244.141 374.569> 383.934 147<240.378 364.351> 501.011 20G<417.643 576>
VStem: 30 176<206.312 348.497> 393 183<-26.7263 29.0059 253.002 310.934 409 435.136>
LayerCount: 2
Fore
SplineSet
393 29.005859375 m 2xdc
 393 409 l 1
 423 521.010742188 l 1
 576 521.010742188 l 1
 576 28.005859375 l 2
 576 -130 480.592592593 -189.994140625 296 -189.994140625 c 0
 136.563876652 -189.994140625 64 -143.994140625 64 -143.994140625 c 1
 95 -3.994140625 l 1
 95 -3.994140625 164.837837838 -48.994140625 285 -48.994140625 c 0
 353.326530612 -48.994140625 393 -30 393 29.005859375 c 2xdc
473 130.935546875 m 1
 473 130.935546875 401.768361582 35.001953125 276 35.001953125 c 0
 114.157894737 35.001953125 30 128.102704264 30 269.935546875 c 0
 30 426.935546875 115.056603774 530.93359375 262 530.93359375 c 0
 392.777777778 530.93359375 475 427.93359375 475 427.93359375 c 5
 432 310.93359375 l 5
 432 310.93359375 387 383.93359375 309 383.93359375 c 0xec
 236.983739837 383.93359375 206 342.285003008 206 274.935546875 c 0
 206 214.941874615 240.643410853 170.001953125 315 170.001953125 c 0
 390.857142857 170.001953125 433 253.001953125 433 253.001953125 c 1
 473 130.935546875 l 1
EndSplineSet
EndChar

StartChar: a.ss03
Encoding: 65566 -1 244
Width: 588
Flags: W
HStem: -9.99805 125.229<219.342 340.048> 0 21G<382.231 388> 223.126 105.81<216.676 356.837> 396.93 134<120.074 333.975>
VStem: 30 175<129.615 209.286> 358 175<79.7416 104.011 142.24 187.691 312.93 373.588>
LayerCount: 2
Fore
SplineSet
358 104.010742188 m 1x7c
 358 316.9296875 l 2
 358 376 318.326171875 396.9296875 250 396.9296875 c 0
 152.60546875 396.9296875 96 364.9296875 96 364.9296875 c 1
 69 497.9296875 l 1
 69 497.9296875 132.18061674 530.9296875 271 530.9296875 c 0
 449 530.9296875 533 470 533 312.9296875 c 2
 533 0.001953125 l 1
 533 0 388 0 388 0 c 1
 358 104.010742188 l 1x7c
427 74.0419921875 m 1
 427 74.0419921875 362.715802277 -9.998046875 233 -9.998046875 c 0
 100.688317098 -9.998046875 30 59.2265191609 30 162 c 4
 30 279.480022349 115.931451613 328.935546875 241 328.935546875 c 0
 368.936507937 328.935546875 427 281.935546875 427 281.935546875 c 1
 407 187.69140625 l 1
 407 187.69140625 362.365853659 223.125976562 285 223.125976562 c 0
 231.666666667 223.125976562 205 205.974677734 205 171.15234375 c 0
 205 135.178818562 233.323951496 115.231445312 289 115.231445312 c 0xbc
 348.79440421 115.231445312 374 142.240234375 374 142.240234375 c 1
 427 74.0419921875 l 1
EndSplineSet
EndChar
